<svg width="63" height="60" viewBox="0 0 63 60" fill="none" xmlns="http://www.w3.org/2000/svg">
<g clip-path="url(#clip0_610_530)">
<path d="M31.4994 46.4198C29.2104 46.4198 26.989 45.9718 24.8973 45.0868C22.8778 44.2328 21.0634 43.0096 19.5063 41.4525C17.9492 39.8954 16.726 38.081 15.872 36.0614C14.987 33.9698 14.5389 31.7484 14.5389 29.4593C14.5389 27.1703 14.987 24.9489 15.872 22.8572C16.726 20.8377 17.9492 19.0233 19.5063 17.4662C21.0634 15.9091 22.8778 14.6859 24.8973 13.8319C26.989 12.9469 29.2104 12.4988 31.4994 12.4988C33.7885 12.4988 36.0099 12.9469 38.1015 13.8319C40.1211 14.6859 41.9355 15.9091 43.4926 17.4662C45.0497 19.0233 46.2729 20.8377 47.1269 22.8572C48.0119 24.9489 48.4599 27.1703 48.4599 29.4593C48.4599 31.7484 48.0119 33.9698 47.1269 36.0614C46.2729 38.081 45.0497 39.8954 43.4926 41.4525C41.9355 43.0096 40.1211 44.2328 38.1015 45.0868C36.0099 45.9718 33.7885 46.4198 31.4994 46.4198ZM31.4994 14.4275C29.4699 14.4275 27.5014 14.8245 25.6482 15.6086C23.8582 16.3661 22.2501 17.4496 20.8693 18.8303C19.4886 20.2111 18.4039 21.8192 17.6476 23.6092C16.8635 25.4613 16.4664 27.4309 16.4664 29.4605C16.4664 31.49 16.8635 33.4585 17.6476 35.3117C18.405 37.1017 19.4886 38.7098 20.8693 40.0906C22.2501 41.4713 23.8582 42.556 25.6482 43.3123C27.5003 44.0964 29.4699 44.4934 31.4994 44.4934C33.529 44.4934 35.4975 44.0964 37.3507 43.3123C39.1407 42.5548 40.7488 41.4713 42.1296 40.0906C43.5103 38.7098 44.5949 37.1017 45.3513 35.3117C46.1354 33.4585 46.5324 31.49 46.5324 29.4605C46.5324 27.4309 46.1354 25.4624 45.3513 23.6092C44.5938 21.8192 43.5103 20.2111 42.1296 18.8303C40.7488 17.4496 39.1407 16.3649 37.3507 15.6086C35.4986 14.8245 33.529 14.4275 31.4994 14.4275Z" fill="white"/>
<path d="M32.4632 4.35406H30.5357V13.4637H32.4632V4.35406Z" fill="white"/>
<path d="M32.4632 45.4561H30.5357V54.5657H32.4632V45.4561Z" fill="white"/>
<path d="M56.6058 28.4956H47.4962V30.4231H56.6058V28.4956Z" fill="white"/>
<path d="M15.5038 28.4956H6.39417V30.4231H15.5038V28.4956Z" fill="white"/>
<path d="M31.4994 6.39803C29.735 6.39803 28.2999 4.96294 28.2999 3.19846C28.2999 1.43398 29.7361 0 31.4994 0C33.2628 0 34.699 1.43509 34.699 3.19957C34.699 4.96405 33.2639 6.39914 31.4994 6.39914V6.39803ZM31.4994 1.92751C30.7985 1.92751 30.2285 2.49755 30.2285 3.19846C30.2285 3.89937 30.7985 4.46942 31.4994 4.46942C32.2003 4.46942 32.7704 3.89937 32.7704 3.19846C32.7704 2.49755 32.2003 1.92751 31.4994 1.92751Z" fill="white"/>
<path d="M58.8405 32.6589C57.076 32.6589 55.6409 31.2238 55.6409 29.4593C55.6409 27.6949 57.076 26.2598 58.8405 26.2598C60.605 26.2598 62.0401 27.6949 62.0401 29.4593C62.0401 31.2238 60.605 32.6589 58.8405 32.6589ZM58.8405 28.1884C58.1396 28.1884 57.5695 28.7584 57.5695 29.4593C57.5695 30.1602 58.1396 30.7303 58.8405 30.7303C59.5414 30.7303 60.1115 30.1602 60.1115 29.4593C60.1115 28.7584 59.5414 28.1884 58.8405 28.1884Z" fill="white"/>
<path d="M31.4994 60C29.735 60 28.2999 58.5649 28.2999 56.8004C28.2999 55.0359 29.735 53.6008 31.4994 53.6008C33.2639 53.6008 34.699 55.0359 34.699 56.8004C34.699 58.5649 33.2639 60 31.4994 60ZM31.4994 55.5294C30.7985 55.5294 30.2285 56.0995 30.2285 56.8004C30.2285 57.5013 30.7985 58.0714 31.4994 58.0714C32.2003 58.0714 32.7704 57.5013 32.7704 56.8004C32.7704 56.0995 32.2003 55.5294 31.4994 55.5294Z" fill="white"/>
<path d="M4.15947 32.6589C2.39499 32.6589 0.9599 31.2238 0.9599 29.4593C0.9599 27.6949 2.39499 26.2598 4.15947 26.2598C5.92395 26.2598 7.35904 27.6949 7.35904 29.4593C7.35904 31.2238 5.92395 32.6589 4.15947 32.6589ZM4.15947 28.1884C3.45856 28.1884 2.88851 28.7584 2.88851 29.4593C2.88851 30.1602 3.45856 30.7303 4.15947 30.7303C4.86038 30.7303 5.43043 30.1602 5.43043 29.4593C5.43043 28.7584 4.86038 28.1884 4.15947 28.1884Z" fill="white"/>
<path d="M31.1046 32.8819H25.8822C25.6958 32.8819 25.5295 33.0005 25.4674 33.1769L24.4493 36.1014C24.3883 36.2777 24.2219 36.3964 24.0345 36.3964H22.2556C21.9484 36.3964 21.7366 36.0892 21.8453 35.8031L27.2141 21.5896C27.2784 21.4188 27.4415 21.3057 27.6244 21.3057H29.3712C29.5531 21.3057 29.7172 21.4188 29.7815 21.5896L35.1604 35.8031C35.269 36.0903 35.0572 36.3975 34.75 36.3975H32.96C32.7737 36.3975 32.6073 36.2799 32.5464 36.1036L31.5194 33.1769C31.4573 33.0016 31.292 32.883 31.1057 32.883L31.1046 32.8819ZM26.9235 30.768H30.061C30.3627 30.768 30.5745 30.4697 30.4747 30.1847L28.9054 25.6931C28.769 25.3016 28.2145 25.3016 28.0769 25.6931L26.5076 30.1847C26.4078 30.4697 26.6197 30.768 26.9213 30.768H26.9235Z" fill="white"/>
<path d="M39.4235 36.3952H37.689C37.4472 36.3952 37.2498 36.1989 37.2498 35.9561V21.7426C37.2498 21.5009 37.4461 21.3035 37.689 21.3035H39.4235C39.6653 21.3035 39.8627 21.4998 39.8627 21.7426V35.9561C39.8627 36.1978 39.6664 36.3952 39.4235 36.3952Z" fill="white"/>
<path d="M47.4962 10.8686C45.7317 10.8686 44.2966 9.43347 44.2966 7.66899C44.2966 5.90452 45.7317 4.46942 47.4962 4.46942C49.2607 4.46942 50.6958 5.90452 50.6958 7.66899C50.6958 9.43347 49.2607 10.8686 47.4962 10.8686ZM47.4962 6.39804C46.7953 6.39804 46.2252 6.96808 46.2252 7.66899C46.2252 8.3699 46.7953 8.93995 47.4962 8.93995C48.1971 8.93995 48.7672 8.3699 48.7672 7.66899C48.7672 6.96808 48.1971 6.39804 47.4962 6.39804Z" fill="white"/>
<path d="M58.3437 14.0937C56.5792 14.0937 55.1441 12.6586 55.1441 10.8941C55.1441 9.12961 56.5792 7.69452 58.3437 7.69452C60.1082 7.69452 61.5432 9.12961 61.5432 10.8941C61.5432 12.6586 60.1082 14.0937 58.3437 14.0937ZM58.3437 9.62313C57.6428 9.62313 57.0727 10.1932 57.0727 10.8941C57.0727 11.595 57.6428 12.165 58.3437 12.165C59.0446 12.165 59.6146 11.595 59.6146 10.8941C59.6146 10.1932 59.0446 9.62313 58.3437 9.62313Z" fill="white"/>
<path d="M39.9049 15.4988H37.9774V10.313C37.9774 8.24128 39.6631 6.55554 41.7348 6.55554H45.9591V8.48305H41.7348C40.7267 8.48305 39.906 9.30374 39.906 10.3118V15.4977L39.9049 15.4988Z" fill="white"/>
<path d="M54.8569 22.865H45.6008V20.9375H54.8569C56.2476 20.9375 57.3799 19.8052 57.3799 18.4144V13.1299H59.3074V18.4144C59.3074 20.8687 57.3112 22.865 54.8569 22.865Z" fill="white"/>
<path d="M15.5038 10.8686C13.7394 10.8686 12.3043 9.43347 12.3043 7.66899C12.3043 5.90452 13.7394 4.46942 15.5038 4.46942C17.2683 4.46942 18.7034 5.90452 18.7034 7.66899C18.7034 9.43347 17.2683 10.8686 15.5038 10.8686ZM15.5038 6.39804C14.8029 6.39804 14.2329 6.96808 14.2329 7.66899C14.2329 8.3699 14.8029 8.93995 15.5038 8.93995C16.2047 8.93995 16.7748 8.3699 16.7748 7.66899C16.7748 6.96808 16.2047 6.39804 15.5038 6.39804Z" fill="white"/>
<path d="M4.6563 14.0937C2.89182 14.0937 1.45673 12.6586 1.45673 10.8941C1.45673 9.12961 2.89182 7.69452 4.6563 7.69452C6.42077 7.69452 7.85587 9.12961 7.85587 10.8941C7.85587 12.6586 6.42077 14.0937 4.6563 14.0937ZM4.6563 9.62313C3.95539 9.62313 3.38534 10.1932 3.38534 10.8941C3.38534 11.595 3.95539 12.165 4.6563 12.165C5.35721 12.165 5.92725 11.595 5.92725 10.8941C5.92725 10.1932 5.35721 9.62313 4.6563 9.62313Z" fill="white"/>
<path d="M25.0227 15.4988H23.0952V10.3129C23.0952 9.30483 22.2745 8.48415 21.2664 8.48415H17.0421V6.55664H21.2664C23.3381 6.55664 25.0238 8.24238 25.0238 10.3141V15.4999L25.0227 15.4988Z" fill="white"/>
<path d="M17.3992 22.865H8.14313C5.68883 22.865 3.69257 20.8687 3.69257 18.4144V13.1299H5.62007V18.4144C5.62007 19.8052 6.7524 20.9375 8.14313 20.9375H17.3992V22.865Z" fill="white"/>
<path d="M15.5315 54.396C13.7671 54.396 12.332 52.9609 12.332 51.1965C12.332 49.432 13.7671 47.9969 15.5315 47.9969C17.296 47.9969 18.7311 49.432 18.7311 51.1965C18.7311 52.9609 17.296 54.396 15.5315 54.396ZM15.5315 49.9255C14.8306 49.9255 14.2606 50.4955 14.2606 51.1965C14.2606 51.8974 14.8306 52.4674 15.5315 52.4674C16.2325 52.4674 16.8025 51.8974 16.8025 51.1965C16.8025 50.4955 16.2325 49.9255 15.5315 49.9255Z" fill="white"/>
<path d="M4.68407 51.1709C2.91959 51.1709 1.4845 49.7358 1.4845 47.9714C1.4845 46.2069 2.91959 44.7718 4.68407 44.7718C6.44855 44.7718 7.88364 46.2069 7.88364 47.9714C7.88364 49.7358 6.44855 51.1709 4.68407 51.1709ZM4.68407 46.7004C3.98316 46.7004 3.41311 47.2704 3.41311 47.9714C3.41311 48.6723 3.98316 49.2423 4.68407 49.2423C5.38498 49.2423 5.95502 48.6723 5.95502 47.9714C5.95502 47.2704 5.38498 46.7004 4.68407 46.7004Z" fill="white"/>
<path d="M21.2941 52.31H17.0698V50.3825H21.2941C22.3022 50.3825 23.1229 49.5618 23.1229 48.5537V43.3678H25.0504V48.5537C25.0504 50.6253 23.3647 52.3111 21.293 52.3111L21.2941 52.31Z" fill="white"/>
<path d="M5.64778 45.7367H3.72028V40.4521C3.72028 37.9978 5.71654 36.0015 8.17084 36.0015H17.4269V37.929H8.17084C6.78011 37.929 5.64778 39.0614 5.64778 40.4521V45.7367Z" fill="white"/>
<path d="M47.3143 54.396C45.5498 54.396 44.1147 52.9609 44.1147 51.1965C44.1147 49.432 45.5498 47.9969 47.3143 47.9969C49.0788 47.9969 50.5139 49.432 50.5139 51.1965C50.5139 52.9609 49.0788 54.396 47.3143 54.396ZM47.3143 49.9255C46.6134 49.9255 46.0434 50.4955 46.0434 51.1965C46.0434 51.8974 46.6134 52.4674 47.3143 52.4674C48.0152 52.4674 48.5853 51.8974 48.5853 51.1965C48.5853 50.4955 48.0152 49.9255 47.3143 49.9255Z" fill="white"/>
<path d="M58.1618 51.1709C56.3973 51.1709 54.9622 49.7358 54.9622 47.9714C54.9622 46.2069 56.3973 44.7718 58.1618 44.7718C59.9263 44.7718 61.3614 46.2069 61.3614 47.9714C61.3614 49.7358 59.9263 51.1709 58.1618 51.1709ZM58.1618 46.7004C57.4609 46.7004 56.8908 47.2704 56.8908 47.9714C56.8908 48.6723 57.4609 49.2423 58.1618 49.2423C58.8627 49.2423 59.4327 48.6723 59.4327 47.9714C59.4327 47.2704 58.8627 46.7004 58.1618 46.7004Z" fill="white"/>
<path d="M45.776 52.3099H41.5517C39.48 52.3099 37.7943 50.6242 37.7943 48.5525V43.3666H39.7218V48.5525C39.7218 49.5606 40.5425 50.3813 41.5506 50.3813H45.7749V52.3088L45.776 52.3099Z" fill="white"/>
<path d="M59.1267 45.7367H57.1992V40.4521C57.1992 39.0614 56.0669 37.929 54.6761 37.929H45.4201V36.0015H54.6761C57.1304 36.0015 59.1267 37.9978 59.1267 40.4521V45.7367Z" fill="white"/>
</g>
<defs>
<clipPath id="clip0_610_530">
<rect width="61.0802" height="60" fill="white" transform="translate(0.9599)"/>
</clipPath>
</defs>
</svg>
