<svg width="57" height="56" viewBox="0 0 57 56" fill="none" xmlns="http://www.w3.org/2000/svg">
<g clip-path="url(#clip0_610_522)">
<path d="M39.5656 56H3.5464C1.8808 56 0.524 54.6657 0.5 53.0185C0.5 53.0106 0.5 53.0011 0.5 52.9931V6.77783C0.5 6.7683 0.5 6.75877 0.5 6.74924C0.5256 5.12904 1.9096 3.76935 3.5464 3.76935H9.1192C9.7384 3.76935 10.2392 4.26653 10.2392 4.88125C10.2392 5.49597 9.7384 5.99315 9.1192 5.99315H3.5464C3.124 5.99315 2.74 6.37437 2.74 6.79371V52.9741C2.74 53.3998 3.116 53.7746 3.5464 53.7746H39.5656C39.9944 53.7746 40.372 53.4013 40.372 52.9741V38.432C40.372 37.8173 40.8728 37.3201 41.492 37.3201C42.1112 37.3201 42.612 37.8173 42.612 38.432V52.9741C42.612 54.6133 41.2168 55.9984 39.5656 55.9984V56ZM21.1464 48.293C20.86 48.293 20.5736 48.1849 20.3544 47.9673C19.9176 47.5337 19.9176 46.8284 20.3544 46.3948L22.4312 44.333C22.0792 43.5896 21.9624 42.7112 22.1096 41.7963C22.3352 40.389 23.1608 38.9451 24.4936 37.6219L45.5368 16.7309C45.5864 16.6436 45.6488 16.561 45.7224 16.4863C45.796 16.4116 45.8808 16.3497 45.9688 16.302L49.7272 12.5708C50.164 12.1372 50.8744 12.1372 51.3112 12.5708L56.1736 17.3981C56.3832 17.6061 56.5016 17.8889 56.5016 18.1843C56.5016 18.4798 56.3832 18.7625 56.1736 18.9706L52.9912 22.13L55.38 24.5015C55.5896 24.7096 55.708 24.9939 55.708 25.2894C55.708 25.5848 55.5896 25.8675 55.3784 26.0756L45.9352 35.4156C45.4968 35.8492 44.788 35.8476 44.3512 35.4124C43.9144 34.9772 43.916 34.2735 44.3544 33.8399L53.0024 25.2862L51.4072 23.7025L30.94 44.0217C29.6056 45.3464 28.1528 46.1645 26.7352 46.3884C25.7224 46.5489 24.756 46.3932 23.9624 45.958L21.9384 47.9673C21.7192 48.1849 21.4328 48.293 21.1464 48.293ZM24.7048 43.7485C24.7144 43.7596 24.7256 43.7707 24.7368 43.7802C25.5512 44.5887 27.4008 44.3918 29.3576 42.4476L49.8248 22.1284L46.5464 18.8737L26.0792 39.1929C24.1688 41.0894 23.9336 42.8844 24.6808 43.7215C24.6888 43.7294 24.6968 43.7389 24.7048 43.7485ZM48.1288 17.3027L51.4072 20.5574L53.7976 18.1843L50.5192 14.9296L48.1288 17.3027ZM41.492 16.8898C40.8728 16.8898 40.372 16.3926 40.372 15.7779V6.79689C40.372 6.37755 39.988 5.99632 39.5656 5.99632H34.148C33.5288 5.99632 33.028 5.49915 33.028 4.88442C33.028 4.2697 33.5288 3.77253 34.148 3.77253H39.5656C41.2168 3.77253 42.612 5.15763 42.612 6.79689V15.7779C42.612 16.3926 42.1112 16.8898 41.492 16.8898Z" fill="white"/>
<path d="M32.5816 25.364H17.7224C17.1032 25.364 16.6024 24.8668 16.6024 24.2521C16.6024 23.6374 17.1032 23.1402 17.7224 23.1402H32.5816C33.2008 23.1402 33.7016 23.6374 33.7016 24.2521C33.7016 24.8668 33.2008 25.364 32.5816 25.364ZM32.5816 17.8619H17.7224C17.1032 17.8619 16.6024 17.3647 16.6024 16.75C16.6024 16.1352 17.1032 15.6381 17.7224 15.6381H32.5816C33.2008 15.6381 33.7016 16.1352 33.7016 16.75C33.7016 17.3647 33.2008 17.8619 32.5816 17.8619Z" fill="white"/>
<path d="M30.3272 9.18746H12.7832C12.164 9.18746 11.6632 8.69028 11.6632 8.07556V1.1119C11.6632 0.497178 12.164 0 12.7832 0H30.3272C30.9464 0 31.4472 0.497178 31.4472 1.1119V8.07556C31.4472 8.69028 30.9464 9.18746 30.3272 9.18746ZM13.9032 6.96366H29.2072V2.2238H13.9032V6.96366Z" fill="white"/>
<path d="M9.3848 35.2567H9.3832C9.036 35.2567 8.708 35.0947 8.4968 34.8215L6.6312 32.4055C6.2552 31.9179 6.348 31.2205 6.8392 30.8473C7.3304 30.474 8.0328 30.5661 8.4088 31.0537L9.388 32.3229L12.3064 28.5726C12.684 28.0866 13.388 27.9976 13.8776 28.3725C14.3672 28.7474 14.4568 29.4463 14.0792 29.9323L10.2696 34.8263C10.0568 35.0995 9.7304 35.2583 9.3832 35.2583L9.3848 35.2567ZM9.4408 27.5846H9.4392C9.092 27.5846 8.764 27.4226 8.5528 27.1494L6.6872 24.7334C6.3112 24.2458 6.404 23.5484 6.8952 23.1751C7.3864 22.8019 8.0888 22.894 8.4648 23.3816L9.44401 24.6508L12.3624 20.9005C12.74 20.4145 13.444 20.3255 13.9336 20.7004C14.4232 21.0752 14.5128 21.7742 14.1352 22.2602L10.3272 27.1542C10.1144 27.4274 9.788 27.5862 9.4408 27.5862V27.5846ZM9.4408 19.8585H9.4392C9.092 19.8585 8.764 19.6965 8.5528 19.4233L6.6872 17.0073C6.3112 16.5196 6.404 15.8223 6.8952 15.449C7.3864 15.0758 8.0888 15.1679 8.4648 15.6555L9.44401 16.9247L12.3624 13.1744C12.74 12.6884 13.444 12.5994 13.9336 12.9743C14.4232 13.3491 14.5128 14.048 14.1352 14.5341L10.3272 19.428C10.1144 19.7013 9.788 19.8601 9.4408 19.8601V19.8585Z" fill="white"/>
</g>
<defs>
<clipPath id="clip0_610_522">
<rect width="56" height="56" fill="white" transform="translate(0.5)"/>
</clipPath>
</defs>
</svg>
