<svg width="55" height="57" viewBox="0 0 55 57" fill="none" xmlns="http://www.w3.org/2000/svg">
<g clip-path="url(#clip0_610_561)">
<path d="M53.4557 25.4148C52.6767 24.6317 51.6262 24.1971 50.5097 24.1971C49.4623 24.1971 48.475 24.5777 47.7069 25.2746C47.6609 25.3167 47.6148 25.3597 47.5707 25.4038L43.8126 29.0337L40.9698 31.7804C40.2077 31.0945 39.1904 30.6739 38.0969 30.6739H28.4358C27.7598 30.6739 27.118 30.5237 26.5732 30.2423C24.8749 29.3632 23.0455 28.9145 21.1389 28.9145C20.2066 28.9145 19.2813 29.0227 18.3791 29.233C17.6271 29.4072 16.8921 29.6525 16.1841 29.962C14.6681 30.6259 13.2762 31.5902 12.1096 32.8108C11.4107 33.5428 10.8259 34.3389 10.3472 35.1821C9.85255 34.9577 9.31081 34.8376 8.74905 34.8376C7.70263 34.8376 6.7193 35.2451 5.98029 35.9841L0.760208 41.2042C0.1654 41.799 0.1654 42.7663 0.760208 43.3642L13.4474 56.0514C14.0462 56.6462 15.0125 56.6462 15.6074 56.0514L16.1821 55.4766L20.8274 50.8313C21.8779 49.7809 22.2053 48.2868 21.8138 46.955L22.1552 46.6176C23.1556 45.6142 24.5124 45.0525 25.9304 45.0525H40.5843C41.6978 45.0525 42.7512 44.5508 43.4501 43.6846L53.5589 31.2277C54.2878 30.4516 54.6854 29.4453 54.6854 28.3718C54.6854 27.2984 54.2468 26.1979 53.4547 25.4128L53.4557 25.4148ZM19.1722 49.178L14.5269 53.8234L2.99023 42.2867L7.63554 37.6414C7.94296 37.334 8.3475 37.1798 8.74905 37.1798C9.15059 37.1798 9.55514 37.334 9.86256 37.6414L19.1722 46.951C19.788 47.5669 19.788 48.5632 19.1722 49.178ZM51.8065 29.6756L41.6337 42.2126C41.3763 42.53 40.9878 42.7143 40.5802 42.7143H25.5819C23.7664 42.7143 22.0271 43.4363 20.7433 44.721L20.496 44.9653L12.2057 36.6751C13.2902 34.5502 15.2058 32.8679 17.4609 31.9717C18.2239 31.6683 19.025 31.455 19.8461 31.3438C20.2717 31.2868 20.7033 31.2567 21.1379 31.2567C22.5958 31.2567 24.0809 31.5882 25.4988 32.3232C26.415 32.7978 27.4454 33.0151 28.4778 33.0151H38.0949C38.7347 33.0151 39.3265 33.3245 39.679 33.8132C39.8573 34.0605 39.9744 34.3529 40.0045 34.6744C40.1116 35.7709 39.2514 36.6941 38.175 36.6941H28.8113C28.1654 36.6941 27.6407 37.2188 27.6407 37.8647C27.6407 38.2352 27.8139 38.5666 28.0833 38.7809C28.2826 38.9402 28.5359 39.0353 28.8103 39.0353H38.0999C38.5315 39.0353 38.9661 38.9852 39.3806 38.858C41.3633 38.2442 42.4828 36.3987 42.3396 34.5322C42.3376 34.5061 42.3356 34.4801 42.3326 34.4541C42.3126 34.2368 42.2725 34.0295 42.2185 33.8252L45.4749 30.6799L49.205 27.0771C49.5624 26.7196 50.0341 26.5383 50.5057 26.5383C50.9774 26.5383 51.445 26.7186 51.8035 27.0771C52.165 27.4345 52.3422 27.9062 52.3422 28.3748C52.3422 28.8434 52.165 29.3181 51.8035 29.6756H51.8065Z" fill="white"/>
<path d="M8.91628 42.7143C9.65513 42.7143 10.2541 42.1153 10.2541 41.3764C10.2541 40.6376 9.65513 40.0386 8.91628 40.0386C8.17742 40.0386 7.57846 40.6376 7.57846 41.3764C7.57846 42.1153 8.17742 42.7143 8.91628 42.7143Z" fill="white"/>
<path d="M38.3512 20.1557C38.3512 16.9924 33.9833 17.1306 33.9833 15.5524C33.9833 14.8094 34.4149 14.488 35.211 14.488C35.6486 14.488 36.0141 14.6041 36.3765 14.8274C36.7761 15.0748 37.2958 14.9997 37.6042 14.6452C37.9787 14.2166 37.8996 13.5547 37.431 13.2313C36.9613 12.9068 36.4216 12.6735 35.7757 12.5754V11.7092C35.7757 11.2636 35.4142 10.9021 34.9686 10.9021C34.523 10.9021 34.1615 11.2636 34.1615 11.7092V12.6104C32.6024 12.9208 31.6541 14.0444 31.6541 15.6666C31.6541 18.6526 36.0221 18.6226 36.0221 20.3249C36.0221 21.0779 35.6095 21.4674 34.6712 21.4674C34.1375 21.4674 33.6248 21.3142 33.0851 21.0118C32.6275 20.7555 32.0497 20.8997 31.7663 21.3403C31.4519 21.8289 31.6221 22.4798 32.1338 22.7552C32.7827 23.1047 33.5127 23.321 34.1615 23.3981V24.2452C34.1615 24.6908 34.523 25.0523 34.9686 25.0523C35.4142 25.0523 35.7757 24.6908 35.7757 24.2452V23.321C37.474 22.9615 38.3512 21.7418 38.3512 20.1557Z" fill="white"/>
<path d="M52.3662 16.1923C51.9677 12.242 50.2524 8.57598 47.4305 5.71209C44.1551 2.38958 39.668 0.506023 35.0027 0.500015C30.3253 0.494007 25.9284 2.31247 22.6219 5.61896C19.6639 8.57698 17.8975 12.4092 17.563 16.5328H15.4762C15.0556 16.5328 14.6761 16.7841 14.5119 17.1706C14.3476 17.5572 14.4298 18.0058 14.7212 18.3082L21.1879 25.0373C21.3852 25.2426 21.6586 25.3598 21.944 25.3598C22.2293 25.3598 22.5027 25.2426 22.7 25.0373L25.1363 22.5019L26.7284 20.8446L29.1658 18.3082C29.4572 18.0058 29.5393 17.5572 29.375 17.1706C29.2098 16.7841 28.8303 16.5328 28.4107 16.5328H26.382C26.377 16.5328 26.373 16.5278 26.374 16.5228C27.0809 12.5854 30.6317 9.37706 34.6913 9.24488C39.7381 9.08066 43.8777 13.2213 43.7125 18.2681C43.5613 22.8794 39.7972 26.6044 35.1839 26.7106C33.8511 26.7406 32.5834 26.4703 31.4428 25.9636C31.0433 25.7853 30.5677 25.8414 30.2512 26.1438C30.0299 26.3551 29.9248 26.6315 29.9248 26.9049C29.9248 27.2954 30.1401 27.6799 30.5376 27.8591C30.6127 27.8932 30.6888 27.9262 30.7649 27.9583C32.1007 28.523 33.5197 28.8094 34.9816 28.8094C36.4436 28.8094 37.8626 28.523 39.1984 27.9583C40.4881 27.4125 41.6467 26.6315 42.641 25.6361C43.6354 24.6418 44.4165 23.4832 44.9622 22.1935C45.528 20.8576 45.8134 19.4387 45.8134 17.9777C45.8134 16.5168 45.527 15.0968 44.9622 13.76C44.4165 12.4703 43.6364 11.3117 42.641 10.3173C41.6467 9.32299 40.4881 8.54193 39.1984 7.99519C37.8626 7.43042 36.4436 7.14403 34.9816 7.14403C33.5197 7.14403 32.1007 7.43042 30.7649 7.99519C29.4752 8.54093 28.3166 9.32199 27.3223 10.3173C26.3279 11.3117 25.5468 12.4703 25.0011 13.76C24.937 13.9122 24.8759 14.0644 24.8189 14.2186C24.4333 15.257 24.2461 16.3585 24.2321 17.466C24.224 18.1059 24.7408 18.6296 25.3806 18.6296H25.9294C25.9364 18.6296 25.9404 18.6386 25.9354 18.6436L24.3873 20.2548L21.95 22.7913H21.9379L17.9525 18.6436C17.9475 18.6386 17.9515 18.6296 17.9585 18.6296H18.1108C18.9689 18.6296 19.6659 17.9357 19.6689 17.0775C19.6689 17.0775 19.6689 17.0765 19.6689 17.0745C19.6689 16.6509 19.6949 16.2284 19.754 15.8088C20.8104 8.35067 27.2351 2.59686 34.9796 2.59686C42.7242 2.59686 49.4823 8.65408 50.2774 16.3936C50.3255 16.8612 50.6679 17.2538 51.1306 17.3339C51.8425 17.458 52.4343 16.8732 52.3662 16.1913V16.1923Z" fill="white"/>
<path d="M52.5155 18.9882C52.6082 18.4166 52.2201 17.8781 51.6486 17.7853C51.077 17.6925 50.5385 18.0806 50.4457 18.6522C50.3529 19.2237 50.7411 19.7623 51.3126 19.8551C51.8842 19.9478 52.4227 19.5597 52.5155 18.9882Z" fill="white"/>
<path d="M51.5481 22.5239C52.1272 22.5239 52.5966 22.0545 52.5966 21.4755C52.5966 20.8965 52.1272 20.4271 51.5481 20.4271C50.9691 20.4271 50.4997 20.8965 50.4997 21.4755C50.4997 22.0545 50.9691 22.5239 51.5481 22.5239Z" fill="white"/>
</g>
<defs>
<clipPath id="clip0_610_561">
<rect width="54.3728" height="56" fill="white" transform="translate(0.313599 0.5)"/>
</clipPath>
</defs>
</svg>
