<svg width="189" height="45" viewBox="0 0 189 45" fill="none" xmlns="http://www.w3.org/2000/svg">
<g clip-path="url(#clip0_53_43)">
<path d="M23.4147 1H0V9.93881H23.4775C30.2432 9.93881 36.2924 15.4809 36.6611 22.2744C37.0691 29.804 31.0906 36.0638 23.6867 36.0638H0V43.8038C0 44.4663 0.533519 45.0026 1.19257 45.0026H23.6867C36.023 45.0026 46.0082 34.6888 45.5584 22.1876C45.1347 10.5277 35.0214 1 23.4147 1Z" fill="#3F526F"/>
<path d="M22.991 18.5148H0V27.4852H22.991V18.5148Z" fill="#E4B95E"/>
</g>
<path d="M59.9683 8.77393C61.1714 8.15088 62.4014 7.83936 63.6582 7.83936C64.915 7.83936 65.9946 8.03809 66.897 8.43555C67.8101 8.82227 68.6104 9.38086 69.2979 10.1113C70.791 11.7334 71.5376 13.7852 71.5376 16.2666C71.5376 18.9844 70.7266 21.1758 69.1045 22.8408C67.5469 24.4414 65.6079 25.2417 63.2876 25.2417C61.2466 25.2417 59.5654 24.71 58.2441 23.6465C56.7617 22.4434 56.0205 20.7837 56.0205 18.6675V1.02344H59.9683V8.77393ZM59.9683 18.6191C59.9683 20.5098 61.1445 21.4551 63.4971 21.4551C64.6465 21.4551 65.6133 20.9502 66.3975 19.9404C67.1924 18.9092 67.5898 17.6255 67.5898 16.0894C67.5898 14.5425 67.1709 13.377 66.333 12.5928C65.5811 11.8945 64.5713 11.5454 63.3037 11.5454C62.541 11.5454 61.6978 11.8032 60.7739 12.3188C60.4839 12.48 60.2153 12.6572 59.9683 12.8506V18.6191ZM74.2769 16.7178C74.2769 15.4609 74.4917 14.2954 74.9214 13.2212C75.3511 12.147 75.958 11.207 76.7422 10.4014C78.418 8.69336 80.6094 7.83936 83.3164 7.83936C85.6045 7.83936 87.4414 8.59668 88.8271 10.1113C90.1914 11.5723 90.8735 13.4092 90.8735 15.6221C90.8735 16.4707 90.8091 17.0508 90.6802 17.3623C89.606 17.6631 87.4199 17.8135 84.1221 17.8135H78.4502C78.7295 18.9629 79.3794 19.8599 80.3999 20.5044C81.4204 21.1382 82.7471 21.4551 84.3799 21.4551C86.0879 21.4551 87.5542 21.1489 88.7788 20.5366C89.1011 20.3755 89.3428 20.2251 89.5039 20.0854C89.4824 20.5366 89.4556 20.9985 89.4233 21.4712L89.2461 23.9849C88.4297 24.5435 87.1084 24.9302 85.2822 25.145C84.7451 25.2095 84.2295 25.2417 83.7354 25.2417C81.0068 25.2417 78.751 24.4468 76.9678 22.8569C75.1738 21.2563 74.2769 19.21 74.2769 16.7178ZM86.5874 14.6875C86.147 12.3779 84.8901 11.2231 82.8169 11.2231C81.1841 11.2231 79.9434 11.9268 79.0947 13.334C78.8369 13.7637 78.6382 14.2363 78.4985 14.752C78.7563 14.7627 79.0732 14.7734 79.4492 14.7842H80.6416C81.0391 14.7949 81.4204 14.8003 81.7856 14.8003H82.7041C83.252 14.8003 83.7891 14.7949 84.3154 14.7842L85.6367 14.7358C85.9912 14.7251 86.3081 14.709 86.5874 14.6875ZM93.5806 16.7178C93.5806 15.4609 93.7954 14.2954 94.2251 13.2212C94.6548 12.147 95.2617 11.207 96.0459 10.4014C97.7217 8.69336 99.9131 7.83936 102.62 7.83936C104.908 7.83936 106.745 8.59668 108.131 10.1113C109.495 11.5723 110.177 13.4092 110.177 15.6221C110.177 16.4707 110.113 17.0508 109.984 17.3623C108.91 17.6631 106.724 17.8135 103.426 17.8135H97.7539C98.0332 18.9629 98.6831 19.8599 99.7036 20.5044C100.724 21.1382 102.051 21.4551 103.684 21.4551C105.392 21.4551 106.858 21.1489 108.083 20.5366C108.405 20.3755 108.646 20.2251 108.808 20.0854C108.786 20.5366 108.759 20.9985 108.727 21.4712L108.55 23.9849C107.733 24.5435 106.412 24.9302 104.586 25.145C104.049 25.2095 103.533 25.2417 103.039 25.2417C100.311 25.2417 98.0547 24.4468 96.2715 22.8569C94.4775 21.2563 93.5806 19.21 93.5806 16.7178ZM105.891 14.6875C105.451 12.3779 104.194 11.2231 102.121 11.2231C100.488 11.2231 99.2471 11.9268 98.3984 13.334C98.1406 13.7637 97.9419 14.2363 97.8022 14.752C98.0601 14.7627 98.377 14.7734 98.7529 14.7842H99.9453C100.343 14.7949 100.724 14.8003 101.089 14.8003H102.008C102.556 14.8003 103.093 14.7949 103.619 14.7842L104.94 14.7358C105.295 14.7251 105.612 14.709 105.891 14.6875ZM125.243 24.0977C123.879 24.8604 122.515 25.2417 121.15 25.2417C119.786 25.2417 118.594 25.0269 117.573 24.5972C116.553 24.1675 115.683 23.5767 114.963 22.8247C113.48 21.2778 112.739 19.269 112.739 16.7983C112.739 14.2417 113.599 12.1147 115.317 10.4175C117.047 8.69873 119.26 7.83936 121.956 7.83936C122.783 7.83936 123.594 7.94678 124.389 8.16162V0.991211H128.337V18.2163C128.337 19.645 128.401 20.5796 128.53 21.02C128.67 21.4604 128.82 21.7827 128.981 21.9868C129.153 22.1909 129.368 22.3843 129.626 22.5669L126.597 25.2417C126.038 24.9409 125.587 24.5596 125.243 24.0977ZM121.908 21.5356C122.81 21.5356 123.637 21.3638 124.389 21.02V12.0933C123.637 11.7817 122.821 11.626 121.94 11.626C121.059 11.626 120.302 11.7441 119.668 11.9805C119.045 12.2168 118.508 12.5444 118.057 12.9634C117.111 13.8442 116.639 14.9883 116.639 16.3955C116.639 17.9316 117.068 19.1562 117.928 20.0693C118.852 21.0469 120.178 21.5356 121.908 21.5356Z" fill="#3F526F"/>
<path d="M132.381 25C132.478 24.3447 132.526 23.7646 132.526 23.2598C132.526 22.7549 132.521 22.4111 132.51 22.2285C132.51 22.0352 132.505 21.8472 132.494 21.6646C132.483 21.4819 132.473 21.3101 132.462 21.1489L132.414 20.7461H137.086C137.054 21.1543 137.038 21.4873 137.038 21.7451L137.006 22.4219C137.006 22.626 137.006 23.0127 137.006 23.582C137.006 24.1406 137.033 24.6133 137.086 25H132.381Z" fill="#E4B95E"/>
<path d="M145.401 24.6616V29.3989C145.401 30.3228 145.422 30.9243 145.465 31.2036H141.453V8.16162H145.401V9.20898C146.701 8.2959 147.947 7.83936 149.139 7.83936C150.332 7.83936 151.39 8.00586 152.313 8.33887C153.237 8.67188 154.048 9.1875 154.747 9.88574C156.283 11.4004 157.051 13.5596 157.051 16.3633C157.051 18.2217 156.616 19.8813 155.746 21.3423C155.004 22.5776 153.979 23.5659 152.668 24.3071C151.508 24.9624 150.251 25.29 148.897 25.29C147.544 25.29 146.378 25.0806 145.401 24.6616ZM145.401 20.6011C146.217 21.2886 147.275 21.6323 148.575 21.6323C150.702 21.6323 152.077 20.6064 152.7 18.5547C152.915 17.8564 153.022 17.1099 153.022 16.3149C153.022 15.5093 152.947 14.8701 152.797 14.3975C152.646 13.9141 152.448 13.5005 152.201 13.1567C151.964 12.8022 151.696 12.5122 151.395 12.2866C151.094 12.0503 150.788 11.8623 150.477 11.7227C149.929 11.4756 149.365 11.3521 148.785 11.3521C148.205 11.3521 147.603 11.4863 146.98 11.7549C146.357 12.0234 145.831 12.3833 145.401 12.8345V20.6011ZM164.253 23.1953C164.253 24.1191 164.275 24.7207 164.318 25H160.306V8.16162H164.253V9.40234C165.167 8.36035 166.123 7.83936 167.122 7.83936C168.131 7.83936 168.926 7.96289 169.506 8.20996L169.216 12.5444L169.152 12.5928C168.776 11.9268 167.997 11.5938 166.815 11.5938C166.364 11.5938 165.902 11.7495 165.43 12.061C164.968 12.3618 164.576 12.7646 164.253 13.2695V23.1953ZM170.248 16.6694C170.248 15.4878 170.446 14.3599 170.844 13.2856C171.252 12.2007 171.832 11.2554 172.584 10.4497C174.228 8.70947 176.36 7.83936 178.981 7.83936C181.591 7.83936 183.665 8.66113 185.201 10.3047C186.672 11.873 187.408 13.9087 187.408 16.4116C187.408 18.9146 186.651 20.9878 185.136 22.6313C183.536 24.3716 181.414 25.2417 178.771 25.2417C176.043 25.2417 173.905 24.3877 172.358 22.6797C170.951 21.1221 170.248 19.1187 170.248 16.6694ZM174.163 16.5728C174.163 17.2495 174.276 17.9048 174.501 18.5386C174.727 19.1724 175.049 19.7148 175.468 20.166C176.36 21.1436 177.531 21.6323 178.981 21.6323C180.324 21.6323 181.382 21.1543 182.155 20.1982C182.907 19.2744 183.283 18.0713 183.283 16.5889C183.283 15.085 182.896 13.8711 182.123 12.9473C181.296 11.959 180.163 11.4648 178.723 11.4648C177.262 11.4648 176.118 11.9912 175.291 13.0439C174.539 14.0107 174.163 15.187 174.163 16.5728Z" fill="#8D8E90"/>
<path d="M54.3931 36.8188C54.8908 36.7544 55.401 36.7222 55.9238 36.7222C56.8978 36.7222 57.6372 36.9513 58.1421 37.4097C58.6506 37.8644 58.9048 38.5465 58.9048 39.4561C58.9048 40.2689 58.6273 40.9116 58.0723 41.3843C57.5531 41.8283 56.8853 42.0503 56.0688 42.0503C55.9757 42.0503 55.8737 42.0449 55.7627 42.0342V44H54.3931V36.8188ZM56.085 38.0166C55.9775 38.0166 55.8701 38.0202 55.7627 38.0273V40.8525C55.8773 40.8669 56.0169 40.874 56.1816 40.874C56.3464 40.874 56.5182 40.84 56.6973 40.772C56.8763 40.7004 57.0267 40.6019 57.1484 40.4766C57.4027 40.2152 57.5298 39.8714 57.5298 39.4453C57.5298 38.4928 57.0482 38.0166 56.085 38.0166ZM61.3592 43.3984C61.3592 43.7064 61.3663 43.9069 61.3806 44H60.0432V38.3872H61.3592V38.8008C61.6635 38.4535 61.9822 38.2798 62.3152 38.2798C62.6518 38.2798 62.9168 38.321 63.1101 38.4033L63.0135 39.8481L62.992 39.8643C62.8666 39.6423 62.607 39.5312 62.2132 39.5312C62.0628 39.5312 61.9088 39.5832 61.7512 39.687C61.5973 39.7873 61.4666 39.9215 61.3592 40.0898V43.3984ZM63.5772 41.2231C63.5772 40.8293 63.6435 40.4533 63.7759 40.0952C63.912 39.7336 64.1054 39.4185 64.356 39.1499C64.9039 38.5698 65.6146 38.2798 66.4883 38.2798C67.3585 38.2798 68.0495 38.5537 68.5616 39.1016C69.0521 39.6243 69.2974 40.3029 69.2974 41.1372C69.2974 41.9715 69.045 42.6626 68.5401 43.2104C68.0066 43.7905 67.2994 44.0806 66.4185 44.0806C65.509 44.0806 64.7964 43.7959 64.2808 43.2266C63.8117 42.7074 63.5772 42.0396 63.5772 41.2231ZM64.8824 41.1909C64.8824 41.4165 64.92 41.6349 64.9952 41.8462C65.0704 42.0575 65.1778 42.2383 65.3174 42.3887C65.6146 42.7145 66.0049 42.8774 66.4883 42.8774C66.9359 42.8774 67.2886 42.7181 67.5464 42.3994C67.7971 42.0915 67.9224 41.6904 67.9224 41.1963C67.9224 40.695 67.7935 40.2904 67.5357 39.9824C67.26 39.653 66.8822 39.4883 66.4024 39.4883C65.9154 39.4883 65.5341 39.6637 65.2584 40.0146C65.0077 40.3369 64.8824 40.729 64.8824 41.1909ZM75.0282 43.479C74.6271 43.88 73.9987 44.0806 73.1429 44.0806C72.3122 44.0806 71.6336 43.8281 71.1073 43.3232C70.5737 42.8112 70.307 42.1309 70.307 41.2822C70.307 40.4193 70.5702 39.7103 71.0965 39.1553C71.6551 38.5716 72.4017 38.2798 73.3363 38.2798C73.9987 38.2798 74.5537 38.4248 75.0013 38.7148L74.7865 40.0898L74.7489 40.0845C74.577 39.8768 74.3962 39.7407 74.2064 39.6763C73.8984 39.5688 73.5905 39.5151 73.2826 39.5151C72.9746 39.5151 72.7329 39.5545 72.5575 39.6333C72.382 39.7121 72.2316 39.8213 72.1063 39.9609C71.8556 40.2474 71.7303 40.627 71.7303 41.0996C71.7303 41.9375 72.0204 42.4854 72.6004 42.7432C72.801 42.8291 73.0122 42.8721 73.2342 42.8721C73.4598 42.8721 73.655 42.8524 73.8197 42.813C73.988 42.7736 74.1401 42.7199 74.2762 42.6519C74.5662 42.5086 74.7632 42.3421 74.867 42.1523L74.9046 42.1685L75.0282 43.479ZM79.733 43.5112C79.2747 43.8908 78.7752 44.0806 78.2345 44.0806C77.6544 44.0806 77.1997 43.8854 76.8702 43.4951C76.5551 43.1156 76.3976 42.5946 76.3976 41.9321V39.7998C76.3976 39.0837 76.3815 38.6737 76.3492 38.5698C76.3206 38.4624 76.2991 38.3944 76.2848 38.3657C76.4495 38.38 76.6214 38.3872 76.8004 38.3872H77.2462C77.3644 38.3872 77.5201 38.3818 77.7135 38.3711V41.481C77.7135 42.2186 77.914 42.6465 78.3151 42.7646C78.4368 42.8005 78.5693 42.8184 78.7125 42.8184C79.135 42.8184 79.4752 42.6644 79.733 42.3564V38.3872H81.0651V43.3125C81.0651 43.6276 81.0794 43.8568 81.108 44H79.733V43.5112ZM84.2714 43.3984C84.2714 43.7064 84.2785 43.9069 84.2929 44H82.9555V38.3872H84.2714V38.8008C84.5757 38.4535 84.8944 38.2798 85.2274 38.2798C85.564 38.2798 85.829 38.321 86.0224 38.4033L85.9257 39.8481L85.9042 39.8643C85.7789 39.6423 85.5193 39.5312 85.1254 39.5312C84.975 39.5312 84.821 39.5832 84.6635 39.687C84.5095 39.7873 84.3788 39.9215 84.2714 40.0898V43.3984ZM86.6291 41.2393C86.6291 40.8203 86.7007 40.4318 86.8439 40.0737C86.9872 39.7157 87.1895 39.4023 87.4509 39.1338C88.0095 38.5645 88.7399 38.2798 89.6423 38.2798C90.405 38.2798 91.0173 38.5322 91.4792 39.0371C91.9339 39.5241 92.1613 40.1364 92.1613 40.874C92.1613 41.1569 92.1398 41.3503 92.0969 41.4541C91.7388 41.5544 91.0101 41.6045 89.9108 41.6045H88.0202C88.1133 41.9876 88.3299 42.2866 88.6701 42.5015C89.0103 42.7127 89.4525 42.8184 89.9968 42.8184C90.5661 42.8184 91.0549 42.7163 91.4631 42.5122C91.5705 42.4585 91.6511 42.4084 91.7048 42.3618C91.6976 42.5122 91.6887 42.6662 91.6779 42.8237L91.6188 43.6616C91.3467 43.8478 90.9063 43.9767 90.2975 44.0483C90.1185 44.0698 89.9466 44.0806 89.7819 44.0806C88.8724 44.0806 88.1205 43.8156 87.5261 43.2856C86.9281 42.7521 86.6291 42.07 86.6291 41.2393ZM90.7326 40.5625C90.5858 39.7926 90.1668 39.4077 89.4758 39.4077C88.9315 39.4077 88.5179 39.6423 88.235 40.1113C88.1491 40.2546 88.0829 40.4121 88.0363 40.584C88.1222 40.5876 88.2279 40.5911 88.3532 40.5947H88.7507C88.8832 40.5983 89.0103 40.6001 89.132 40.6001H89.4382C89.6208 40.6001 89.7998 40.5983 89.9753 40.5947L90.4157 40.5786C90.5339 40.575 90.6395 40.5697 90.7326 40.5625ZM95.0024 42.4478C95.0024 43.2534 95.0167 43.7708 95.0454 44H93.6435V38.3872H95.0024V38.8706C95.493 38.4767 95.9961 38.2798 96.5117 38.2798C97.1204 38.2798 97.5626 38.543 97.8383 39.0693C98.1141 38.7865 98.3432 38.6003 98.5258 38.5107C98.8302 38.3568 99.1346 38.2798 99.4389 38.2798C99.7469 38.2798 100.008 38.3317 100.223 38.4355C100.438 38.5394 100.615 38.6862 100.755 38.876C101.038 39.2591 101.179 39.7855 101.179 40.4551V42.5928C101.179 43.1979 101.188 43.5614 101.206 43.6831C101.224 43.8049 101.247 43.8836 101.276 43.9194C101.308 43.9552 101.335 43.9875 101.356 44.0161L101.346 44.0376C101.059 44.0125 100.848 44 100.712 44H100.309C100.177 44 100.014 44.0054 99.8203 44.0161V41.1104C99.8203 40.2725 99.6914 39.7747 99.4336 39.6172C99.3476 39.5671 99.2456 39.542 99.1274 39.542C99.0128 39.542 98.9108 39.5563 98.8213 39.585C98.7317 39.61 98.6476 39.653 98.5688 39.7139C98.4363 39.8105 98.2859 40.0003 98.1176 40.2832C98.1212 40.3118 98.123 40.3405 98.123 40.3691C98.123 40.3978 98.123 40.8704 98.123 41.7871C98.123 42.7038 98.1445 43.4414 98.1875 44C97.8831 44 97.6235 44 97.4087 44C97.1974 44 96.9951 44.0054 96.8017 44.0161V41.105C96.8017 40.5213 96.7659 40.1418 96.6943 39.9663C96.6263 39.7909 96.5529 39.6763 96.4741 39.6226C96.3953 39.5688 96.2986 39.542 96.184 39.542C95.7114 39.542 95.3175 39.7694 95.0024 40.2241V42.4478ZM102.688 41.2393C102.688 40.8203 102.76 40.4318 102.903 40.0737C103.046 39.7157 103.249 39.4023 103.51 39.1338C104.069 38.5645 104.799 38.2798 105.701 38.2798C106.464 38.2798 107.076 38.5322 107.538 39.0371C107.993 39.5241 108.22 40.1364 108.22 40.874C108.22 41.1569 108.199 41.3503 108.156 41.4541C107.798 41.5544 107.069 41.6045 105.97 41.6045H104.079C104.172 41.9876 104.389 42.2866 104.729 42.5015C105.069 42.7127 105.512 42.8184 106.056 42.8184C106.625 42.8184 107.114 42.7163 107.522 42.5122C107.63 42.4585 107.71 42.4084 107.764 42.3618C107.757 42.5122 107.748 42.6662 107.737 42.8237L107.678 43.6616C107.406 43.8478 106.965 43.9767 106.357 44.0483C106.178 44.0698 106.006 44.0806 105.841 44.0806C104.932 44.0806 104.18 43.8156 103.585 43.2856C102.987 42.7521 102.688 42.07 102.688 41.2393ZM106.792 40.5625C106.645 39.7926 106.226 39.4077 105.535 39.4077C104.991 39.4077 104.577 39.6423 104.294 40.1113C104.208 40.2546 104.142 40.4121 104.095 40.584C104.181 40.5876 104.287 40.5911 104.412 40.5947H104.81C104.942 40.5983 105.069 40.6001 105.191 40.6001H105.497C105.68 40.6001 105.859 40.5983 106.034 40.5947L106.475 40.5786C106.593 40.575 106.699 40.5697 106.792 40.5625ZM111.024 43.3125C111.024 43.6276 111.038 43.8568 111.067 44H109.719V38.3872H111.024V38.8652C111.497 38.4749 112.001 38.2798 112.539 38.2798C113.126 38.2798 113.595 38.4803 113.946 38.8813C114.297 39.2788 114.472 39.8034 114.472 40.4551V42.5928C114.472 43.1979 114.481 43.5614 114.499 43.6831C114.517 43.8049 114.54 43.8836 114.569 43.9194C114.601 43.9552 114.628 43.9875 114.649 44.0161L114.639 44.0376C114.349 44.0125 114.137 44 114.005 44H113.629C113.514 44 113.36 44.0054 113.167 44.0161V41.0889C113.167 40.0397 112.848 39.5151 112.211 39.5151C111.738 39.5151 111.343 39.7586 111.024 40.2456V43.3125ZM118.758 42.8184C119.22 42.8184 119.537 42.6984 119.709 42.4585H119.752L119.768 43.7046C119.592 43.88 119.267 43.9964 118.79 44.0537C118.661 44.0716 118.5 44.0806 118.307 44.0806C118.117 44.0806 117.909 44.0448 117.684 43.9731C117.462 43.9015 117.272 43.7852 117.115 43.624C116.789 43.291 116.626 42.77 116.626 42.061V39.6226H115.815C115.811 39.5187 115.809 39.4131 115.809 39.3057V38.4785C115.809 38.4176 115.811 38.3872 115.815 38.3872H116.626V36.8564H117.942V38.3872H119.419V39.6226H117.942V41.814C117.942 42.3761 118.097 42.6966 118.409 42.7754C118.509 42.804 118.626 42.8184 118.758 42.8184ZM125.611 44.043C125.303 44.0143 124.943 44 124.532 44H124.107L126.444 37.4526C126.548 37.159 126.599 36.9889 126.599 36.9424C126.599 36.8923 126.598 36.8618 126.594 36.8511L126.599 36.8403C126.832 36.8511 127.079 36.8564 127.341 36.8564C127.556 36.8564 127.813 36.8529 128.114 36.8457L128.119 36.8564C128.112 36.8708 128.109 36.8905 128.109 36.9155C128.109 36.9836 128.162 37.1644 128.27 37.458L130.655 44.0161C130.583 44.0125 130.499 44.0107 130.402 44.0107C130.402 44.0107 130.309 44.0072 130.123 44C130.033 44 129.953 44 129.881 44H129.049L128.544 42.4531H126.116L125.611 44.043ZM128.125 41.1641L127.314 38.6665L126.524 41.1641H128.125ZM131.911 36.835C132.269 36.8493 132.486 36.8564 132.561 36.8564H132.948C133.138 36.8564 133.29 36.8421 133.404 36.8135L133.399 44H131.911V36.835ZM143.083 43.667C142.574 43.9427 142.114 44.0806 141.702 44.0806C141.291 44.0806 140.938 44.043 140.644 43.9678C140.351 43.889 140.102 43.7744 139.898 43.624C139.482 43.3197 139.275 42.8792 139.275 42.3027C139.275 41.7871 139.529 41.3574 140.037 41.0137C140.589 40.6413 141.337 40.4551 142.282 40.4551L142.497 40.4604C142.54 40.464 142.589 40.4676 142.642 40.4712C142.696 40.4712 142.744 40.4748 142.787 40.4819C142.759 39.909 142.512 39.5742 142.046 39.4775C141.892 39.4453 141.727 39.4292 141.552 39.4292C141.38 39.4292 141.21 39.4453 141.042 39.4775C140.877 39.5062 140.716 39.5456 140.558 39.5957C140.211 39.7067 139.962 39.8338 139.812 39.9771L139.796 39.9663L139.634 38.7793C140.268 38.4463 140.961 38.2798 141.713 38.2798C142.88 38.2798 143.627 38.7005 143.953 39.542C144.057 39.8105 144.109 40.1131 144.109 40.4497V42.394C144.109 42.8094 144.255 43.0923 144.549 43.2427L143.577 44.1343C143.373 44.0269 143.208 43.8711 143.083 43.667ZM142.793 41.4487C142.696 41.4308 142.596 41.4219 142.492 41.4219H142.277C141.486 41.4219 140.983 41.5973 140.768 41.9482C140.703 42.0521 140.671 42.1613 140.671 42.2759C140.671 42.3905 140.691 42.4925 140.73 42.582C140.773 42.668 140.843 42.7396 140.94 42.7969C141.126 42.9043 141.402 42.958 141.767 42.958C142.136 42.958 142.479 42.8703 142.798 42.6948C142.794 42.6554 142.793 42.6143 142.793 42.5713V41.4487ZM147.9 44.0806C146.891 44.0806 146.13 43.8962 145.618 43.5273C145.625 43.4199 145.636 43.2982 145.65 43.1621L145.698 42.7754C145.727 42.5212 145.745 42.3636 145.752 42.3027C145.759 42.2383 145.764 42.2043 145.768 42.2007C145.772 42.1935 145.8 42.2222 145.854 42.2866C145.908 42.3475 146.01 42.4227 146.16 42.5122C146.311 42.6017 146.484 42.6805 146.681 42.7485C147.107 42.8953 147.551 42.9688 148.013 42.9688C148.633 42.9688 148.942 42.7629 148.942 42.3511C148.942 42.2186 148.883 42.1201 148.765 42.0557C148.554 41.9482 148.242 41.8677 147.831 41.814C147.422 41.7567 147.088 41.6743 146.826 41.5669C146.565 41.4595 146.352 41.3306 146.187 41.1802C145.883 40.8973 145.73 40.5267 145.73 40.0684C145.73 39.5098 145.945 39.0711 146.375 38.7524C146.801 38.4373 147.39 38.2798 148.142 38.2798C148.887 38.2798 149.522 38.491 150.049 38.9136C150.024 39.0067 149.997 39.0962 149.968 39.1821C149.886 39.4185 149.825 39.5885 149.786 39.6924L149.662 40.0093C149.655 40.0379 149.65 40.0522 149.646 40.0522C149.639 40.0522 149.61 40.0146 149.56 39.9395C149.334 39.6781 148.984 39.5062 148.507 39.4238C148.36 39.3952 148.21 39.3809 148.056 39.3809C147.404 39.3809 147.079 39.5778 147.079 39.9717C147.079 40.1077 147.147 40.2116 147.283 40.2832C147.537 40.4193 147.884 40.5195 148.325 40.584C148.769 40.6484 149.105 40.7362 149.334 40.8472C149.564 40.9546 149.748 41.0853 149.888 41.2393C150.145 41.5186 150.274 41.8892 150.274 42.3511C150.274 42.856 150.072 43.266 149.667 43.5811C149.245 43.9141 148.656 44.0806 147.9 44.0806ZM153.631 44.0806C152.621 44.0806 151.86 43.8962 151.348 43.5273C151.356 43.4199 151.366 43.2982 151.381 43.1621L151.429 42.7754C151.458 42.5212 151.476 42.3636 151.483 42.3027C151.49 42.2383 151.495 42.2043 151.499 42.2007C151.502 42.1935 151.531 42.2222 151.585 42.2866C151.638 42.3475 151.74 42.4227 151.891 42.5122C152.041 42.6017 152.215 42.6805 152.412 42.7485C152.838 42.8953 153.282 42.9688 153.744 42.9688C154.363 42.9688 154.673 42.7629 154.673 42.3511C154.673 42.2186 154.614 42.1201 154.496 42.0557C154.285 41.9482 153.973 41.8677 153.561 41.814C153.153 41.7567 152.818 41.6743 152.557 41.5669C152.295 41.4595 152.082 41.3306 151.918 41.1802C151.613 40.8973 151.461 40.5267 151.461 40.0684C151.461 39.5098 151.676 39.0711 152.106 38.7524C152.532 38.4373 153.121 38.2798 153.873 38.2798C154.618 38.2798 155.253 38.491 155.78 38.9136C155.754 39.0067 155.728 39.0962 155.699 39.1821C155.617 39.4185 155.556 39.5885 155.516 39.6924L155.393 40.0093C155.386 40.0379 155.38 40.0522 155.377 40.0522C155.37 40.0522 155.341 40.0146 155.291 39.9395C155.065 39.6781 154.714 39.5062 154.238 39.4238C154.091 39.3952 153.941 39.3809 153.787 39.3809C153.135 39.3809 152.809 39.5778 152.809 39.9717C152.809 40.1077 152.877 40.2116 153.013 40.2832C153.268 40.4193 153.615 40.5195 154.055 40.584C154.499 40.6484 154.836 40.7362 155.065 40.8472C155.294 40.9546 155.479 41.0853 155.618 41.2393C155.876 41.5186 156.005 41.8892 156.005 42.3511C156.005 42.856 155.803 43.266 155.398 43.5811C154.976 43.9141 154.387 44.0806 153.631 44.0806ZM157.299 36.7866C157.586 36.339 157.885 35.9451 158.196 35.605L159.351 36.5127C159.197 36.7025 159.054 36.8887 158.921 37.0713C158.921 37.0713 158.784 37.2664 158.508 37.6567L157.299 36.7866ZM158.712 43.3984C158.712 43.7064 158.719 43.9069 158.733 44H157.369V38.3872H158.712V43.3984ZM162.343 44.0806C161.333 44.0806 160.572 43.8962 160.06 43.5273C160.067 43.4199 160.078 43.2982 160.092 43.1621L160.14 42.7754C160.169 42.5212 160.187 42.3636 160.194 42.3027C160.201 42.2383 160.207 42.2043 160.21 42.2007C160.214 42.1935 160.243 42.2222 160.296 42.2866C160.35 42.3475 160.452 42.4227 160.602 42.5122C160.753 42.6017 160.926 42.6805 161.123 42.7485C161.549 42.8953 161.993 42.9688 162.455 42.9688C163.075 42.9688 163.385 42.7629 163.385 42.3511C163.385 42.2186 163.326 42.1201 163.207 42.0557C162.996 41.9482 162.685 41.8677 162.273 41.814C161.865 41.7567 161.53 41.6743 161.268 41.5669C161.007 41.4595 160.794 41.3306 160.629 41.1802C160.325 40.8973 160.173 40.5267 160.173 40.0684C160.173 39.5098 160.388 39.0711 160.817 38.7524C161.243 38.4373 161.832 38.2798 162.584 38.2798C163.329 38.2798 163.965 38.491 164.491 38.9136C164.466 39.0067 164.439 39.0962 164.41 39.1821C164.328 39.4185 164.267 39.5885 164.228 39.6924L164.104 40.0093C164.097 40.0379 164.092 40.0522 164.088 40.0522C164.081 40.0522 164.052 40.0146 164.002 39.9395C163.777 39.6781 163.426 39.5062 162.95 39.4238C162.803 39.3952 162.652 39.3809 162.498 39.3809C161.847 39.3809 161.521 39.5778 161.521 39.9717C161.521 40.1077 161.589 40.2116 161.725 40.2832C161.979 40.4193 162.326 40.5195 162.767 40.584C163.211 40.6484 163.548 40.7362 163.777 40.8472C164.006 40.9546 164.19 41.0853 164.33 41.2393C164.588 41.5186 164.717 41.8892 164.717 42.3511C164.717 42.856 164.514 43.266 164.11 43.5811C163.687 43.9141 163.098 44.0806 162.343 44.0806ZM168.675 42.8184C169.137 42.8184 169.454 42.6984 169.626 42.4585H169.669L169.685 43.7046C169.509 43.88 169.183 43.9964 168.707 44.0537C168.578 44.0716 168.417 44.0806 168.224 44.0806C168.034 44.0806 167.826 44.0448 167.601 43.9731C167.379 43.9015 167.189 43.7852 167.031 43.624C166.706 43.291 166.543 42.77 166.543 42.061V39.6226H165.732C165.728 39.5187 165.726 39.4131 165.726 39.3057V38.4785C165.726 38.4176 165.728 38.3872 165.732 38.3872H166.543V36.8564H167.858V38.3872H169.336V39.6226H167.858V41.814C167.858 42.3761 168.014 42.6966 168.326 42.7754C168.426 42.804 168.542 42.8184 168.675 42.8184ZM174.706 43.667C174.198 43.9427 173.738 44.0806 173.326 44.0806C172.914 44.0806 172.562 44.043 172.268 43.9678C171.974 43.889 171.725 43.7744 171.521 43.624C171.106 43.3197 170.898 42.8792 170.898 42.3027C170.898 41.7871 171.153 41.3574 171.661 41.0137C172.212 40.6413 172.961 40.4551 173.906 40.4551L174.121 40.4604C174.164 40.464 174.212 40.4676 174.266 40.4712C174.32 40.4712 174.368 40.4748 174.411 40.4819C174.382 39.909 174.135 39.5742 173.67 39.4775C173.516 39.4453 173.351 39.4292 173.176 39.4292C173.004 39.4292 172.834 39.4453 172.665 39.4775C172.501 39.5062 172.34 39.5456 172.182 39.5957C171.835 39.7067 171.586 39.8338 171.435 39.9771L171.419 39.9663L171.258 38.7793C171.892 38.4463 172.585 38.2798 173.337 38.2798C174.504 38.2798 175.251 38.7005 175.577 39.542C175.68 39.8105 175.732 40.1131 175.732 40.4497V42.394C175.732 42.8094 175.879 43.0923 176.173 43.2427L175.201 44.1343C174.996 44.0269 174.832 43.8711 174.706 43.667ZM174.416 41.4487C174.32 41.4308 174.219 41.4219 174.116 41.4219H173.901C173.109 41.4219 172.606 41.5973 172.391 41.9482C172.327 42.0521 172.295 42.1613 172.295 42.2759C172.295 42.3905 172.315 42.4925 172.354 42.582C172.397 42.668 172.467 42.7396 172.563 42.7969C172.75 42.9043 173.025 42.958 173.391 42.958C173.759 42.958 174.103 42.8703 174.422 42.6948C174.418 42.6554 174.416 42.6143 174.416 42.5713V41.4487ZM179.046 43.3125C179.046 43.6276 179.06 43.8568 179.089 44H177.741V38.3872H179.046V38.8652C179.519 38.4749 180.024 38.2798 180.561 38.2798C181.148 38.2798 181.617 38.4803 181.968 38.8813C182.319 39.2788 182.494 39.8034 182.494 40.4551V42.5928C182.494 43.1979 182.503 43.5614 182.521 43.6831C182.539 43.8049 182.562 43.8836 182.591 43.9194C182.623 43.9552 182.65 43.9875 182.672 44.0161L182.661 44.0376C182.371 44.0125 182.159 44 182.027 44H181.651C181.536 44 181.382 44.0054 181.189 44.0161V41.0889C181.189 40.0397 180.87 39.5151 180.233 39.5151C179.76 39.5151 179.365 39.7586 179.046 40.2456V43.3125ZM186.78 42.8184C187.242 42.8184 187.559 42.6984 187.731 42.4585H187.774L187.79 43.7046C187.615 43.88 187.289 43.9964 186.812 44.0537C186.684 44.0716 186.522 44.0806 186.329 44.0806C186.139 44.0806 185.932 44.0448 185.706 43.9731C185.484 43.9015 185.294 43.7852 185.137 43.624C184.811 43.291 184.648 42.77 184.648 42.061V39.6226H183.837C183.833 39.5187 183.831 39.4131 183.831 39.3057V38.4785C183.831 38.4176 183.833 38.3872 183.837 38.3872H184.648V36.8564H185.964V38.3872H187.441V39.6226H185.964V41.814C185.964 42.3761 186.12 42.6966 186.431 42.7754C186.531 42.804 186.648 42.8184 186.78 42.8184Z" fill="#8D8E90"/>
<defs>
<clipPath id="clip0_53_43">
<rect width="45.5714" height="44" fill="white" transform="translate(0 1)"/>
</clipPath>
</defs>
</svg>
