<svg width="189" height="44" viewBox="0 0 189 44" fill="none" xmlns="http://www.w3.org/2000/svg">
<g clip-path="url(#clip0_650_566)">
<path d="M23.4147 0H0V8.93881H23.4775C30.2432 8.93881 36.2924 14.4809 36.6611 21.2744C37.0691 28.804 31.0906 35.0638 23.6867 35.0638H0V42.8038C0 43.4663 0.533519 44.0026 1.19257 44.0026H23.6867C36.023 44.0026 46.0082 33.6888 45.5584 21.1876C45.1347 9.52772 35.0214 0 23.4147 0Z" fill="white"/>
<path d="M22.991 17.5148H0V26.4851H22.991V17.5148Z" fill="#E4B95E"/>
</g>
<path d="M59.9684 7.77393C61.1715 7.15088 62.4015 6.83936 63.6583 6.83936C64.9152 6.83936 65.9948 7.03809 66.8971 7.43555C67.8102 7.82227 68.6105 8.38086 69.298 9.11133C70.7911 10.7334 71.5377 12.7852 71.5377 15.2666C71.5377 17.9844 70.7267 20.1758 69.1046 21.8408C67.547 23.4414 65.608 24.2417 63.2877 24.2417C61.2467 24.2417 59.5656 23.71 58.2443 22.6465C56.7618 21.4434 56.0206 19.7837 56.0206 17.6675V0.0234375H59.9684V7.77393ZM59.9684 17.6191C59.9684 19.5098 61.1447 20.4551 63.4972 20.4551C64.6466 20.4551 65.6134 19.9502 66.3976 18.9404C67.1925 17.9092 67.59 16.6255 67.59 15.0894C67.59 13.5425 67.171 12.377 66.3331 11.5928C65.5812 10.8945 64.5714 10.5454 63.3038 10.5454C62.5411 10.5454 61.6979 10.8032 60.774 11.3188C60.484 11.48 60.2155 11.6572 59.9684 11.8506V17.6191ZM74.277 15.7178C74.277 14.4609 74.4918 13.2954 74.9215 12.2212C75.3512 11.147 75.9581 10.207 76.7423 9.40137C78.4181 7.69336 80.6095 6.83936 83.3165 6.83936C85.6046 6.83936 87.4415 7.59668 88.8273 9.11133C90.1915 10.5723 90.8737 12.4092 90.8737 14.6221C90.8737 15.4707 90.8092 16.0508 90.6803 16.3623C89.6061 16.6631 87.42 16.8135 84.1222 16.8135H78.4503C78.7296 17.9629 79.3795 18.8599 80.4 19.5044C81.4205 20.1382 82.7472 20.4551 84.38 20.4551C86.088 20.4551 87.5543 20.1489 88.7789 19.5366C89.1012 19.3755 89.3429 19.2251 89.504 19.0854C89.4825 19.5366 89.4557 19.9985 89.4235 20.4712L89.2462 22.9849C88.4298 23.5435 87.1085 23.9302 85.2823 24.145C84.7452 24.2095 84.2296 24.2417 83.7355 24.2417C81.007 24.2417 78.7511 23.4468 76.9679 21.8569C75.174 20.2563 74.277 18.21 74.277 15.7178ZM86.5875 13.6875C86.1471 11.3779 84.8903 10.2231 82.817 10.2231C81.1842 10.2231 79.9435 10.9268 79.0948 12.334C78.837 12.7637 78.6383 13.2363 78.4987 13.752C78.7565 13.7627 79.0734 13.7734 79.4493 13.7842H80.6417C81.0392 13.7949 81.4205 13.8003 81.7858 13.8003H82.7042C83.2521 13.8003 83.7892 13.7949 84.3156 13.7842L85.6368 13.7358C85.9913 13.7251 86.3082 13.709 86.5875 13.6875ZM93.5807 15.7178C93.5807 14.4609 93.7955 13.2954 94.2252 12.2212C94.6549 11.147 95.2618 10.207 96.046 9.40137C97.7218 7.69336 99.9132 6.83936 102.62 6.83936C104.908 6.83936 106.745 7.59668 108.131 9.11133C109.495 10.5723 110.177 12.4092 110.177 14.6221C110.177 15.4707 110.113 16.0508 109.984 16.3623C108.91 16.6631 106.724 16.8135 103.426 16.8135H97.754C98.0333 17.9629 98.6832 18.8599 99.7037 19.5044C100.724 20.1382 102.051 20.4551 103.684 20.4551C105.392 20.4551 106.858 20.1489 108.083 19.5366C108.405 19.3755 108.647 19.2251 108.808 19.0854C108.786 19.5366 108.759 19.9985 108.727 20.4712L108.55 22.9849C107.734 23.5435 106.412 23.9302 104.586 24.145C104.049 24.2095 103.533 24.2417 103.039 24.2417C100.311 24.2417 98.0548 23.4468 96.2716 21.8569C94.4777 20.2563 93.5807 18.21 93.5807 15.7178ZM105.891 13.6875C105.451 11.3779 104.194 10.2231 102.121 10.2231C100.488 10.2231 99.2472 10.9268 98.3986 12.334C98.1407 12.7637 97.942 13.2363 97.8024 13.752C98.0602 13.7627 98.3771 13.7734 98.7531 13.7842H99.9454C100.343 13.7949 100.724 13.8003 101.089 13.8003H102.008C102.556 13.8003 103.093 13.7949 103.619 13.7842L104.941 13.7358C105.295 13.7251 105.612 13.709 105.891 13.6875ZM125.243 23.0977C123.879 23.8604 122.515 24.2417 121.151 24.2417C119.786 24.2417 118.594 24.0269 117.573 23.5972C116.553 23.1675 115.683 22.5767 114.963 21.8247C113.481 20.2778 112.739 18.269 112.739 15.7983C112.739 13.2417 113.599 11.1147 115.318 9.41748C117.047 7.69873 119.26 6.83936 121.956 6.83936C122.783 6.83936 123.594 6.94678 124.389 7.16162V-0.00878906H128.337V17.2163C128.337 18.645 128.401 19.5796 128.53 20.02C128.67 20.4604 128.82 20.7827 128.982 20.9868C129.153 21.1909 129.368 21.3843 129.626 21.5669L126.597 24.2417C126.038 23.9409 125.587 23.5596 125.243 23.0977ZM121.908 20.5356C122.81 20.5356 123.637 20.3638 124.389 20.02V11.0933C123.637 10.7817 122.821 10.626 121.94 10.626C121.059 10.626 120.302 10.7441 119.668 10.9805C119.045 11.2168 118.508 11.5444 118.057 11.9634C117.111 12.8442 116.639 13.9883 116.639 15.3955C116.639 16.9316 117.068 18.1562 117.928 19.0693C118.852 20.0469 120.178 20.5356 121.908 20.5356ZM145.401 23.6616V28.3989C145.401 29.3228 145.422 29.9243 145.465 30.2036H141.453V7.16162H145.401V8.20898C146.701 7.2959 147.947 6.83936 149.139 6.83936C150.332 6.83936 151.39 7.00586 152.314 7.33887C153.237 7.67187 154.048 8.1875 154.747 8.88574C156.283 10.4004 157.051 12.5596 157.051 15.3633C157.051 17.2217 156.616 18.8813 155.746 20.3423C155.005 21.5776 153.979 22.5659 152.668 23.3071C151.508 23.9624 150.251 24.29 148.898 24.29C147.544 24.29 146.379 24.0806 145.401 23.6616ZM145.401 19.6011C146.217 20.2886 147.276 20.6323 148.575 20.6323C150.702 20.6323 152.077 19.6064 152.7 17.5547C152.915 16.8564 153.023 16.1099 153.023 15.3149C153.023 14.5093 152.947 13.8701 152.797 13.3975C152.647 12.9141 152.448 12.5005 152.201 12.1567C151.964 11.8022 151.696 11.5122 151.395 11.2866C151.094 11.0503 150.788 10.8623 150.477 10.7227C149.929 10.4756 149.365 10.3521 148.785 10.3521C148.205 10.3521 147.603 10.4863 146.98 10.7549C146.357 11.0234 145.831 11.3833 145.401 11.8345V19.6011ZM164.254 22.1953C164.254 23.1191 164.275 23.7207 164.318 24H160.306V7.16162H164.254V8.40234C165.167 7.36035 166.123 6.83936 167.122 6.83936C168.131 6.83936 168.926 6.96289 169.506 7.20996L169.216 11.5444L169.152 11.5928C168.776 10.9268 167.997 10.5938 166.816 10.5938C166.364 10.5938 165.902 10.7495 165.43 11.061C164.968 11.3618 164.576 11.7646 164.254 12.2695V22.1953ZM170.248 15.6694C170.248 14.4878 170.446 13.3599 170.844 12.2856C171.252 11.2007 171.832 10.2554 172.584 9.44971C174.228 7.70947 176.36 6.83936 178.981 6.83936C181.591 6.83936 183.665 7.66113 185.201 9.30469C186.672 10.873 187.408 12.9087 187.408 15.4116C187.408 17.9146 186.651 19.9878 185.136 21.6313C183.536 23.3716 181.414 24.2417 178.772 24.2417C176.043 24.2417 173.905 23.3877 172.359 21.6797C170.951 20.1221 170.248 18.1187 170.248 15.6694ZM174.163 15.5728C174.163 16.2495 174.276 16.9048 174.502 17.5386C174.727 18.1724 175.049 18.7148 175.468 19.166C176.36 20.1436 177.531 20.6323 178.981 20.6323C180.324 20.6323 181.382 20.1543 182.155 19.1982C182.907 18.2744 183.283 17.0713 183.283 15.5889C183.283 14.085 182.897 12.8711 182.123 11.9473C181.296 10.959 180.163 10.4648 178.723 10.4648C177.262 10.4648 176.118 10.9912 175.291 12.0439C174.539 13.0107 174.163 14.187 174.163 15.5728Z" fill="white"/>
<path d="M132.381 24C132.478 23.3447 132.526 22.7646 132.526 22.2598C132.526 21.7549 132.521 21.4111 132.51 21.2285C132.51 21.0352 132.505 20.8472 132.494 20.6646C132.484 20.4819 132.473 20.3101 132.462 20.1489L132.414 19.7461H137.087C137.054 20.1543 137.038 20.4873 137.038 20.7451L137.006 21.4219C137.006 21.626 137.006 22.0127 137.006 22.582C137.006 23.1406 137.033 23.6133 137.087 24H132.381Z" fill="#E4B95E"/>
<path d="M54.3932 35.8188C54.8909 35.7544 55.4012 35.7222 55.924 35.7222C56.8979 35.7222 57.6373 35.9513 58.1422 36.4097C58.6507 36.8644 58.9049 37.5465 58.9049 38.4561C58.9049 39.2689 58.6274 39.9116 58.0724 40.3843C57.5532 40.8283 56.8854 41.0503 56.069 41.0503C55.9759 41.0503 55.8738 41.0449 55.7628 41.0342V43H54.3932V35.8188ZM56.0851 37.0166C55.9777 37.0166 55.8702 37.0202 55.7628 37.0273V39.8525C55.8774 39.8669 56.017 39.874 56.1818 39.874C56.3465 39.874 56.5184 39.84 56.6974 39.772C56.8764 39.7004 57.0268 39.6019 57.1486 39.4766C57.4028 39.2152 57.5299 38.8714 57.5299 38.4453C57.5299 37.4928 57.0483 37.0166 56.0851 37.0166ZM61.3593 42.3984C61.3593 42.7064 61.3664 42.9069 61.3808 43H60.0434V37.3872H61.3593V37.8008C61.6636 37.4535 61.9823 37.2798 62.3153 37.2798C62.6519 37.2798 62.9169 37.321 63.1103 37.4033L63.0136 38.8481L62.9921 38.8643C62.8668 38.6423 62.6072 38.5312 62.2133 38.5312C62.0629 38.5312 61.9089 38.5832 61.7514 38.687C61.5974 38.7873 61.4667 38.9215 61.3593 39.0898V42.3984ZM63.5773 40.2231C63.5773 39.8293 63.6436 39.4533 63.7761 39.0952C63.9121 38.7336 64.1055 38.4185 64.3561 38.1499C64.904 37.5698 65.6148 37.2798 66.4885 37.2798C67.3586 37.2798 68.0497 37.5537 68.5617 38.1016C69.0523 38.6243 69.2975 39.3029 69.2975 40.1372C69.2975 40.9715 69.0451 41.6626 68.5402 42.2104C68.0067 42.7905 67.2995 43.0806 66.4186 43.0806C65.5091 43.0806 64.7966 42.7959 64.2809 42.2266C63.8119 41.7074 63.5773 41.0396 63.5773 40.2231ZM64.8825 40.1909C64.8825 40.4165 64.9201 40.6349 64.9953 40.8462C65.0705 41.0575 65.1779 41.2383 65.3176 41.3887C65.6148 41.7145 66.0051 41.8774 66.4885 41.8774C66.9361 41.8774 67.2888 41.7181 67.5466 41.3994C67.7972 41.0915 67.9225 40.6904 67.9225 40.1963C67.9225 39.695 67.7936 39.2904 67.5358 38.9824C67.2601 38.653 66.8823 38.4883 66.4025 38.4883C65.9155 38.4883 65.5342 38.6637 65.2585 39.0146C65.0078 39.3369 64.8825 39.729 64.8825 40.1909ZM75.0283 42.479C74.6272 42.88 73.9988 43.0806 73.143 43.0806C72.3123 43.0806 71.6338 42.8281 71.1074 42.3232C70.5739 41.8112 70.3071 41.1309 70.3071 40.2822C70.3071 39.4193 70.5703 38.7103 71.0966 38.1553C71.6552 37.5716 72.4018 37.2798 73.3364 37.2798C73.9988 37.2798 74.5538 37.4248 75.0014 37.7148L74.7866 39.0898L74.749 39.0845C74.5771 38.8768 74.3963 38.7407 74.2065 38.6763C73.8986 38.5688 73.5906 38.5151 73.2827 38.5151C72.9747 38.5151 72.733 38.5545 72.5576 38.6333C72.3821 38.7121 72.2317 38.8213 72.1064 38.9609C71.8558 39.2474 71.7304 39.627 71.7304 40.0996C71.7304 40.9375 72.0205 41.4854 72.6006 41.7432C72.8011 41.8291 73.0123 41.8721 73.2343 41.8721C73.4599 41.8721 73.6551 41.8524 73.8198 41.813C73.9881 41.7736 74.1403 41.7199 74.2763 41.6519C74.5664 41.5086 74.7633 41.3421 74.8672 41.1523L74.9048 41.1685L75.0283 42.479ZM79.7331 42.5112C79.2748 42.8908 78.7753 43.0806 78.2346 43.0806C77.6545 43.0806 77.1998 42.8854 76.8704 42.4951C76.5553 42.1156 76.3977 41.5946 76.3977 40.9321V38.7998C76.3977 38.0837 76.3816 37.6737 76.3494 37.5698C76.3207 37.4624 76.2992 37.3944 76.2849 37.3657C76.4496 37.38 76.6215 37.3872 76.8005 37.3872H77.2463C77.3645 37.3872 77.5203 37.3818 77.7136 37.3711V40.481C77.7136 41.2186 77.9141 41.6465 78.3152 41.7646C78.4369 41.8005 78.5694 41.8184 78.7126 41.8184C79.1352 41.8184 79.4753 41.6644 79.7331 41.3564V37.3872H81.0652V42.3125C81.0652 42.6276 81.0795 42.8568 81.1081 43H79.7331V42.5112ZM84.2715 42.3984C84.2715 42.7064 84.2787 42.9069 84.293 43H82.9556V37.3872H84.2715V37.8008C84.5759 37.4535 84.8946 37.2798 85.2276 37.2798C85.5642 37.2798 85.8291 37.321 86.0225 37.4033L85.9258 38.8481L85.9043 38.8643C85.779 38.6423 85.5194 38.5312 85.1255 38.5312C84.9751 38.5312 84.8212 38.5832 84.6636 38.687C84.5096 38.7873 84.3789 38.9215 84.2715 39.0898V42.3984ZM86.6292 40.2393C86.6292 39.8203 86.7008 39.4318 86.844 39.0737C86.9873 38.7157 87.1896 38.4023 87.451 38.1338C88.0096 37.5645 88.74 37.2798 89.6424 37.2798C90.4051 37.2798 91.0174 37.5322 91.4793 38.0371C91.9341 38.5241 92.1614 39.1364 92.1614 39.874C92.1614 40.1569 92.1399 40.3503 92.097 40.4541C91.7389 40.5544 91.0102 40.6045 89.9109 40.6045H88.0203C88.1134 40.9876 88.3301 41.2866 88.6702 41.5015C89.0104 41.7127 89.4526 41.8184 89.9969 41.8184C90.5662 41.8184 91.055 41.7163 91.4632 41.5122C91.5706 41.4585 91.6512 41.4084 91.7049 41.3618C91.6977 41.5122 91.6888 41.6662 91.678 41.8237L91.6189 42.6616C91.3468 42.8478 90.9064 42.9767 90.2977 43.0483C90.1186 43.0698 89.9467 43.0806 89.782 43.0806C88.8725 43.0806 88.1206 42.8156 87.5262 42.2856C86.9282 41.7521 86.6292 41.07 86.6292 40.2393ZM90.7327 39.5625C90.5859 38.7926 90.167 38.4077 89.4759 38.4077C88.9316 38.4077 88.518 38.6423 88.2352 39.1113C88.1492 39.2546 88.083 39.4121 88.0364 39.584C88.1224 39.5876 88.228 39.5911 88.3533 39.5947H88.7508C88.8833 39.5983 89.0104 39.6001 89.1321 39.6001H89.4383C89.6209 39.6001 89.7999 39.5983 89.9754 39.5947L90.4158 39.5786C90.534 39.575 90.6396 39.5697 90.7327 39.5625ZM95.0025 41.4478C95.0025 42.2534 95.0168 42.7708 95.0455 43H93.6436V37.3872H95.0025V37.8706C95.4931 37.4767 95.9962 37.2798 96.5118 37.2798C97.1205 37.2798 97.5627 37.543 97.8385 38.0693C98.1142 37.7865 98.3433 37.6003 98.526 37.5107C98.8303 37.3568 99.1347 37.2798 99.439 37.2798C99.747 37.2798 100.008 37.3317 100.223 37.4355C100.438 37.5394 100.615 37.6862 100.755 37.876C101.038 38.2591 101.179 38.7855 101.179 39.4551V41.5928C101.179 42.1979 101.188 42.5614 101.206 42.6831C101.224 42.8049 101.247 42.8836 101.276 42.9194C101.308 42.9552 101.335 42.9875 101.357 43.0161L101.346 43.0376C101.059 43.0125 100.848 43 100.712 43H100.309C100.177 43 100.014 43.0054 99.8204 43.0161V40.1104C99.8204 39.2725 99.6915 38.7747 99.4337 38.6172C99.3477 38.5671 99.2457 38.542 99.1275 38.542C99.0129 38.542 98.9109 38.5563 98.8214 38.585C98.7319 38.61 98.6477 38.653 98.5689 38.7139C98.4364 38.8105 98.2861 39.0003 98.1178 39.2832C98.1213 39.3118 98.1231 39.3405 98.1231 39.3691C98.1231 39.3978 98.1231 39.8704 98.1231 40.7871C98.1231 41.7038 98.1446 42.4414 98.1876 43C97.8832 43 97.6236 43 97.4088 43C97.1975 43 96.9952 43.0054 96.8018 43.0161V40.105C96.8018 39.5213 96.766 39.1418 96.6944 38.9663C96.6264 38.7909 96.553 38.6763 96.4742 38.6226C96.3954 38.5688 96.2987 38.542 96.1842 38.542C95.7115 38.542 95.3176 38.7694 95.0025 39.2241V41.4478ZM102.688 40.2393C102.688 39.8203 102.76 39.4318 102.903 39.0737C103.046 38.7157 103.249 38.4023 103.51 38.1338C104.069 37.5645 104.799 37.2798 105.702 37.2798C106.464 37.2798 107.077 37.5322 107.538 38.0371C107.993 38.5241 108.221 39.1364 108.221 39.874C108.221 40.1569 108.199 40.3503 108.156 40.4541C107.798 40.5544 107.069 40.6045 105.97 40.6045H104.079C104.173 40.9876 104.389 41.2866 104.729 41.5015C105.07 41.7127 105.512 41.8184 106.056 41.8184C106.625 41.8184 107.114 41.7163 107.522 41.5122C107.63 41.4585 107.71 41.4084 107.764 41.3618C107.757 41.5122 107.748 41.6662 107.737 41.8237L107.678 42.6616C107.406 42.8478 106.966 42.9767 106.357 43.0483C106.178 43.0698 106.006 43.0806 105.841 43.0806C104.932 43.0806 104.18 42.8156 103.585 42.2856C102.987 41.7521 102.688 41.07 102.688 40.2393ZM106.792 39.5625C106.645 38.7926 106.226 38.4077 105.535 38.4077C104.991 38.4077 104.577 38.6423 104.294 39.1113C104.208 39.2546 104.142 39.4121 104.096 39.584C104.182 39.5876 104.287 39.5911 104.412 39.5947H104.81C104.942 39.5983 105.07 39.6001 105.191 39.6001H105.497C105.68 39.6001 105.859 39.5983 106.035 39.5947L106.475 39.5786C106.593 39.575 106.699 39.5697 106.792 39.5625ZM111.024 42.3125C111.024 42.6276 111.038 42.8568 111.067 43H109.719V37.3872H111.024V37.8652C111.497 37.4749 112.002 37.2798 112.539 37.2798C113.126 37.2798 113.595 37.4803 113.946 37.8813C114.297 38.2788 114.472 38.8034 114.472 39.4551V41.5928C114.472 42.1979 114.481 42.5614 114.499 42.6831C114.517 42.8049 114.54 42.8836 114.569 42.9194C114.601 42.9552 114.628 42.9875 114.65 43.0161L114.639 43.0376C114.349 43.0125 114.138 43 114.005 43H113.629C113.514 43 113.36 43.0054 113.167 43.0161V40.0889C113.167 39.0397 112.848 38.5151 112.211 38.5151C111.738 38.5151 111.343 38.7586 111.024 39.2456V42.3125ZM118.758 41.8184C119.22 41.8184 119.537 41.6984 119.709 41.4585H119.752L119.768 42.7046C119.593 42.88 119.267 42.9964 118.79 43.0537C118.662 43.0716 118.5 43.0806 118.307 43.0806C118.117 43.0806 117.91 43.0448 117.684 42.9731C117.462 42.9015 117.272 42.7852 117.115 42.624C116.789 42.291 116.626 41.77 116.626 41.061V38.6226H115.815C115.811 38.5187 115.809 38.4131 115.809 38.3057V37.4785C115.809 37.4176 115.811 37.3872 115.815 37.3872H116.626V35.8564H117.942V37.3872H119.419V38.6226H117.942V40.814C117.942 41.3761 118.098 41.6966 118.409 41.7754C118.509 41.804 118.626 41.8184 118.758 41.8184ZM125.611 43.043C125.303 43.0143 124.944 43 124.532 43H124.107L126.444 36.4526C126.548 36.159 126.6 35.9889 126.6 35.9424C126.6 35.8923 126.598 35.8618 126.594 35.8511L126.6 35.8403C126.832 35.8511 127.079 35.8564 127.341 35.8564C127.556 35.8564 127.813 35.8529 128.114 35.8457L128.12 35.8564C128.112 35.8708 128.109 35.8905 128.109 35.9155C128.109 35.9836 128.163 36.1644 128.27 36.458L130.655 43.0161C130.583 43.0125 130.499 43.0107 130.402 43.0107C130.402 43.0107 130.309 43.0072 130.123 43C130.034 43 129.953 43 129.881 43H129.049L128.544 41.4531H126.116L125.611 43.043ZM128.125 40.1641L127.314 37.6665L126.524 40.1641H128.125ZM131.911 35.835C132.269 35.8493 132.486 35.8564 132.561 35.8564H132.948C133.138 35.8564 133.29 35.8421 133.405 35.8135L133.399 43H131.911V35.835ZM143.083 42.667C142.574 42.9427 142.114 43.0806 141.702 43.0806C141.291 43.0806 140.938 43.043 140.644 42.9678C140.351 42.889 140.102 42.7744 139.898 42.624C139.482 42.3197 139.275 41.8792 139.275 41.3027C139.275 40.7871 139.529 40.3574 140.037 40.0137C140.589 39.6413 141.337 39.4551 142.283 39.4551L142.497 39.4604C142.54 39.464 142.589 39.4676 142.642 39.4712C142.696 39.4712 142.744 39.4748 142.787 39.4819C142.759 38.909 142.512 38.5742 142.046 38.4775C141.892 38.4453 141.728 38.4292 141.552 38.4292C141.38 38.4292 141.21 38.4453 141.042 38.4775C140.877 38.5062 140.716 38.5456 140.558 38.5957C140.211 38.7067 139.962 38.8338 139.812 38.9771L139.796 38.9663L139.635 37.7793C140.268 37.4463 140.961 37.2798 141.713 37.2798C142.881 37.2798 143.627 37.7005 143.953 38.542C144.057 38.8105 144.109 39.1131 144.109 39.4497V41.394C144.109 41.8094 144.256 42.0923 144.549 42.2427L143.577 43.1343C143.373 43.0269 143.208 42.8711 143.083 42.667ZM142.793 40.4487C142.696 40.4308 142.596 40.4219 142.492 40.4219H142.277C141.486 40.4219 140.983 40.5973 140.768 40.9482C140.703 41.0521 140.671 41.1613 140.671 41.2759C140.671 41.3905 140.691 41.4925 140.73 41.582C140.773 41.668 140.843 41.7396 140.94 41.7969C141.126 41.9043 141.402 41.958 141.767 41.958C142.136 41.958 142.479 41.8703 142.798 41.6948C142.795 41.6554 142.793 41.6143 142.793 41.5713V40.4487ZM147.9 43.0806C146.891 43.0806 146.13 42.8962 145.618 42.5273C145.625 42.4199 145.636 42.2982 145.65 42.1621L145.698 41.7754C145.727 41.5212 145.745 41.3636 145.752 41.3027C145.759 41.2383 145.765 41.2043 145.768 41.2007C145.772 41.1935 145.8 41.2222 145.854 41.2866C145.908 41.3475 146.01 41.4227 146.16 41.5122C146.311 41.6017 146.484 41.6805 146.681 41.7485C147.107 41.8953 147.551 41.9688 148.013 41.9688C148.633 41.9688 148.942 41.7629 148.942 41.3511C148.942 41.2186 148.883 41.1201 148.765 41.0557C148.554 40.9482 148.242 40.8677 147.831 40.814C147.422 40.7567 147.088 40.6743 146.826 40.5669C146.565 40.4595 146.352 40.3306 146.187 40.1802C145.883 39.8973 145.731 39.5267 145.731 39.0684C145.731 38.5098 145.945 38.0711 146.375 37.7524C146.801 37.4373 147.39 37.2798 148.142 37.2798C148.887 37.2798 149.523 37.491 150.049 37.9136C150.024 38.0067 149.997 38.0962 149.968 38.1821C149.886 38.4185 149.825 38.5885 149.786 38.6924L149.662 39.0093C149.655 39.0379 149.65 39.0522 149.646 39.0522C149.639 39.0522 149.61 39.0146 149.56 38.9395C149.335 38.6781 148.984 38.5062 148.507 38.4238C148.361 38.3952 148.21 38.3809 148.056 38.3809C147.405 38.3809 147.079 38.5778 147.079 38.9717C147.079 39.1077 147.147 39.2116 147.283 39.2832C147.537 39.4193 147.884 39.5195 148.325 39.584C148.769 39.6484 149.105 39.7362 149.335 39.8472C149.564 39.9546 149.748 40.0853 149.888 40.2393C150.146 40.5186 150.275 40.8892 150.275 41.3511C150.275 41.856 150.072 42.266 149.668 42.5811C149.245 42.9141 148.656 43.0806 147.9 43.0806ZM153.631 43.0806C152.621 43.0806 151.861 42.8962 151.349 42.5273C151.356 42.4199 151.366 42.2982 151.381 42.1621L151.429 41.7754C151.458 41.5212 151.476 41.3636 151.483 41.3027C151.49 41.2383 151.495 41.2043 151.499 41.2007C151.502 41.1935 151.531 41.2222 151.585 41.2866C151.639 41.3475 151.741 41.4227 151.891 41.5122C152.041 41.6017 152.215 41.6805 152.412 41.7485C152.838 41.8953 153.282 41.9688 153.744 41.9688C154.363 41.9688 154.673 41.7629 154.673 41.3511C154.673 41.2186 154.614 41.1201 154.496 41.0557C154.285 40.9482 153.973 40.8677 153.561 40.814C153.153 40.7567 152.818 40.6743 152.557 40.5669C152.296 40.4595 152.083 40.3306 151.918 40.1802C151.613 39.8973 151.461 39.5267 151.461 39.0684C151.461 38.5098 151.676 38.0711 152.106 37.7524C152.532 37.4373 153.121 37.2798 153.873 37.2798C154.618 37.2798 155.253 37.491 155.78 37.9136C155.755 38.0067 155.728 38.0962 155.699 38.1821C155.617 38.4185 155.556 38.5885 155.516 38.6924L155.393 39.0093C155.386 39.0379 155.38 39.0522 155.377 39.0522C155.37 39.0522 155.341 39.0146 155.291 38.9395C155.065 38.6781 154.714 38.5062 154.238 38.4238C154.091 38.3952 153.941 38.3809 153.787 38.3809C153.135 38.3809 152.809 38.5778 152.809 38.9717C152.809 39.1077 152.877 39.2116 153.014 39.2832C153.268 39.4193 153.615 39.5195 154.056 39.584C154.5 39.6484 154.836 39.7362 155.065 39.8472C155.294 39.9546 155.479 40.0853 155.619 40.2393C155.876 40.5186 156.005 40.8892 156.005 41.3511C156.005 41.856 155.803 42.266 155.398 42.5811C154.976 42.9141 154.387 43.0806 153.631 43.0806ZM157.299 35.7866C157.586 35.339 157.885 34.9451 158.196 34.605L159.351 35.5127C159.197 35.7025 159.054 35.8887 158.922 36.0713C158.922 36.0713 158.784 36.2664 158.508 36.6567L157.299 35.7866ZM158.712 42.3984C158.712 42.7064 158.719 42.9069 158.734 43H157.369V37.3872H158.712V42.3984ZM162.343 43.0806C161.333 43.0806 160.572 42.8962 160.06 42.5273C160.067 42.4199 160.078 42.2982 160.092 42.1621L160.141 41.7754C160.169 41.5212 160.187 41.3636 160.194 41.3027C160.201 41.2383 160.207 41.2043 160.21 41.2007C160.214 41.1935 160.243 41.2222 160.296 41.2866C160.35 41.3475 160.452 41.4227 160.602 41.5122C160.753 41.6017 160.927 41.6805 161.123 41.7485C161.55 41.8953 161.994 41.9688 162.456 41.9688C163.075 41.9688 163.385 41.7629 163.385 41.3511C163.385 41.2186 163.326 41.1201 163.207 41.0557C162.996 40.9482 162.685 40.8677 162.273 40.814C161.865 40.7567 161.53 40.6743 161.269 40.5669C161.007 40.4595 160.794 40.3306 160.629 40.1802C160.325 39.8973 160.173 39.5267 160.173 39.0684C160.173 38.5098 160.388 38.0711 160.817 37.7524C161.243 37.4373 161.832 37.2798 162.584 37.2798C163.329 37.2798 163.965 37.491 164.491 37.9136C164.466 38.0067 164.439 38.0962 164.411 38.1821C164.328 38.4185 164.267 38.5885 164.228 38.6924L164.104 39.0093C164.097 39.0379 164.092 39.0522 164.088 39.0522C164.081 39.0522 164.053 39.0146 164.002 38.9395C163.777 38.6781 163.426 38.5062 162.95 38.4238C162.803 38.3952 162.652 38.3809 162.498 38.3809C161.847 38.3809 161.521 38.5778 161.521 38.9717C161.521 39.1077 161.589 39.2116 161.725 39.2832C161.979 39.4193 162.327 39.5195 162.767 39.584C163.211 39.6484 163.548 39.7362 163.777 39.8472C164.006 39.9546 164.19 40.0853 164.33 40.2393C164.588 40.5186 164.717 40.8892 164.717 41.3511C164.717 41.856 164.514 42.266 164.11 42.5811C163.687 42.9141 163.098 43.0806 162.343 43.0806ZM168.675 41.8184C169.137 41.8184 169.454 41.6984 169.626 41.4585H169.669L169.685 42.7046C169.509 42.88 169.183 42.9964 168.707 43.0537C168.578 43.0716 168.417 43.0806 168.224 43.0806C168.034 43.0806 167.826 43.0448 167.601 42.9731C167.379 42.9015 167.189 42.7852 167.031 42.624C166.706 42.291 166.543 41.77 166.543 41.061V38.6226H165.732C165.728 38.5187 165.726 38.4131 165.726 38.3057V37.4785C165.726 37.4176 165.728 37.3872 165.732 37.3872H166.543V35.8564H167.859V37.3872H169.336V38.6226H167.859V40.814C167.859 41.3761 168.014 41.6966 168.326 41.7754C168.426 41.804 168.543 41.8184 168.675 41.8184ZM174.707 42.667C174.198 42.9427 173.738 43.0806 173.326 43.0806C172.914 43.0806 172.562 43.043 172.268 42.9678C171.974 42.889 171.726 42.7744 171.521 42.624C171.106 42.3197 170.898 41.8792 170.898 41.3027C170.898 40.7871 171.153 40.3574 171.661 40.0137C172.213 39.6413 172.961 39.4551 173.906 39.4551L174.121 39.4604C174.164 39.464 174.212 39.4676 174.266 39.4712C174.32 39.4712 174.368 39.4748 174.411 39.4819C174.382 38.909 174.135 38.5742 173.67 38.4775C173.516 38.4453 173.351 38.4292 173.176 38.4292C173.004 38.4292 172.834 38.4453 172.666 38.4775C172.501 38.5062 172.34 38.5456 172.182 38.5957C171.835 38.7067 171.586 38.8338 171.436 38.9771L171.419 38.9663L171.258 37.7793C171.892 37.4463 172.585 37.2798 173.337 37.2798C174.504 37.2798 175.251 37.7005 175.577 38.542C175.681 38.8105 175.732 39.1131 175.732 39.4497V41.394C175.732 41.8094 175.879 42.0923 176.173 42.2427L175.201 43.1343C174.997 43.0269 174.832 42.8711 174.707 42.667ZM174.417 40.4487C174.32 40.4308 174.22 40.4219 174.116 40.4219H173.901C173.11 40.4219 172.606 40.5973 172.392 40.9482C172.327 41.0521 172.295 41.1613 172.295 41.2759C172.295 41.3905 172.315 41.4925 172.354 41.582C172.397 41.668 172.467 41.7396 172.563 41.7969C172.75 41.9043 173.025 41.958 173.391 41.958C173.759 41.958 174.103 41.8703 174.422 41.6948C174.418 41.6554 174.417 41.6143 174.417 41.5713V40.4487ZM179.046 42.3125C179.046 42.6276 179.06 42.8568 179.089 43H177.741V37.3872H179.046V37.8652C179.519 37.4749 180.024 37.2798 180.561 37.2798C181.148 37.2798 181.617 37.4803 181.968 37.8813C182.319 38.2788 182.494 38.8034 182.494 39.4551V41.5928C182.494 42.1979 182.503 42.5614 182.521 42.6831C182.539 42.8049 182.562 42.8836 182.591 42.9194C182.623 42.9552 182.65 42.9875 182.672 43.0161L182.661 43.0376C182.371 43.0125 182.16 43 182.027 43H181.651C181.537 43 181.383 43.0054 181.189 43.0161V40.0889C181.189 39.0397 180.871 38.5151 180.233 38.5151C179.761 38.5151 179.365 38.7586 179.046 39.2456V42.3125ZM186.78 41.8184C187.242 41.8184 187.559 41.6984 187.731 41.4585H187.774L187.79 42.7046C187.615 42.88 187.289 42.9964 186.813 43.0537C186.684 43.0716 186.523 43.0806 186.329 43.0806C186.139 43.0806 185.932 43.0448 185.706 42.9731C185.484 42.9015 185.294 42.7852 185.137 42.624C184.811 42.291 184.648 41.77 184.648 41.061V38.6226H183.837C183.833 38.5187 183.832 38.4131 183.832 38.3057V37.4785C183.832 37.4176 183.833 37.3872 183.837 37.3872H184.648V35.8564H185.964V37.3872H187.441V38.6226H185.964V40.814C185.964 41.3761 186.12 41.6966 186.431 41.7754C186.531 41.804 186.648 41.8184 186.78 41.8184Z" fill="white"/>
<defs>
<clipPath id="clip0_650_566">
<rect width="45.5714" height="44" fill="white"/>
</clipPath>
</defs>
</svg>
