<svg width="210" height="210" viewBox="0 0 210 210" fill="none" xmlns="http://www.w3.org/2000/svg">
<g clip-path="url(#clip0_610_717)">
<path d="M65.1329 23.3125C60.2169 25.4505 23.014 42.5718 7.19819 85.8445C-7.96482 127.331 1.27012 183.684 30.6752 200.745C54.7872 214.734 71.4127 190.093 125.34 199.963C153.358 205.092 162.502 214.228 177.215 207.779C202.984 196.487 207.682 154.201 208.879 143.455C210.256 131.086 216.118 78.3427 176.817 41.7723C145.586 12.7113 100.815 7.80037 65.1329 23.3125Z" fill="#3F526F" fill-opacity="0.16"/>
<path d="M183.735 35.7152L24.6839 29.5746C20.9013 29.5746 17.8247 32.6512 17.8247 36.4337V147.466C17.8247 151.248 20.9013 154.325 24.6839 154.325L82.153 150.431L74.7752 177.361L66.9672 177.422C64.5333 177.422 62.5522 179.403 62.5522 181.837C62.5522 184.271 64.5333 186.252 66.9672 186.252L132.348 183.133C134.782 183.133 130.228 154.322 130.228 154.322C130.228 154.322 187.517 35.7101 183.735 35.7101V35.7152Z" fill="black"/>
<path d="M129.201 140.133H88.6428L77.1358 182.128H140.708L129.201 140.133Z" fill="white"/>
<path d="M140.708 182.508H77.1383C77.0194 182.508 76.9081 182.452 76.8372 182.358C76.7664 182.265 76.7411 182.143 76.774 182.027L88.281 140.03C88.3265 139.865 88.4758 139.751 88.6478 139.751H129.206C129.378 139.751 129.527 139.865 129.573 140.03L141.08 182.027C141.11 182.141 141.087 182.262 141.016 182.358C140.945 182.452 140.834 182.508 140.715 182.508H140.708ZM77.6342 181.749H140.209L128.912 140.51H88.9337L77.6367 181.749H77.6342Z" fill="black"/>
<path d="M189.896 29.9617H27.9477C24.3733 29.9617 21.4757 32.8593 21.4757 36.4337V147.466C21.4757 151.04 24.3733 153.938 27.9477 153.938H189.896C193.47 153.938 196.368 151.04 196.368 147.466V36.4337C196.368 32.8593 193.47 29.9617 189.896 29.9617Z" fill="white"/>
<path d="M189.896 154.32H27.9477C24.1703 154.32 21.0962 151.246 21.0962 147.468V36.4337C21.0962 32.6563 24.1703 29.5822 27.9477 29.5822H189.896C193.673 29.5822 196.747 32.6563 196.747 36.4337V147.466C196.747 151.243 193.673 154.317 189.896 154.317V154.32ZM27.9477 30.3412C24.5877 30.3412 21.8552 33.0737 21.8552 36.4337V147.466C21.8552 150.826 24.5877 153.558 27.9477 153.558H189.896C193.256 153.558 195.988 150.826 195.988 147.466V36.4337C195.988 33.0737 193.256 30.3412 189.896 30.3412H27.9477Z" fill="black"/>
<path d="M147.61 177.814H70.2311C68.0071 177.814 66.2032 179.618 66.2032 181.842C66.2032 184.066 68.0071 185.87 70.2311 185.87H147.61C149.834 185.87 151.638 184.066 151.638 181.842C151.638 179.618 149.834 177.814 147.61 177.814Z" fill="white"/>
<path d="M147.61 186.247H70.2311C67.8022 186.247 65.8236 184.271 65.8236 181.84C65.8236 179.408 67.7997 177.432 70.2311 177.432H147.61C150.039 177.432 152.017 179.408 152.017 181.84C152.017 184.271 150.041 186.247 147.61 186.247ZM70.2311 178.194C68.2197 178.194 66.5827 179.831 66.5827 181.842C66.5827 183.854 68.2197 185.491 70.2311 185.491H147.61C149.621 185.491 151.258 183.854 151.258 181.842C151.258 179.831 149.621 178.194 147.61 178.194H70.2311Z" fill="black"/>
<path d="M27.2292 118.291V144.968C27.2292 146.744 28.6688 148.187 30.4475 148.187H187.396C189.172 148.187 190.614 146.747 190.614 144.968V101.22L27.2292 118.291Z" fill="white"/>
<path d="M187.396 148.566H30.4475C28.4639 148.566 26.8497 146.952 26.8497 144.968V118.291C26.8497 118.081 27.0192 117.911 27.2292 117.911C27.4392 117.911 27.6087 118.081 27.6087 118.291V144.968C27.6087 146.534 28.8813 147.807 30.4475 147.807H187.396C188.962 147.807 190.235 146.534 190.235 144.968V101.22C190.235 101.01 190.404 100.84 190.614 100.84C190.824 100.84 190.994 101.01 190.994 101.22V144.968C190.994 146.952 189.38 148.566 187.396 148.566Z" fill="black"/>
<path d="M27.2292 51.5563C27.0192 51.5563 26.8497 51.3867 26.8497 51.1767V44.3505C26.8497 44.1405 27.0192 43.9709 27.2292 43.9709C27.4392 43.9709 27.6087 44.1405 27.6087 44.3505V51.1767C27.6087 51.3867 27.4392 51.5563 27.2292 51.5563Z" fill="black"/>
<path d="M39.7811 35.7152H30.4475C28.6713 35.7152 27.2292 37.1548 27.2292 38.9335L39.7811 35.7152Z" fill="white"/>
<path d="M27.2292 39.313C27.0192 39.313 26.8497 39.1435 26.8497 38.9335C26.8497 36.9499 28.4639 35.3357 30.4475 35.3357H39.7811C39.9911 35.3357 40.1606 35.5052 40.1606 35.7152C40.1606 35.9252 39.9911 36.0947 39.7811 36.0947H30.4475C28.8813 36.0947 27.6087 37.3674 27.6087 38.9335C27.6087 39.1435 27.4392 39.313 27.2292 39.313Z" fill="black"/>
<path d="M190.614 44.3505V38.9335C190.614 37.1574 189.175 35.7152 187.396 35.7152H177.797L190.614 44.3505Z" fill="white"/>
<path d="M190.614 44.73C190.404 44.73 190.235 44.5605 190.235 44.3505V38.9335C190.235 37.3674 188.962 36.0947 187.396 36.0947H177.797C177.587 36.0947 177.417 35.9252 177.417 35.7152C177.417 35.5052 177.587 35.3357 177.797 35.3357H187.396C189.38 35.3357 190.994 36.9499 190.994 38.9335V44.3505C190.994 44.5605 190.824 44.73 190.614 44.73Z" fill="black"/>
<path d="M190.614 59.8526C190.404 59.8526 190.235 59.683 190.235 59.473V51.9282C190.235 51.7182 190.404 51.5487 190.614 51.5487C190.824 51.5487 190.994 51.7182 190.994 51.9282V59.473C190.994 59.683 190.824 59.8526 190.614 59.8526Z" fill="black"/>
<path d="M168.078 0H46.9768V147.764H168.078V0Z" fill="#3F526F" fill-opacity="0.16"/>
<path d="M114.379 8.83008H55.9207V12.519H114.379V8.83008Z" fill="#3F526F" fill-opacity="0.16"/>
<path d="M143.918 15.0872H75.5848V18.9254H143.918V15.0872Z" fill="white"/>
<path d="M159.137 21.4149H90.8035V25.2556H159.137V21.4149Z" fill="white"/>
<path d="M150.896 27.7454H115.576V31.5861H150.896V27.7454Z" fill="white"/>
<path d="M114.379 59.473H55.9207V63.1619H114.379V59.473Z" fill="#3F526F" fill-opacity="0.16"/>
<path d="M143.918 65.7274H75.5848V69.5656H143.918V65.7274Z" fill="white"/>
<path d="M159.137 72.0579H90.8035V75.8961H159.137V72.0579Z" fill="white"/>
<path d="M159.137 78.3882H115.576V82.2289H159.137V78.3882Z" fill="white"/>
<path d="M143.918 34.0757H75.5848V37.9139H143.918V34.0757Z" fill="white"/>
<path d="M159.137 40.406H90.8035V44.2467H159.137V40.406Z" fill="white"/>
<path d="M142.656 53.0668H115.576V56.9075H142.656V53.0668Z" fill="white"/>
<path d="M159.137 46.7363H115.576V50.577H159.137V46.7363Z" fill="white"/>
<path d="M114.379 84.7944H55.9207V88.4833H114.379V84.7944Z" fill="#3F526F" fill-opacity="0.16"/>
<path d="M143.918 91.049H75.5848V94.8871H143.918V91.049Z" fill="white"/>
<path d="M156.938 97.3793H90.8035V101.22H156.938V97.3793Z" fill="white"/>
<path d="M159.137 103.71H115.576V107.55H159.137V103.71Z" fill="#3F526F" fill-opacity="0.16"/>
<path d="M127.728 135.361H90.8035V139.202H127.728V135.361Z" fill="#3F526F" fill-opacity="0.16"/>
<path d="M143.918 110.04H75.5848V113.878H143.918V110.04Z" fill="white"/>
<path d="M159.137 116.37H90.8035V120.209H159.137V116.37Z" fill="white"/>
<path d="M159.137 129.031H115.576V132.872H159.137V129.031Z" fill="white"/>
<path d="M140.515 122.701H115.576V126.541H140.515V122.701Z" fill="white"/>
<path d="M134.916 193.175H133.186C132.976 193.175 132.806 193.005 132.806 192.795C132.806 192.585 132.976 192.416 133.186 192.416H134.916C135.126 192.416 135.296 192.585 135.296 192.795C135.296 193.005 135.126 193.175 134.916 193.175Z" fill="black"/>
<path d="M130.091 193.175H120.798C120.588 193.175 120.419 193.005 120.419 192.795C120.419 192.585 120.588 192.416 120.798 192.416H130.091C130.301 192.416 130.471 192.585 130.471 192.795C130.471 193.005 130.301 193.175 130.091 193.175Z" fill="black"/>
<path d="M116.477 193.175H58.4357C56.361 193.175 54.6709 191.487 54.6709 189.41V163.117C54.6709 161.46 53.3223 160.111 51.6651 160.111H14.4495C12.3748 160.111 10.6847 158.423 10.6847 156.346V141.859C10.6847 141.649 10.8542 141.479 11.0642 141.479C11.2742 141.479 11.4438 141.649 11.4438 141.859V156.346C11.4438 158.003 12.7923 159.352 14.4495 159.352H51.6676C53.7423 159.352 55.4324 161.04 55.4324 163.117V189.41C55.4324 191.067 56.781 192.416 58.4382 192.416H116.479C116.689 192.416 116.859 192.585 116.859 192.795C116.859 193.005 116.689 193.175 116.479 193.175H116.477Z" fill="black"/>
<path d="M11.0642 136.29C10.8542 136.29 10.6847 136.12 10.6847 135.91V132.912C10.6847 132.702 10.8542 132.533 11.0642 132.533C11.2742 132.533 11.4438 132.702 11.4438 132.912V135.91C11.4438 136.12 11.2742 136.29 11.0642 136.29Z" fill="black"/>
<path d="M11.0642 130.025C10.8542 130.025 10.6847 129.856 10.6847 129.646V123.328C10.6847 123.118 10.8542 122.949 11.0642 122.949C11.2742 122.949 11.4438 123.118 11.4438 123.328V129.646C11.4438 129.856 11.2742 130.025 11.0642 130.025Z" fill="black"/>
<path d="M69.2975 192.37C69.8415 191.819 72.9889 182.027 72.9889 182.027L79.208 186.465L72.3893 195.629L69.295 192.37H69.2975Z" fill="white"/>
<path d="M72.3893 196.008C72.2855 196.008 72.1869 195.965 72.1135 195.89L69.0192 192.631C68.88 192.484 68.88 192.254 69.0192 192.11C69.424 191.591 71.4455 185.584 72.6246 181.911C72.6625 181.794 72.7511 181.706 72.8675 181.668C72.9813 181.63 73.1078 181.647 73.2065 181.718L79.4255 186.156C79.509 186.214 79.5647 186.305 79.5799 186.407C79.5951 186.508 79.5698 186.609 79.509 186.693L72.6904 195.857C72.6246 195.945 72.5208 196.003 72.4095 196.008C72.4019 196.008 72.3943 196.008 72.3868 196.008H72.3893ZM69.7655 192.312L72.3539 195.039L78.6716 186.548L73.1888 182.637C72.3867 185.116 70.5119 190.829 69.763 192.312H69.7655Z" fill="black"/>
<path d="M80.5059 204.75L76.3692 204.725C73.6316 204.71 71.0863 203.318 69.596 201.023L65.5074 194.549C64.3764 192.76 65.0089 190.389 66.8787 189.395C68.5865 188.486 70.3753 187.603 70.7928 187.644C71.6429 187.725 71.987 191.75 71.987 191.75L75.6708 191.892C75.6708 191.892 77.4925 199.462 79.0941 200.322C80.2605 200.95 81.0752 201.871 81.6242 202.711C82.1986 203.591 81.5584 204.755 80.5084 204.75H80.5059Z" fill="black"/>
<path d="M80.0885 203.515C80.0707 203.515 80.0505 203.515 80.0303 203.51L74.3729 202.658C72.9864 202.448 71.7795 201.638 71.0585 200.436L66.0589 192.084C65.9501 191.905 66.0109 191.672 66.1905 191.563C66.3701 191.454 66.6029 191.515 66.7117 191.695L71.7112 200.046C72.3134 201.053 73.3254 201.732 74.4868 201.906L80.1441 202.759C80.3516 202.789 80.4933 202.984 80.4629 203.191C80.4351 203.379 80.2732 203.515 80.0885 203.515Z" fill="white"/>
<path d="M73.1053 197.236C72.9383 197.236 72.7865 197.124 72.7384 196.955C72.6828 196.752 72.8017 196.545 73.0041 196.489L76.1566 195.632C76.359 195.576 76.5665 195.695 76.6222 195.897C76.6778 196.1 76.5589 196.307 76.3565 196.363L73.204 197.22C73.1711 197.231 73.1382 197.233 73.1028 197.233L73.1053 197.236Z" fill="white"/>
<path d="M74.7474 198.852C74.5753 198.852 74.421 198.736 74.378 198.564C74.3274 198.361 74.4539 198.154 74.6563 198.106L76.7689 197.59C76.9713 197.539 77.1788 197.666 77.2269 197.868C77.2775 198.07 77.151 198.278 76.9486 198.326L74.8359 198.842C74.8056 198.85 74.7752 198.852 74.7448 198.852H74.7474Z" fill="white"/>
<path d="M90.5201 190.503L97.7411 197.757L101.569 196.353L94.9124 187.07L90.5201 190.503Z" fill="white"/>
<path d="M97.7411 198.136C97.6424 198.136 97.5437 198.098 97.4729 198.025L90.2519 190.769C90.176 190.693 90.1356 190.586 90.1431 190.478C90.1507 190.369 90.2039 190.27 90.2874 190.202L94.6797 186.768C94.7606 186.705 94.8644 186.677 94.9681 186.693C95.0693 186.708 95.1629 186.763 95.2236 186.847L101.88 196.13C101.949 196.226 101.969 196.35 101.934 196.464C101.898 196.578 101.812 196.669 101.701 196.709L97.8727 198.116C97.8297 198.131 97.7866 198.139 97.7411 198.139V198.136ZM91.0919 190.536L97.8398 197.317L100.972 196.165L94.8365 187.611L91.0919 190.536Z" fill="black"/>
<path d="M95.4589 196.623C95.4589 196.623 95.1098 199.71 95.7018 202.437C96.0181 203.892 97.3261 204.914 98.8139 204.914H116.535C117.802 204.914 118.377 203.333 117.405 202.521C114.255 199.882 108.456 195.849 101.331 194.667L99.3427 197.451L95.4564 196.628L95.4589 196.623Z" fill="black"/>
<path d="M115.695 202.855H97.3287C97.1187 202.855 96.9492 202.685 96.9492 202.475C96.9492 202.265 97.1187 202.096 97.3287 202.096H115.695C115.905 202.096 116.074 202.265 116.074 202.475C116.074 202.685 115.905 202.855 115.695 202.855Z" fill="white"/>
<path d="M105.445 199.594C105.397 199.594 105.349 199.583 105.301 199.566C105.106 199.485 105.015 199.265 105.096 199.07L106.068 196.712C106.149 196.517 106.369 196.426 106.564 196.507C106.758 196.588 106.85 196.808 106.769 197.003L105.797 199.361C105.736 199.508 105.595 199.596 105.445 199.596V199.594Z" fill="white"/>
<path d="M108.643 200.213C108.603 200.213 108.565 200.208 108.524 200.193C108.325 200.127 108.218 199.912 108.284 199.712L108.987 197.585C109.053 197.385 109.268 197.278 109.466 197.344C109.666 197.41 109.772 197.625 109.706 197.825L109.003 199.953C108.95 200.112 108.803 200.213 108.643 200.213Z" fill="white"/>
<path d="M52.2951 139.731C52.2951 139.731 85.298 135.89 95.1098 144.384C104.924 152.88 79.6178 189.41 79.6178 189.41L71.6151 183.474L79.2054 157.654L48.6998 148.991L52.2951 139.731Z" fill="black"/>
<path d="M34.1339 156.546C38.9285 158.067 47.5056 160.035 59.4933 159.871C62.8988 159.825 66.0438 161.705 67.5922 164.741C71.1419 171.704 78.8285 184.243 91.3475 192.37L97.3262 189.149L82.0645 154.795C80.6704 151.658 78.0644 149.221 74.8435 148.04L44.5985 136.948C44.5985 136.948 35.2193 134.327 30.6221 142.699C29.7998 144.194 29.2432 145.543 28.8788 146.75C27.634 150.886 30.0148 155.241 34.1313 156.546H34.1339Z" fill="black"/>
<path d="M88.9641 170.7C88.8174 170.7 88.6807 170.616 88.6175 170.475L81.7204 154.95C80.3769 151.924 77.824 149.535 74.7145 148.397L60.2295 143.086C60.0322 143.013 59.931 142.795 60.0044 142.6C60.0777 142.403 60.2953 142.302 60.4901 142.375L74.9751 147.686C78.2743 148.895 80.9866 151.433 82.4136 154.644L89.3107 170.168C89.3968 170.361 89.3107 170.583 89.1185 170.669C89.0678 170.692 89.0172 170.702 88.9641 170.702V170.7Z" fill="white"/>
<path d="M80.9107 184.043C80.8121 184.043 80.7109 184.006 80.6375 183.927C79.2485 182.482 77.8797 180.929 76.5716 179.312C76.44 179.15 76.4653 178.91 76.6272 178.778C76.7917 178.647 77.0295 178.672 77.1611 178.834C78.454 180.433 79.8076 181.969 81.184 183.398C81.3282 183.55 81.3257 183.79 81.1739 183.935C81.1005 184.006 81.0044 184.041 80.9107 184.041V184.043Z" fill="white"/>
<path d="M76.8676 179.454C76.7563 179.454 76.6475 179.406 76.5716 179.312C75.9289 178.518 75.2888 177.693 74.6689 176.863C74.545 176.696 74.5778 176.458 74.7474 176.332C74.9144 176.208 75.1522 176.241 75.2787 176.41C75.891 177.232 76.526 178.05 77.1611 178.836C77.2927 178.998 77.2674 179.239 77.1054 179.37C77.0346 179.426 76.9511 179.454 76.8676 179.454Z" fill="white"/>
<path d="M46.959 94.6416C46.959 94.6416 50.8909 89.8724 54.9315 92.2507C57.2895 93.6397 59.3212 95.9902 62.5345 97.4577C63.8678 98.0649 64.6471 98.2066 64.6471 98.2066C64.6471 98.2066 62.4307 99.5425 56.0827 99.7626C49.7346 99.9827 46.9565 94.6442 46.9565 94.6442L46.959 94.6416Z" fill="black"/>
<path d="M58.1801 90.4847C54.9492 89.9635 52.9833 86.7579 52.3912 84.9969C51.9864 83.7875 52.1913 83.1448 52.3204 82.8589C52.7555 81.8874 53.8612 81.5256 54.304 81.3662C58.4053 79.8886 58.5521 76.7841 61.7552 76.44C64.3536 76.1592 64.4068 78.1883 68.7105 78.5628C69.5834 78.6387 70.9193 78.6716 72.2678 79.5445C72.913 79.962 73.8213 80.5464 73.9478 81.3535C74.0769 82.1708 73.4368 83.3979 64.9862 87.9015C60.1536 90.4771 59.2655 90.6618 58.1776 90.4873L58.1801 90.4847Z" fill="black"/>
<path d="M66.6915 84.8476C66.6915 84.8476 61.9728 83.1145 60.3282 83.2132C58.6836 83.3093 58.7519 87.4941 58.7519 87.4941C58.7519 87.4941 57.0618 85.5738 56.0624 86.811C55.063 88.0482 57.6868 89.4322 57.6868 89.4322L49.3905 97.0352L57.0795 99.0315L60.986 94.7758C60.986 94.7758 62.2916 96.2863 63.4858 95.9751C64.68 95.6639 66.4157 92.5316 66.4157 92.5316C67.0634 92.4304 67.4809 91.7903 67.3113 91.1577L67.0077 90.0293C66.823 89.3411 66.8129 88.62 66.9799 87.9268C67.2025 87.0033 67.1443 86.0342 66.8078 85.1462L66.6965 84.8501L66.6915 84.8476Z" fill="white"/>
<path d="M57.0745 99.4084C57.0416 99.4084 57.0112 99.4034 56.9783 99.3958L49.2893 97.3995C49.1552 97.3641 49.0489 97.2578 49.016 97.1237C48.9831 96.9896 49.0262 96.8454 49.1274 96.7518L57.0492 89.4954C56.4976 89.1361 55.6424 88.4656 55.478 87.6762C55.397 87.2841 55.4957 86.902 55.7613 86.5706C56.0472 86.2164 56.4217 86.0241 56.8442 86.014C57.411 85.9988 57.9777 86.3252 58.3876 86.644C58.466 85.303 58.8177 82.9196 60.3004 82.8336C62.0031 82.7324 66.6206 84.42 66.818 84.4908C66.9217 84.5288 67.0027 84.6097 67.0431 84.7135L67.1545 85.0095C67.5188 85.9735 67.5821 87.0108 67.3392 88.0127C67.1874 88.6402 67.195 89.3031 67.3645 89.9281L67.6681 91.0565C67.7769 91.4613 67.7086 91.8965 67.4783 92.2482C67.2835 92.5467 66.99 92.7618 66.6535 92.8605C66.2563 93.5537 64.766 96.0282 63.5693 96.3394C62.5294 96.6101 61.4794 95.7929 60.9835 95.3248L57.3477 99.2844C57.2744 99.3629 57.1731 99.4084 57.0694 99.4084H57.0745ZM50.1571 96.8403L56.948 98.6038L60.7001 94.5152C60.7735 94.4367 60.8772 94.3937 60.986 94.3912C61.0948 94.3912 61.196 94.4393 61.2669 94.5227C61.5882 94.8921 62.5977 95.808 63.3846 95.6031C64.1386 95.4058 65.4391 93.4981 66.0792 92.3418C66.1348 92.2381 66.236 92.1697 66.3524 92.152C66.5574 92.1191 66.7345 92.0078 66.8458 91.8332C66.9597 91.6587 66.9925 91.4537 66.9369 91.2513L66.6333 90.1229C66.4334 89.3765 66.4233 88.5846 66.6029 87.8331C66.8104 86.9805 66.7547 86.0975 66.446 85.2752L66.3954 85.1436C64.9836 84.635 61.573 83.5167 60.3459 83.5901C59.3794 83.6458 59.1062 86.2391 59.1264 87.4865C59.1264 87.6459 59.0328 87.7876 58.8835 87.8458C58.7342 87.904 58.5672 87.8609 58.461 87.742C58.2181 87.4688 57.459 86.7553 56.8594 86.7705C56.6595 86.7755 56.5001 86.8615 56.3509 87.0437C56.2269 87.1981 56.1839 87.3473 56.2193 87.5194C56.3382 88.0962 57.287 88.7895 57.8563 89.0931C57.9651 89.1513 58.0384 89.2576 58.0562 89.3815C58.0713 89.503 58.0283 89.627 57.9372 89.7105L50.1546 96.8403H50.1571Z" fill="black"/>
<path d="M60.981 95.1528C60.8747 95.1528 60.7684 95.1073 60.6925 95.0213C59.6147 93.7663 59.3769 92.5569 59.3668 92.5063C59.3288 92.3014 59.4629 92.1015 59.6704 92.0636C59.8753 92.0256 60.0752 92.1597 60.1131 92.3646C60.1157 92.3823 60.3333 93.4399 61.2694 94.5279C61.406 94.6873 61.3883 94.9277 61.2289 95.0643C61.1581 95.125 61.0695 95.1554 60.981 95.1554V95.1528Z" fill="black"/>
<path d="M95.3856 87.7117C95.55 87.3828 96.3748 86.4011 96.7493 86.1202L100.714 82.4338C100.714 82.4338 101.23 84.21 100.605 85.2575C101.822 85.2979 102.784 85.5054 102.784 85.5054C102.784 85.5054 104.595 83.9089 105.046 83.6356C105.496 83.3599 106.085 82.9247 106.693 82.9323C107.3 82.9399 107.905 83.4054 107.905 83.4054L104.423 87.8179L98.0903 89.5612L96.7746 100.466L93.8877 96.6L95.3856 87.7142V87.7117Z" fill="white"/>
<path d="M96.7746 100.846C96.6557 100.846 96.5444 100.79 96.471 100.694L93.5841 96.8277C93.5209 96.7442 93.4956 96.6405 93.5133 96.5367L95.0111 87.651C95.0162 87.613 95.0288 87.5776 95.0465 87.5447C95.2337 87.1728 96.0687 86.1708 96.5064 85.8343L100.456 82.1606C100.552 82.072 100.689 82.0366 100.815 82.072C100.942 82.1075 101.043 82.2061 101.078 82.3326C101.099 82.401 101.488 83.7773 101.162 84.9108C101.845 84.9614 102.397 85.05 102.672 85.1006C103.128 84.7008 104.441 83.5623 104.848 83.3143C104.909 83.2764 104.972 83.2359 105.038 83.1954C105.493 82.907 106.058 82.5452 106.695 82.5553C107.409 82.5654 108.061 83.0512 108.132 83.1069C108.213 83.1676 108.264 83.2612 108.277 83.3599C108.289 83.4611 108.261 83.5623 108.198 83.6407L104.717 88.0532C104.666 88.1165 104.598 88.162 104.519 88.1848L98.4318 89.8598L97.1465 100.512C97.1288 100.666 97.0175 100.792 96.8682 100.833C96.8353 100.84 96.8024 100.846 96.7695 100.846H96.7746ZM94.2875 96.5013L96.5115 99.4793L97.7133 89.5157C97.731 89.3638 97.8398 89.2348 97.989 89.1943L104.2 87.484L107.343 83.5016C107.151 83.4029 106.91 83.3118 106.688 83.3093C106.288 83.3093 105.835 83.5851 105.445 83.8305C105.374 83.8735 105.309 83.9165 105.243 83.957C104.932 84.1467 103.753 85.1563 103.034 85.7888C102.943 85.8672 102.822 85.9001 102.703 85.8748C102.693 85.8748 101.756 85.6749 100.59 85.6345C100.456 85.6294 100.334 85.556 100.269 85.4371C100.205 85.3182 100.208 85.1765 100.276 85.0601C100.58 84.5516 100.56 83.7596 100.476 83.1676L97.0048 86.3935C97.0048 86.3935 96.9846 86.4112 96.9745 86.4188C96.6633 86.6516 95.9371 87.5093 95.7448 87.8306L94.2849 96.4937L94.2875 96.5013Z" fill="black"/>
<path d="M63.0582 99.3629C63.0582 99.3629 69.5024 105.686 81.733 104.259C93.9636 102.832 94.3254 90.0647 94.3254 90.0647H98.3407C98.3407 90.0647 104.274 112.378 83.1069 119.399C61.9399 126.423 55.0504 114.106 55.0504 114.106L63.0582 99.3629Z" fill="#3F526F"/>
<path d="M63.0582 99.3629C63.0582 99.3629 69.5024 105.686 81.733 104.259C93.9636 102.832 94.3254 90.0647 94.3254 90.0647H98.3407C98.3407 90.0647 104.274 112.378 83.1069 119.399C61.9399 126.423 55.0504 114.106 55.0504 114.106L63.0582 99.3629Z" fill="white" fill-opacity="0.16"/>
<path d="M46.0254 151.152C46.0254 151.152 33.013 156.351 25.6706 151.337C16.4053 145.011 21.2379 126.987 24.5321 119.399C27.4417 112.694 31.9048 107.975 38.4452 101.063C40.3124 99.0897 41.4409 98.0599 43.1639 97.2376C49.9826 93.9712 58.2535 97.6728 62.322 99.492C65.4112 100.873 67.787 102.409 69.3785 103.553C69.3785 103.553 56.3205 119.66 56.5836 129.438C56.8468 139.217 60.8671 138.81 60.8671 138.81C60.8671 138.81 55.3186 147.716 46.028 151.154L46.0254 151.152Z" fill="#3F526F"/>
<path d="M46.0254 151.152C46.0254 151.152 33.013 156.351 25.6706 151.337C16.4053 145.011 21.2379 126.987 24.5321 119.399C27.4417 112.694 31.9048 107.975 38.4452 101.063C40.3124 99.0897 41.4409 98.0599 43.1639 97.2376C49.9826 93.9712 58.2535 97.6728 62.322 99.492C65.4112 100.873 67.787 102.409 69.3785 103.553C69.3785 103.553 56.3205 119.66 56.5836 129.438C56.8468 139.217 60.8671 138.81 60.8671 138.81C60.8671 138.81 55.3186 147.716 46.028 151.154L46.0254 151.152Z" fill="white" fill-opacity="0.16"/>
<path d="M56.8442 105.478C57.2162 108.388 58.1042 112.087 60.2144 115.882C66.9445 127.994 80.4477 130.931 83.1119 131.457L80.4427 134.43C80.4427 134.43 51.7638 139.136 43.4472 112.934C43.4472 112.934 40.2897 103.153 47.3133 100.734C48.7757 100.231 50.6986 99.9372 52.538 100.653C55.7234 101.893 56.7228 105.056 56.8468 105.476L56.8442 105.478Z" fill="#3F526F"/>
<path d="M56.8442 105.478C57.2162 108.388 58.1042 112.087 60.2144 115.882C66.9445 127.994 80.4477 130.931 83.1119 131.457L80.4427 134.43C80.4427 134.43 51.7638 139.136 43.4472 112.934C43.4472 112.934 40.2897 103.153 47.3133 100.734C48.7757 100.231 50.6986 99.9372 52.538 100.653C55.7234 101.893 56.7228 105.056 56.8468 105.476L56.8442 105.478Z" fill="white" fill-opacity="0.16"/>
<path d="M80.1517 133.851C80.3693 133.722 82.3706 130.62 84.5693 129.972C86.768 129.327 91.5499 134.152 91.5499 134.152L80.1517 133.851Z" fill="white"/>
<path d="M91.5499 134.532C91.5499 134.532 91.5423 134.532 91.5398 134.532L80.1416 134.231C79.9721 134.225 79.8278 134.112 79.7848 133.947C79.7469 133.798 79.8025 133.641 79.924 133.55C79.9695 133.502 80.0935 133.342 80.2074 133.203C80.9259 132.292 82.6059 130.16 84.4655 129.613C86.8135 128.922 91.3171 133.378 91.8231 133.889C91.9319 134 91.9623 134.165 91.9016 134.306C91.8408 134.446 91.7042 134.534 91.5524 134.534L91.5499 134.532ZM80.9411 133.492L90.5808 133.747C88.9641 132.255 86.0621 129.929 84.6755 130.337C83.1524 130.785 81.6748 132.566 80.9411 133.492Z" fill="black"/>
<path d="M37.9847 101.546C37.9847 101.546 33.8707 94.1584 48.7023 93.2627C51.154 93.116 51.9459 93.4474 55.3995 95.4209C62.8128 99.6589 64.6497 98.2041 64.6497 98.2041L63.0607 103.322L37.9872 101.546H37.9847Z" fill="#3F526F"/>
<path d="M37.9847 101.546C37.9847 101.546 33.8707 94.1584 48.7023 93.2627C51.154 93.116 51.9459 93.4474 55.3995 95.4209C62.8128 99.6589 64.6497 98.2041 64.6497 98.2041L63.0607 103.322L37.9872 101.546H37.9847Z" fill="white" fill-opacity="0.16"/>
<path d="M39.7811 100.661C39.7204 100.661 39.6571 100.646 39.5989 100.615C39.4142 100.514 39.3459 100.284 39.4471 100.102C39.4876 100.028 43.5459 92.7922 52.1837 96.3546C52.3786 96.4356 52.4697 96.6557 52.3887 96.8505C52.3077 97.0453 52.0876 97.1364 51.8928 97.0555C43.8951 93.7562 40.2618 100.188 40.1125 100.464C40.0442 100.59 39.9127 100.661 39.7786 100.661H39.7811Z" fill="black"/>
<path d="M56.5811 129.815C56.5027 129.815 56.4242 129.793 56.3584 129.742C55.8524 129.373 43.9406 120.575 42.1619 110.789C42.124 110.584 42.2606 110.384 42.4681 110.349C42.673 110.311 42.8729 110.447 42.9083 110.655C44.6339 120.148 56.6848 129.044 56.8063 129.132C56.9758 129.256 57.0112 129.494 56.8898 129.664C56.8164 129.765 56.7 129.82 56.5836 129.82L56.5811 129.815Z" fill="white"/>
<path d="M61.6641 119.255C61.573 119.255 61.4845 119.222 61.4111 119.159C61.2542 119.019 61.2416 118.779 61.3807 118.622C65.6415 113.855 64.8774 107.125 64.8672 107.057C64.8419 106.849 64.9887 106.66 65.1987 106.634C65.4087 106.609 65.5959 106.756 65.6212 106.966C65.6566 107.254 66.441 114.101 61.9475 119.131C61.8716 119.214 61.7678 119.257 61.6641 119.257V119.255Z" fill="black"/>
<path d="M60.9886 117.904C60.8494 117.904 60.7153 117.828 60.6495 117.694L56.576 109.569C56.4824 109.382 56.5583 109.154 56.7456 109.061C56.9328 108.967 57.1605 109.043 57.2541 109.23L61.3276 117.355C61.4212 117.542 61.3453 117.77 61.1581 117.863C61.1024 117.891 61.0442 117.904 60.9886 117.904Z" fill="white"/>
<path d="M119.811 133.35H95.5298L113.532 105.663C114.093 104.798 115.075 104.274 116.127 104.274H135.835C137.087 104.274 137.846 105.615 137.178 106.642L119.811 133.35Z" fill="black"/>
<path d="M124.99 113.982C124.201 115.196 122.503 116.178 121.2 116.178C119.897 116.178 119.477 115.194 120.267 113.982C121.056 112.767 122.754 111.786 124.057 111.786C125.36 111.786 125.78 112.77 124.99 113.982Z" fill="white"/>
<path d="M74.4513 133.15H119.897V133.876C119.897 134.861 119.098 135.66 118.114 135.66H76.2351C75.2509 135.66 74.4513 134.861 74.4513 133.876V133.15Z" fill="black"/>
<path d="M118.549 133.755H97.6956C97.4856 133.755 97.316 133.585 97.316 133.375C97.316 133.165 97.4856 132.996 97.6956 132.996H118.549C118.759 132.996 118.928 133.165 118.928 133.375C118.928 133.585 118.759 133.755 118.549 133.755Z" fill="white"/>
<path d="M126.901 63.8122L126.162 61.1125L123.108 61.2517C122.825 60.6571 122.498 60.0929 122.126 59.5666L123.743 56.9758L121.754 55.0073L119.179 56.6545C118.642 56.2876 118.076 55.9637 117.486 55.6905L117.592 52.6341L114.885 51.9257L113.481 54.6354C112.838 54.5848 112.188 54.5899 111.53 54.6506L110.093 51.9535L107.394 52.6923L107.533 55.7461C106.938 56.0295 106.374 56.3559 105.848 56.7278L103.257 55.1111L101.288 57.0998L102.935 59.6754C102.569 60.2118 102.245 60.7786 101.971 61.3681L98.9151 61.2618L98.2066 63.969L100.916 65.3733C100.866 66.0159 100.871 66.6661 100.932 67.324L98.2345 68.7611L98.9733 71.4607L102.027 71.3216C102.31 71.9161 102.637 72.4804 103.009 73.0066L101.392 75.5975L103.381 77.5659L105.956 75.9188C106.493 76.2857 107.06 76.6095 107.649 76.8828L107.543 79.9392L110.25 80.6476L111.654 77.9378C112.297 77.9884 112.947 77.9834 113.605 77.9227L115.042 80.6198L117.742 79.881L117.603 76.8271C118.197 76.5437 118.761 76.2173 119.288 75.8454L121.878 77.4622L123.847 75.4735L122.2 72.8978C122.567 72.3614 122.89 71.7947 123.164 71.2052L126.22 71.3114L126.929 68.6042L124.219 67.2C124.269 66.5573 124.264 65.9071 124.204 65.2493L126.901 63.8122ZM114.47 73.2343C110.632 74.2843 106.67 72.0249 105.62 68.1893C104.57 64.3511 106.829 60.3889 110.665 59.3389C114.503 58.2889 118.465 60.5483 119.515 64.384C120.565 68.2222 118.306 72.1843 114.47 73.2343Z" fill="#3F526F"/>
<path d="M126.901 63.8122L126.162 61.1125L123.108 61.2517C122.825 60.6571 122.498 60.0929 122.126 59.5666L123.743 56.9758L121.754 55.0073L119.179 56.6545C118.642 56.2876 118.076 55.9637 117.486 55.6905L117.592 52.6341L114.885 51.9257L113.481 54.6354C112.838 54.5848 112.188 54.5899 111.53 54.6506L110.093 51.9535L107.394 52.6923L107.533 55.7461C106.938 56.0295 106.374 56.3559 105.848 56.7278L103.257 55.1111L101.288 57.0998L102.935 59.6754C102.569 60.2118 102.245 60.7786 101.971 61.3681L98.9151 61.2618L98.2066 63.969L100.916 65.3733C100.866 66.0159 100.871 66.6661 100.932 67.324L98.2345 68.7611L98.9733 71.4607L102.027 71.3216C102.31 71.9161 102.637 72.4804 103.009 73.0066L101.392 75.5975L103.381 77.5659L105.956 75.9188C106.493 76.2857 107.06 76.6095 107.649 76.8828L107.543 79.9392L110.25 80.6476L111.654 77.9378C112.297 77.9884 112.947 77.9834 113.605 77.9227L115.042 80.6198L117.742 79.881L117.603 76.8271C118.197 76.5437 118.761 76.2173 119.288 75.8454L121.878 77.4622L123.847 75.4735L122.2 72.8978C122.567 72.3614 122.89 71.7947 123.164 71.2052L126.22 71.3114L126.929 68.6042L124.219 67.2C124.269 66.5573 124.264 65.9071 124.204 65.2493L126.901 63.8122ZM114.47 73.2343C110.632 74.2843 106.67 72.0249 105.62 68.1893C104.57 64.3511 106.829 60.3889 110.665 59.3389C114.503 58.2889 118.465 60.5483 119.515 64.384C120.565 68.2222 118.306 72.1843 114.47 73.2343Z" fill="white" fill-opacity="0.16"/>
<path d="M109.056 80.344C109.023 80.344 108.993 80.3389 108.96 80.3313L106.252 79.6229C106.08 79.5774 105.964 79.4205 105.969 79.2434L106.065 76.4375C105.615 76.2173 105.177 75.9669 104.757 75.6911L102.391 77.2041C102.242 77.3002 102.047 77.28 101.921 77.1535L99.9322 75.1851C99.8057 75.0611 99.7829 74.8637 99.8765 74.7145L101.362 72.3361C101.086 71.9237 100.83 71.486 100.603 71.0306L97.7993 71.1571C97.6171 71.1647 97.4628 71.0483 97.4147 70.8788L96.6759 68.1792C96.6278 68.0071 96.7063 67.8275 96.8631 67.744L99.3401 66.4258C99.3047 65.9198 99.3022 65.4137 99.33 64.9153L96.8404 63.6249C96.6835 63.544 96.6025 63.3643 96.6481 63.1923L97.3565 60.4851C97.4021 60.313 97.5615 60.1941 97.736 60.2017L100.542 60.2978C100.762 59.8475 101.013 59.4098 101.288 58.9898L99.7753 56.6241C99.6792 56.4748 99.6994 56.28 99.8259 56.1535L101.794 54.1648C101.918 54.0383 102.116 54.0155 102.265 54.1092L104.643 55.5943C105.056 55.316 105.493 55.063 105.949 54.8353L105.822 52.0319C105.815 51.8548 105.931 51.6954 106.101 51.6499L108.8 50.9111C108.972 50.863 109.152 50.9414 109.235 51.0983L110.554 53.5778C111.06 53.5424 111.566 53.5399 112.062 53.5677L113.352 51.0781C113.433 50.9212 113.613 50.8402 113.785 50.8858L116.492 51.5942C116.664 51.6398 116.78 51.7966 116.775 51.9737L116.679 54.7796C117.129 54.9998 117.567 55.2502 117.987 55.526L120.353 54.013C120.502 53.9169 120.697 53.9371 120.823 54.0636L122.812 56.032C122.939 56.156 122.961 56.3534 122.868 56.5026L121.383 58.881C121.658 59.2934 121.914 59.7311 122.142 60.1865L124.945 60.06C125.122 60.0524 125.281 60.1688 125.327 60.3383L126.066 63.0379C126.114 63.21 126.035 63.3896 125.879 63.4731L123.399 64.7913C123.434 65.2973 123.437 65.8034 123.409 66.2993L125.899 67.5896C126.056 67.6706 126.137 67.8502 126.091 68.0223L125.383 70.7295C125.337 70.9016 125.178 71.018 125.003 71.0129L122.195 70.9167C121.975 71.3671 121.724 71.8073 121.448 72.2248L122.961 74.5905C123.057 74.7398 123.037 74.9346 122.911 75.0611L120.942 77.0498C120.818 77.1763 120.621 77.199 120.472 77.1054L118.093 75.6202C117.681 75.896 117.243 76.1516 116.788 76.3793L116.914 79.1852C116.922 79.3623 116.806 79.5217 116.636 79.5672L113.936 80.306C113.764 80.3541 113.585 80.2757 113.501 80.1188L112.183 77.6393C111.677 77.6747 111.171 77.6772 110.675 77.6494L109.385 80.139C109.319 80.2681 109.187 80.344 109.048 80.344H109.056ZM106.738 78.9651L108.858 79.5217L110.124 77.0801C110.194 76.9435 110.339 76.8651 110.49 76.8752C111.108 76.9233 111.74 76.9182 112.375 76.8625C112.527 76.8473 112.674 76.9283 112.745 77.0624L114.038 79.4939L116.15 78.9145L116.026 76.1642C116.019 76.0124 116.105 75.8707 116.241 75.8049C116.818 75.5317 117.365 75.2104 117.871 74.8561C117.995 74.7676 118.162 74.7651 118.291 74.8435L120.624 76.2983L122.164 74.7398L120.682 72.4196C120.601 72.2906 120.603 72.1261 120.689 71.9996C121.044 71.4835 121.357 70.9319 121.623 70.3626C121.686 70.2235 121.823 70.1349 121.98 70.1425L124.732 70.2361L125.289 68.1159L122.847 66.8508C122.711 66.78 122.632 66.6358 122.645 66.484C122.693 65.8666 122.688 65.2341 122.632 64.599C122.62 64.4472 122.698 64.3005 122.832 64.2296L125.264 62.9367L124.684 60.8241L121.934 60.9481C121.775 60.9531 121.641 60.8696 121.575 60.733C121.302 60.1561 120.983 59.6096 120.626 59.1036C120.537 58.9796 120.532 58.8126 120.613 58.6836L122.068 56.3508L120.51 54.81L118.19 56.2926C118.06 56.3736 117.896 56.3711 117.77 56.2851C117.251 55.9308 116.702 55.6171 116.133 55.3514C115.993 55.2882 115.907 55.1465 115.912 54.9947L116.009 52.2419L113.888 51.6853L112.623 54.1269C112.552 54.261 112.416 54.3419 112.256 54.3318C111.639 54.2837 111.004 54.2888 110.371 54.3445C110.22 54.3571 110.073 54.2787 110.002 54.1446L108.709 51.7131L106.594 52.2925L106.718 55.0428C106.726 55.1946 106.64 55.3363 106.503 55.402C105.929 55.6753 105.38 55.9941 104.874 56.3508C104.75 56.4394 104.583 56.4419 104.453 56.3635L102.121 54.9087L100.58 56.4672L102.063 58.7873C102.144 58.9164 102.141 59.0808 102.055 59.2073C101.701 59.726 101.387 60.2751 101.121 60.8443C101.058 60.9835 100.916 61.0695 100.765 61.0645L98.0118 60.9683L97.4552 63.0886L99.8967 64.3536C100.033 64.4245 100.112 64.5687 100.102 64.7205C100.054 65.3353 100.059 65.9704 100.114 66.6054C100.127 66.7572 100.049 66.904 99.9145 66.9748L97.4855 68.2677L98.0649 70.3804L100.815 70.2564C100.962 70.2488 101.109 70.3348 101.174 70.4714C101.448 71.0483 101.769 71.5948 102.123 72.1008C102.212 72.2248 102.214 72.3918 102.136 72.5208L100.681 74.8536L102.24 76.3945L104.56 74.9118C104.689 74.8308 104.853 74.8334 104.98 74.9194C105.496 75.2736 106.047 75.5873 106.617 75.853C106.756 75.9163 106.842 76.0579 106.837 76.2098L106.741 78.9625L106.738 78.9651ZM111.361 73.1939C110.06 73.1939 108.777 72.8573 107.616 72.1945C105.855 71.19 104.593 69.5631 104.059 67.6099C103.525 65.6566 103.78 63.6098 104.785 61.8513C105.787 60.0904 107.416 58.8278 109.37 58.294C111.323 57.7601 113.37 58.0157 115.128 59.0201C116.889 60.0246 118.152 61.6514 118.685 63.6047C119.222 65.5579 118.964 67.6048 117.959 69.3632C116.957 71.1242 115.328 72.3867 113.375 72.9206C112.709 73.1028 112.031 73.1939 111.361 73.1939ZM111.384 58.7798C110.779 58.7798 110.169 58.8607 109.569 59.0252C107.811 59.5059 106.346 60.6445 105.443 62.2283C104.54 63.8122 104.307 65.6516 104.79 67.41C105.271 69.1684 106.409 70.6334 107.993 71.5366C109.577 72.4399 111.419 72.6726 113.175 72.1894C114.933 71.7087 116.398 70.5701 117.301 68.9863C118.205 67.4024 118.437 65.563 117.954 63.8046C117.474 62.0461 116.335 60.5812 114.751 59.6779C113.709 59.0834 112.552 58.7798 111.381 58.7798H111.384Z" fill="black"/>
<path d="M186.379 19.0721L186.037 17.8222L184.625 17.8855C184.494 17.6097 184.342 17.3491 184.173 17.1062L184.921 15.9069L184 14.9961L182.809 15.7576C182.561 15.5881 182.298 15.4389 182.027 15.3123L182.075 13.898L180.823 13.5691L180.172 14.824C179.876 14.8013 179.573 14.8038 179.269 14.8316L178.604 13.5843L177.354 13.9258L177.417 15.3376C177.141 15.4692 176.881 15.621 176.638 15.7905L175.439 15.0416L174.528 15.9626L175.289 17.1543C175.12 17.4022 174.97 17.6654 174.844 17.9361L173.43 17.888L173.101 19.1404L174.356 19.7907C174.333 20.0867 174.335 20.3903 174.363 20.6939L173.116 21.3593L173.457 22.6092L174.869 22.546C175.001 22.8217 175.153 23.0823 175.322 23.3252L174.573 24.5245L175.494 25.4354L176.686 24.6738C176.934 24.8433 177.197 24.9926 177.468 25.1191L177.42 26.5334L178.672 26.8623L179.322 25.6074C179.618 25.6302 179.922 25.6276 180.226 25.5998L180.891 26.8472L182.141 26.5056L182.078 25.0938C182.353 24.9622 182.614 24.8104 182.857 24.6409L184.056 25.3898L184.967 24.4688L184.205 23.2772C184.375 23.0292 184.524 22.7661 184.651 22.4954L186.065 22.5434L186.394 21.291L185.139 20.6408C185.162 20.3448 185.159 20.0411 185.131 19.7375L186.379 19.0721ZM180.628 23.4315C178.852 23.9173 177.017 22.8723 176.532 21.0962C176.046 19.3201 177.091 17.4857 178.867 16.9999C180.643 16.5142 182.477 17.5591 182.963 19.3352C183.449 21.1114 182.404 22.9457 180.628 23.4315Z" fill="#3F526F"/>
<path d="M186.379 19.0721L186.037 17.8222L184.625 17.8855C184.494 17.6097 184.342 17.3491 184.173 17.1062L184.921 15.9069L184 14.9961L182.809 15.7576C182.561 15.5881 182.298 15.4389 182.027 15.3123L182.075 13.898L180.823 13.5691L180.172 14.824C179.876 14.8013 179.573 14.8038 179.269 14.8316L178.604 13.5843L177.354 13.9258L177.417 15.3376C177.141 15.4692 176.881 15.621 176.638 15.7905L175.439 15.0416L174.528 15.9626L175.289 17.1543C175.12 17.4022 174.97 17.6654 174.844 17.9361L173.43 17.888L173.101 19.1404L174.356 19.7907C174.333 20.0867 174.335 20.3903 174.363 20.6939L173.116 21.3593L173.457 22.6092L174.869 22.546C175.001 22.8217 175.153 23.0823 175.322 23.3252L174.573 24.5245L175.494 25.4354L176.686 24.6738C176.934 24.8433 177.197 24.9926 177.468 25.1191L177.42 26.5334L178.672 26.8623L179.322 25.6074C179.618 25.6302 179.922 25.6276 180.226 25.5998L180.891 26.8472L182.141 26.5056L182.078 25.0938C182.353 24.9622 182.614 24.8104 182.857 24.6409L184.056 25.3898L184.967 24.4688L184.205 23.2772C184.375 23.0292 184.524 22.7661 184.651 22.4954L186.065 22.5434L186.394 21.291L185.139 20.6408C185.162 20.3448 185.159 20.0411 185.131 19.7375L186.379 19.0721ZM180.628 23.4315C178.852 23.9173 177.017 22.8723 176.532 21.0962C176.046 19.3201 177.091 17.4857 178.867 16.9999C180.643 16.5142 182.477 17.5591 182.963 19.3352C183.449 21.1114 182.404 22.9457 180.628 23.4315Z" fill="white" fill-opacity="0.16"/>
<path d="M178.12 26.923C178.088 26.923 178.057 26.9179 178.024 26.9103L176.772 26.5814C176.6 26.5358 176.483 26.379 176.489 26.2019L176.529 25.033C176.392 24.9621 176.261 24.8862 176.132 24.8052L175.148 25.4352C174.998 25.5314 174.804 25.5111 174.677 25.3846L173.756 24.4738C173.63 24.3498 173.607 24.1525 173.7 24.0032L174.318 23.0139C174.237 22.8849 174.158 22.7533 174.087 22.6167L172.921 22.6698C172.747 22.6774 172.585 22.561 172.539 22.3915L172.197 21.1416C172.149 20.9696 172.228 20.7899 172.385 20.7064L173.417 20.1574C173.409 20.0031 173.409 19.8513 173.414 19.6995L172.377 19.1631C172.22 19.0821 172.139 18.9025 172.185 18.7304L172.514 17.478C172.559 17.306 172.716 17.187 172.893 17.1946L174.062 17.2351C174.133 17.101 174.209 16.9669 174.29 16.8379L173.66 15.8537C173.564 15.7044 173.584 15.5096 173.71 15.3831L174.621 14.4621C174.745 14.3356 174.94 14.3128 175.092 14.4064L176.081 15.0238C176.21 14.9428 176.342 14.8644 176.478 14.7936L176.425 13.6272C176.418 13.4501 176.534 13.2907 176.704 13.2451L177.954 12.9036C178.126 12.8555 178.305 12.9339 178.389 13.0908L178.938 14.1231C179.092 14.1155 179.244 14.1155 179.396 14.1205L179.932 13.0832C180.013 12.9263 180.195 12.8454 180.365 12.8909L181.617 13.2198C181.789 13.2654 181.906 13.4222 181.9 13.5993L181.86 14.7683C181.997 14.8391 182.128 14.915 182.257 14.9934L183.241 14.3634C183.391 14.2673 183.586 14.2875 183.712 14.414L184.633 15.3249C184.76 15.4489 184.782 15.6462 184.689 15.7955L184.071 16.7848C184.152 16.9138 184.231 17.0454 184.302 17.182L185.468 17.1289C185.645 17.1213 185.804 17.2377 185.85 17.4072L186.192 18.657C186.24 18.8291 186.161 19.0087 186.004 19.0922L184.972 19.6413C184.98 19.7956 184.98 19.9474 184.975 20.0992L186.012 20.6356C186.169 20.7166 186.25 20.8962 186.204 21.0683L185.875 22.3207C185.83 22.4927 185.67 22.6091 185.496 22.604L184.327 22.5636C184.256 22.6977 184.18 22.8317 184.099 22.9608L184.729 23.945C184.825 24.0943 184.805 24.2891 184.679 24.4156L183.768 25.3366C183.644 25.4631 183.449 25.4858 183.297 25.3922L182.308 24.7749C182.179 24.8558 182.047 24.9343 181.911 25.0051L181.964 26.1715C181.971 26.3486 181.855 26.508 181.685 26.5536L180.436 26.8951C180.264 26.9432 180.084 26.8648 180 26.7079L179.451 25.6756C179.297 25.6832 179.145 25.6832 178.993 25.6781L178.457 26.7155C178.391 26.8445 178.26 26.9204 178.12 26.9204V26.923ZM177.258 25.9261L177.923 26.1007L178.434 25.1164C178.505 24.9798 178.649 24.9014 178.801 24.9115C179.074 24.9317 179.358 24.9317 179.639 24.9064C179.788 24.8913 179.937 24.9722 180.008 25.1063L180.529 26.088L181.192 25.9058L181.141 24.7951C181.134 24.6433 181.22 24.5016 181.357 24.4358C181.612 24.3144 181.855 24.1727 182.08 24.0133C182.204 23.9248 182.371 23.9222 182.5 24.0007L183.441 24.5877L183.925 24.0993L183.325 23.1632C183.244 23.0342 183.247 22.8697 183.333 22.7432C183.492 22.513 183.631 22.2675 183.747 22.0145C183.811 21.8754 183.947 21.7893 184.104 21.7944L185.215 21.8323L185.39 21.1669L184.405 20.6558C184.269 20.585 184.19 20.4408 184.203 20.289C184.223 20.0132 184.223 19.7323 184.198 19.4515C184.185 19.2997 184.264 19.153 184.398 19.0821L185.379 18.5609L185.197 17.898L184.087 17.9486C183.927 17.9562 183.793 17.8702 183.727 17.7336C183.606 17.478 183.464 17.2326 183.305 17.0099C183.216 16.886 183.211 16.719 183.292 16.5899L183.879 15.6487L183.391 15.1655L182.455 15.7651C182.326 15.8461 182.161 15.8436 182.035 15.7575C181.804 15.6007 181.559 15.4615 181.306 15.3426C181.167 15.2793 181.081 15.1377 181.086 14.9858L181.124 13.8751L180.458 13.7005L179.947 14.6848C179.876 14.8189 179.735 14.8998 179.58 14.8897C179.307 14.8695 179.024 14.8695 178.743 14.8948C178.589 14.9099 178.444 14.829 178.373 14.6949L177.852 13.7132L177.189 13.8954L177.24 15.0061C177.248 15.1579 177.162 15.2996 177.025 15.3654C176.769 15.4868 176.527 15.6285 176.301 15.7879C176.177 15.8764 176.01 15.879 175.881 15.8005L174.94 15.2136L174.457 15.7019L175.057 16.638C175.137 16.767 175.135 16.9315 175.049 17.058C174.892 17.2883 174.75 17.5337 174.634 17.7867C174.571 17.9258 174.442 18.0119 174.277 18.0068L173.167 17.9689L172.992 18.6343L173.976 19.1454C174.113 19.2162 174.191 19.3604 174.179 19.5122C174.158 19.788 174.158 20.0689 174.184 20.3497C174.196 20.5015 174.118 20.6483 173.984 20.7191L173.002 21.2403L173.184 21.9032L174.295 21.8526C174.452 21.845 174.588 21.931 174.654 22.0677C174.776 22.3232 174.917 22.5686 175.077 22.7913C175.165 22.9152 175.17 23.0822 175.089 23.2113L174.502 24.1525L174.991 24.6357L175.927 24.0361C176.056 23.9551 176.22 23.9577 176.347 24.0437C176.577 24.2005 176.823 24.3422 177.076 24.4586C177.215 24.5219 177.301 24.6636 177.296 24.8154L177.258 25.9261ZM179.193 23.6136C177.561 23.6136 176.061 22.5281 175.611 20.881C175.347 19.9246 175.474 18.9227 175.967 18.0625C176.458 17.1997 177.255 16.5824 178.212 16.3192C180.188 15.7778 182.232 16.9442 182.773 18.9202C183.037 19.8766 182.91 20.8785 182.419 21.7387C181.928 22.6015 181.131 23.2189 180.175 23.482C179.849 23.5705 179.52 23.6136 179.196 23.6136H179.193ZM179.193 16.9467C178.935 16.9467 178.675 16.9796 178.414 17.053C177.652 17.2604 177.017 17.7538 176.628 18.4395C176.238 19.1251 176.137 19.9221 176.344 20.6837C176.774 22.2549 178.404 23.1834 179.973 22.7533C180.734 22.5458 181.367 22.0525 181.759 21.3668C182.148 20.6811 182.25 19.8842 182.042 19.1226C181.683 17.812 180.491 16.9492 179.193 16.9492V16.9467Z" fill="black"/>
<path d="M172.504 36.3401L171.239 31.7201L166.014 31.958C165.531 30.9408 164.969 29.9769 164.334 29.0736L167.099 24.6434L163.694 21.2758L159.286 24.0943C158.368 23.4643 157.401 22.9128 156.392 22.4447L156.571 17.2149L151.939 16.0005L149.535 20.6382C148.437 20.5522 147.321 20.5598 146.198 20.661L143.741 16.0435L139.121 17.3086L139.359 22.5333C138.342 23.0165 137.378 23.5782 136.477 24.2133L132.047 21.4478L128.679 24.8534L131.498 29.2608C130.868 30.1793 130.316 31.1458 129.848 32.1553L124.621 31.9757L123.407 36.6083L128.044 39.0119C127.958 40.11 127.966 41.2258 128.067 42.3492L123.45 44.8059L124.715 49.4259L129.939 49.1881C130.423 50.2052 130.984 51.1692 131.619 52.0724L128.854 56.5027L132.26 59.8702L136.667 57.0517C137.585 57.6817 138.552 58.2333 139.561 58.7013L139.382 63.9286L144.014 65.143L146.418 60.5053C147.516 60.5913 148.632 60.5837 149.755 60.4825L152.212 65.1L156.832 63.8349L156.594 58.6102C157.611 58.127 158.575 57.5653 159.479 56.9302L163.909 59.6957L167.276 56.2901L164.458 51.8827C165.088 50.9642 165.639 49.9977 166.107 48.9882L171.337 49.1678L172.552 44.5352L167.914 42.1316C168 41.0335 167.992 39.9177 167.891 38.7943L172.509 36.3376L172.504 36.3401ZM151.233 52.4621C144.667 54.261 137.884 50.3949 136.088 43.8267C134.289 37.2611 138.155 30.4778 144.723 28.6815C151.289 26.8825 158.072 30.7486 159.868 37.3168C161.667 43.8824 157.801 50.6657 151.233 52.4621Z" fill="#3F526F"/>
<path d="M172.504 36.3401L171.239 31.7201L166.014 31.958C165.531 30.9408 164.969 29.9769 164.334 29.0736L167.099 24.6434L163.694 21.2758L159.286 24.0943C158.368 23.4643 157.401 22.9128 156.392 22.4447L156.571 17.2149L151.939 16.0005L149.535 20.6382C148.437 20.5522 147.321 20.5598 146.198 20.661L143.741 16.0435L139.121 17.3086L139.359 22.5333C138.342 23.0165 137.378 23.5782 136.477 24.2133L132.047 21.4478L128.679 24.8534L131.498 29.2608C130.868 30.1793 130.316 31.1458 129.848 32.1553L124.621 31.9757L123.407 36.6083L128.044 39.0119C127.958 40.11 127.966 41.2258 128.067 42.3492L123.45 44.8059L124.715 49.4259L129.939 49.1881C130.423 50.2052 130.984 51.1692 131.619 52.0724L128.854 56.5027L132.26 59.8702L136.667 57.0517C137.585 57.6817 138.552 58.2333 139.561 58.7013L139.382 63.9286L144.014 65.143L146.418 60.5053C147.516 60.5913 148.632 60.5837 149.755 60.4825L152.212 65.1L156.832 63.8349L156.594 58.6102C157.611 58.127 158.575 57.5653 159.479 56.9302L163.909 59.6957L167.276 56.2901L164.458 51.8827C165.088 50.9642 165.639 49.9977 166.107 48.9882L171.337 49.1678L172.552 44.5352L167.914 42.1316C168 41.0335 167.992 39.9177 167.891 38.7943L172.509 36.3376L172.504 36.3401ZM151.233 52.4621C144.667 54.261 137.884 50.3949 136.088 43.8267C134.289 37.2611 138.155 30.4778 144.723 28.6815C151.289 26.8825 158.072 30.7486 159.868 37.3168C161.667 43.8824 157.801 50.6657 151.233 52.4621Z" fill="white" fill-opacity="0.16"/>
<path d="M141.965 64.3561C141.932 64.3561 141.902 64.3511 141.869 64.3435L137.236 63.129C137.064 63.0835 136.948 62.9266 136.953 62.7495L137.125 57.7702C136.257 57.3527 135.412 56.872 134.613 56.3382L130.415 59.0226C130.266 59.1188 130.068 59.0985 129.944 58.972L126.539 55.6044C126.412 55.4805 126.39 55.2831 126.483 55.1338L129.117 50.9136C128.578 50.1267 128.09 49.2867 127.66 48.4088L122.686 48.6339C122.511 48.6415 122.349 48.5252 122.304 48.3556L121.038 43.7356C120.99 43.5636 121.069 43.3839 121.226 43.3005L125.623 40.9601C125.547 39.986 125.54 39.0144 125.603 38.0631L121.188 35.7733C121.031 35.6924 120.95 35.5127 120.995 35.3407L122.21 30.708C122.255 30.536 122.415 30.4196 122.589 30.4247L127.569 30.5967C127.986 29.7289 128.467 28.8838 129.001 28.0843L126.316 23.8868C126.22 23.7376 126.24 23.5427 126.367 23.4162L129.734 20.0107C129.858 19.8842 130.053 19.8614 130.205 19.955L134.425 22.5889C135.212 22.05 136.052 21.5617 136.928 21.1315L136.702 16.1573C136.695 15.9802 136.811 15.8208 136.981 15.7753L141.598 14.5102C141.77 14.4621 141.95 14.5406 142.033 14.6974L144.374 19.0948C145.345 19.0189 146.319 19.0113 147.271 19.0745L149.56 14.6595C149.641 14.5026 149.824 14.4217 149.993 14.4672L154.626 15.6817C154.798 15.7272 154.914 15.8841 154.909 16.0612L154.737 21.0405C155.605 21.4579 156.447 21.9386 157.25 22.4725L161.447 19.788C161.596 19.6919 161.794 19.7121 161.918 19.8386L165.323 23.2062C165.45 23.3302 165.472 23.5276 165.379 23.6768L162.745 27.8971C163.284 28.6839 163.772 29.5239 164.202 30.4019L169.177 30.1767C169.354 30.1691 169.513 30.2855 169.559 30.455L170.824 35.075C170.872 35.2471 170.793 35.4267 170.636 35.5102L166.239 37.8506C166.315 38.8247 166.323 39.7962 166.259 40.7476L170.677 43.0373C170.834 43.1183 170.915 43.2979 170.869 43.47L169.655 48.1026C169.609 48.2747 169.46 48.3936 169.275 48.386L164.296 48.2139C163.878 49.0818 163.398 49.9268 162.864 50.7264L165.548 54.9238C165.644 55.0731 165.624 55.2679 165.498 55.3944L162.13 58.8C162.006 58.9265 161.809 58.9492 161.66 58.8556L157.439 56.2218C156.652 56.7607 155.812 57.249 154.934 57.6791L155.16 62.6533C155.167 62.8305 155.051 62.9898 154.881 63.0354L150.261 64.3005C150.089 64.3485 149.91 64.2701 149.826 64.1132L147.486 59.7159C146.512 59.7918 145.54 59.7994 144.589 59.7361L142.299 64.1512C142.233 64.2802 142.102 64.3561 141.963 64.3561H141.965ZM137.722 62.4712L141.768 63.5313L144.032 59.1618C144.103 59.0277 144.247 58.9467 144.399 58.9568C145.469 59.0403 146.57 59.0327 147.67 58.9341C147.822 58.9189 147.969 58.9999 148.04 59.1339L150.355 63.4832L154.388 62.3776L154.165 57.4565C154.158 57.3047 154.244 57.163 154.38 57.0972C155.38 56.6215 156.331 56.0674 157.209 55.4501C157.333 55.3615 157.5 55.359 157.629 55.4374L161.804 58.0435L164.744 55.0706L162.09 50.9186C162.009 50.7896 162.011 50.6251 162.097 50.4986C162.712 49.6005 163.259 48.6466 163.717 47.6573C163.78 47.5182 163.914 47.4321 164.073 47.4372L168.999 47.6067L170.06 43.5611L165.69 41.2966C165.553 41.2258 165.475 41.0815 165.488 40.9297C165.571 39.8595 165.563 38.7589 165.465 37.6583C165.452 37.5065 165.531 37.3597 165.665 37.2889L170.014 34.9738L168.911 30.9408L163.99 31.1635C163.828 31.1711 163.696 31.085 163.63 30.9484C163.155 29.949 162.601 28.9977 161.983 28.1197C161.895 27.9958 161.89 27.8288 161.971 27.6997L164.577 23.525L161.604 20.585L157.452 23.2391C157.323 23.3201 157.158 23.3176 157.032 23.2315C156.134 22.6167 155.177 22.0702 154.193 21.6123C154.054 21.549 153.968 21.4073 153.973 21.2555L154.143 16.3294L150.097 15.2692L147.832 19.6388C147.762 19.7729 147.622 19.8538 147.466 19.8437C146.393 19.7602 145.292 19.7678 144.194 19.8665C144.045 19.8817 143.896 19.8007 143.825 19.6666L141.51 15.3173L137.477 16.423L137.699 21.3441C137.707 21.4959 137.621 21.6376 137.484 21.7033C136.487 22.179 135.536 22.7331 134.656 23.3505C134.532 23.439 134.365 23.4415 134.236 23.3631L130.061 20.7571L127.121 23.73L129.775 27.8819C129.856 28.0109 129.853 28.1754 129.767 28.3019C129.153 29.2001 128.606 30.1539 128.148 31.1432C128.085 31.2824 127.956 31.3684 127.791 31.3633L122.865 31.1938L121.805 35.2395L126.175 37.5039C126.311 37.5748 126.39 37.719 126.377 37.8708C126.293 38.9411 126.301 40.0417 126.4 41.1423C126.412 41.2941 126.334 41.4408 126.2 41.5117L121.851 43.8267L122.956 47.8597L127.877 47.6371C128.034 47.6295 128.171 47.7155 128.237 47.8521C128.712 48.849 129.266 49.8029 129.884 50.6808C129.972 50.8048 129.975 50.9718 129.894 51.1008L127.288 55.2755L130.261 58.2155L134.413 55.5614C134.542 55.4805 134.706 55.483 134.833 55.569C135.728 56.1838 136.685 56.7303 137.674 57.1883C137.813 57.2515 137.899 57.3932 137.894 57.545L137.725 62.4712H137.722ZM145.932 52.1129C140.348 52.1129 135.217 48.3986 133.671 42.759C131.822 36.0011 135.814 28.9977 142.572 27.1482C149.33 25.2986 156.334 29.2912 158.183 36.0491C160.033 42.8071 156.04 49.8105 149.282 51.66C148.164 51.9661 147.038 52.1129 145.93 52.1129H145.932ZM145.925 27.4543C144.882 27.4543 143.825 27.5909 142.772 27.8794C136.417 29.6201 132.664 36.2035 134.403 42.5591C136.143 48.9123 142.727 52.667 149.082 50.9288C155.438 49.188 159.19 42.6047 157.452 36.249C156 30.9459 151.175 27.4543 145.925 27.4543Z" fill="black"/>
<path d="M172.445 146.099H139.27C137.231 146.099 135.574 144.44 135.574 142.403V138.076C135.574 136.457 134.256 135.139 132.637 135.139H122.632C122.422 135.139 122.253 134.969 122.253 134.759C122.253 134.549 122.422 134.38 122.632 134.38H132.637C134.676 134.38 136.333 136.04 136.333 138.076V142.403C136.333 144.022 137.651 145.34 139.27 145.34H172.445C174.065 145.34 175.383 144.022 175.383 142.403V92.4354C175.383 92.2254 175.552 92.0559 175.762 92.0559C175.972 92.0559 176.142 92.2254 176.142 92.4354V142.403C176.142 144.442 174.485 146.099 172.445 146.099Z" fill="black"/>
<path d="M184.658 179.722H164.286C164.286 179.722 161.493 196.712 173.652 198.068C185.812 199.424 184.658 179.722 184.658 179.722Z" fill="white"/>
<path d="M174.819 198.513C174.427 198.513 174.022 198.49 173.609 198.445C170.606 198.111 168.23 196.816 166.548 194.594C162.411 189.132 163.846 180.043 163.909 179.661C163.939 179.479 164.099 179.343 164.283 179.343H184.656C184.856 179.343 185.023 179.499 185.035 179.699C185.063 180.175 185.658 191.411 180.499 196.307C178.953 197.772 177.045 198.513 174.816 198.513H174.819ZM164.615 180.102C164.402 181.759 163.633 189.491 167.155 194.139C168.706 196.186 170.907 197.38 173.693 197.691C176.215 197.972 178.328 197.322 179.978 195.758C184.388 191.573 184.35 182.065 184.294 180.102H164.615Z" fill="black"/>
<path d="M178.361 176.099C179.474 176.132 181.847 176.167 184.079 174.647C184.906 174.082 187.173 172.536 186.963 170.505C186.781 168.762 184.828 167.157 182.176 166.869C185.321 167.241 187.851 164.885 187.856 162.449C187.859 160.584 186.379 158.732 184.193 158.117C187.583 155.557 189.362 151.428 188.8 147.331C188.254 143.346 185.493 139.425 181.329 138.213C180.805 138.061 176.279 136.821 173.02 139.597C170.285 141.927 170.254 145.545 170.232 148.009C170.196 152.397 171.955 155.729 173.02 157.401C172.797 157.386 170.548 156.647 168.445 158.515C166.302 160.417 166.199 164.792 167.241 166.525C168.334 168.336 170.968 167.954 171.436 168.086C169.465 169.824 169.536 171.274 169.556 171.547C169.779 174.376 174.91 175.998 178.361 176.096V176.099Z" fill="#3F526F"/>
<path d="M178.361 176.099C179.474 176.132 181.847 176.167 184.079 174.647C184.906 174.082 187.173 172.536 186.963 170.505C186.781 168.762 184.828 167.157 182.176 166.869C185.321 167.241 187.851 164.885 187.856 162.449C187.859 160.584 186.379 158.732 184.193 158.117C187.583 155.557 189.362 151.428 188.8 147.331C188.254 143.346 185.493 139.425 181.329 138.213C180.805 138.061 176.279 136.821 173.02 139.597C170.285 141.927 170.254 145.545 170.232 148.009C170.196 152.397 171.955 155.729 173.02 157.401C172.797 157.386 170.548 156.647 168.445 158.515C166.302 160.417 166.199 164.792 167.241 166.525C168.334 168.336 170.968 167.954 171.436 168.086C169.465 169.824 169.536 171.274 169.556 171.547C169.779 174.376 174.91 175.998 178.361 176.096V176.099Z" fill="white" fill-opacity="0.16"/>
<path d="M177.235 178.206C177.048 178.206 176.886 178.067 176.86 177.878C174.857 163.079 179.532 146.405 179.58 146.241C179.639 146.039 179.846 145.922 180.048 145.98C180.251 146.039 180.367 146.249 180.309 146.448C180.261 146.613 175.628 163.14 177.612 177.776C177.64 177.984 177.496 178.176 177.286 178.204C177.268 178.204 177.25 178.206 177.235 178.206Z" fill="white"/>
<path d="M174.143 176.453C174.606 175.322 176.61 170.095 174.009 165.69C173.475 164.784 171.686 161.756 169.093 161.968C167.157 162.128 165.938 163.995 165.67 164.427C166.449 161.586 165.05 158.709 162.715 157.715C159.954 156.541 156.288 158.165 155.273 161.568C154.59 161.376 152.748 160.956 150.889 161.834C148.44 162.99 146.965 165.918 147.301 169.144C148.321 172.602 151.481 174.72 154.477 174.325C157.73 173.898 159.284 170.705 159.393 170.472C158.884 171.269 158.14 172.752 158.596 174.194C159.362 176.615 163.17 177.817 165.905 177.119C168.443 176.471 169.176 174.409 171.221 174.594C172.567 174.715 173.566 175.73 174.146 176.453H174.143Z" fill="white"/>
<path d="M174.348 177.986C174.168 177.986 174.007 177.857 173.974 177.673C173.918 177.361 172.544 169.994 165.675 167.38C160.744 165.505 156.311 167.383 155.071 168.002C154.884 168.096 154.656 168.02 154.563 167.833C154.469 167.646 154.545 167.418 154.732 167.324C156.043 166.669 160.726 164.685 165.946 166.672C173.212 169.435 174.664 177.212 174.723 177.541C174.758 177.749 174.621 177.943 174.414 177.981C174.391 177.986 174.368 177.986 174.348 177.986Z" fill="#3F526F" fill-opacity="0.16"/>
<path d="M36.7095 21.5971C35.2016 21.5971 33.977 20.37 33.977 18.8646C33.977 17.3592 35.2041 16.1321 36.7095 16.1321C38.2149 16.1321 39.4421 17.3592 39.4421 18.8646C39.4421 20.37 38.2149 21.5971 36.7095 21.5971ZM36.7095 16.8911C35.6216 16.8911 34.736 17.7767 34.736 18.8646C34.736 19.9526 35.6216 20.8381 36.7095 20.8381C37.7975 20.8381 38.683 19.9526 38.683 18.8646C38.683 17.7767 37.7975 16.8911 36.7095 16.8911Z" fill="black"/>
<path d="M190.478 176.909C190.268 176.909 190.098 176.739 190.098 176.529V174.535C190.098 174.325 190.268 174.156 190.478 174.156C190.688 174.156 190.857 174.325 190.857 174.535V176.529C190.857 176.739 190.688 176.909 190.478 176.909Z" fill="black"/>
<path d="M190.478 181.556C190.268 181.556 190.098 181.387 190.098 181.177V179.183C190.098 178.973 190.268 178.804 190.478 178.804C190.688 178.804 190.857 178.973 190.857 179.183V181.177C190.857 181.387 190.688 181.556 190.478 181.556Z" fill="black"/>
<path d="M189.152 178.234H187.158C186.948 178.234 186.779 178.065 186.779 177.855C186.779 177.645 186.948 177.475 187.158 177.475H189.152C189.362 177.475 189.531 177.645 189.531 177.855C189.531 178.065 189.362 178.234 189.152 178.234Z" fill="black"/>
<path d="M193.8 178.234H191.806C191.596 178.234 191.426 178.065 191.426 177.855C191.426 177.645 191.596 177.475 191.806 177.475H193.8C194.01 177.475 194.179 177.645 194.179 177.855C194.179 178.065 194.01 178.234 193.8 178.234Z" fill="black"/>
<path d="M162.292 11.3274C162.082 11.3274 161.913 11.1578 161.913 10.9478V8.9541C161.913 8.7441 162.082 8.57458 162.292 8.57458C162.502 8.57458 162.672 8.7441 162.672 8.9541V10.9478C162.672 11.1578 162.502 11.3274 162.292 11.3274Z" fill="black"/>
<path d="M162.292 15.9752C162.082 15.9752 161.913 15.8057 161.913 15.5957V13.6019C161.913 13.3919 162.082 13.2224 162.292 13.2224C162.502 13.2224 162.672 13.3919 162.672 13.6019V15.5957C162.672 15.8057 162.502 15.9752 162.292 15.9752Z" fill="black"/>
<path d="M160.966 12.6531H158.973C158.763 12.6531 158.593 12.4836 158.593 12.2736C158.593 12.0636 158.763 11.894 158.973 11.894H160.966C161.176 11.894 161.346 12.0636 161.346 12.2736C161.346 12.4836 161.176 12.6531 160.966 12.6531Z" fill="black"/>
<path d="M165.614 12.6531H163.62C163.41 12.6531 163.241 12.4836 163.241 12.2736C163.241 12.0636 163.41 11.894 163.62 11.894H165.614C165.824 11.894 165.994 12.0636 165.994 12.2736C165.994 12.4836 165.824 12.6531 165.614 12.6531Z" fill="black"/>
<path d="M36.3351 191.634C34.7487 191.634 33.4558 190.343 33.4558 188.755C33.4558 187.166 34.7462 185.875 36.3351 185.875C37.924 185.875 39.2144 187.166 39.2144 188.755C39.2144 190.343 37.924 191.634 36.3351 191.634ZM36.3351 186.637C35.1662 186.637 34.2148 187.588 34.2148 188.757C34.2148 189.926 35.1662 190.877 36.3351 190.877C37.504 190.877 38.4553 189.926 38.4553 188.757C38.4553 187.588 37.504 186.637 36.3351 186.637Z" fill="black"/>
<path d="M46.5517 186.854C46.4657 186.854 46.3797 186.827 46.3088 186.768C46.2253 186.7 37.9215 179.765 28.9395 167.208C28.8181 167.039 28.856 166.801 29.0281 166.679C29.1976 166.558 29.4354 166.596 29.5569 166.768C38.4756 179.236 46.7111 186.116 46.7921 186.184C46.954 186.318 46.9768 186.556 46.8427 186.718C46.7668 186.809 46.6605 186.854 46.5492 186.854H46.5517Z" fill="black"/>
<path d="M24.8256 167.365C24.7066 167.365 24.5928 167.309 24.5169 167.208C23.9931 166.482 23.4694 165.741 22.9583 165.002C22.8394 164.83 22.8824 164.592 23.0545 164.473C23.2265 164.354 23.4643 164.397 23.5833 164.569C24.0918 165.303 24.613 166.042 25.1342 166.763C25.2582 166.932 25.2177 167.17 25.0482 167.292C24.9799 167.34 24.904 167.362 24.8256 167.362V167.365Z" fill="black"/>
<path d="M37.5015 182.166C37.4104 182.166 37.3193 182.133 37.2459 182.067C37.1877 182.014 31.3963 176.724 24.5194 167.208C24.3954 167.039 24.4359 166.801 24.6054 166.679C24.775 166.555 25.0128 166.596 25.1342 166.765C31.9605 176.213 37.6988 181.455 37.757 181.508C37.9113 181.65 37.924 181.89 37.7823 182.045C37.7064 182.128 37.6052 182.169 37.5015 182.169V182.166Z" fill="black"/>
<path d="M4.26581 45.7293C4.22026 45.7293 4.17472 45.7218 4.12918 45.704C3.93436 45.6281 3.83568 45.4105 3.90906 45.2132C3.92677 45.1651 5.75605 40.4313 9.50568 35.032C12.972 30.0401 18.8368 23.4364 27.0951 20.3219C27.2924 20.2485 27.51 20.3472 27.5834 20.542C27.6568 20.7393 27.5581 20.9569 27.3633 21.0303C11.8916 26.8648 4.69087 45.2967 4.62002 45.4839C4.56183 45.6357 4.41761 45.7268 4.26581 45.7268V45.7293Z" fill="black"/>
<path d="M4.26578 37.6734C4.22277 37.6734 4.17976 37.6658 4.13675 37.6507C3.9394 37.5798 3.83819 37.3622 3.90903 37.1649C3.97735 36.9751 5.65229 32.4437 10.2394 26.9938C14.4647 21.974 22.0626 15.2338 34.2502 11.6385C34.4526 11.5803 34.6626 11.6942 34.7208 11.894C34.779 12.0939 34.6652 12.3064 34.4653 12.3646C22.4573 15.9068 14.9808 22.5383 10.8213 27.4796C6.32024 32.8257 4.64024 37.3749 4.62506 37.4204C4.5694 37.5748 4.42265 37.6709 4.26831 37.6709L4.26578 37.6734Z" fill="black"/>
</g>
<defs>
<clipPath id="clip0_610_717">
<rect width="210" height="210" fill="white"/>
</clipPath>
</defs>
</svg>
