<svg width="201" height="200" viewBox="0 0 201 200" fill="none" xmlns="http://www.w3.org/2000/svg">
<g clip-path="url(#clip0_610_610)">
<path d="M73.883 10.5012C62.7384 14.8 15.1842 33.1445 3.49988 77.3783C-9.82301 127.819 30.0228 187.202 85.1023 198.145C142.237 209.494 202.664 166.118 200.876 139.446C199.71 122.019 172.138 114.036 174.864 94.6988C176.743 81.3614 190.649 79.5831 196.794 61.5012C200.975 49.1975 199.946 34.106 194.136 24.0192C177.808 -4.33739 116.363 -5.88679 73.883 10.5012Z" fill="#3F526F" fill-opacity="0.16"/>
<path d="M166.384 42.0313L17.3434 37.8024C13.8181 37.8024 10.9482 40.6698 10.9482 44.1975V147.692C10.9482 151.217 13.8157 154.087 17.3434 154.087H69.9169L62.9795 179.405L56.7554 175.617C54.4855 175.617 52.6397 177.463 52.6397 179.732C52.6397 182.002 54.4855 183.848 56.7554 183.848L114.649 181.185C116.919 181.185 121.62 175.617 121.62 175.617L115.722 154.087C115.722 154.087 169.91 42.0313 166.384 42.0313Z" fill="#3F526F"/>
<path d="M166.384 42.0313L17.3434 37.8024C13.8181 37.8024 10.9482 40.6698 10.9482 44.1975V147.692C10.9482 151.217 13.8157 154.087 17.3434 154.087H69.9169L62.9795 179.405L56.7554 175.617C54.4855 175.617 52.6397 177.463 52.6397 179.732C52.6397 182.002 54.4855 183.848 56.7554 183.848L114.649 181.185C116.919 181.185 121.62 175.617 121.62 175.617L115.722 154.087C115.722 154.087 169.91 42.0313 166.384 42.0313Z" fill="black" fill-opacity="0.16"/>
<path d="M114.765 140.855H76.9602L66.2349 180H125.49L114.765 140.855Z" fill="white"/>
<path d="M125.49 180.361H66.2349C66.1217 180.361 66.0157 180.308 65.9482 180.219C65.8807 180.13 65.8566 180.014 65.888 179.904L76.6133 140.759C76.6566 140.602 76.7988 140.494 76.9627 140.494H114.767C114.931 140.494 115.073 140.602 115.117 140.759L125.842 179.904C125.871 180.012 125.849 180.128 125.782 180.219C125.714 180.308 125.608 180.361 125.495 180.361H125.49ZM66.7096 179.638H125.016L114.488 141.217H77.2349L66.7072 179.638H66.7096Z" fill="#3F526F"/>
<path d="M125.49 180.361H66.2349C66.1217 180.361 66.0157 180.308 65.9482 180.219C65.8807 180.13 65.8566 180.014 65.888 179.904L76.6133 140.759C76.6566 140.602 76.7988 140.494 76.9627 140.494H114.767C114.931 140.494 115.073 140.602 115.117 140.759L125.842 179.904C125.871 180.012 125.849 180.128 125.782 180.219C125.714 180.308 125.608 180.361 125.495 180.361H125.49ZM66.7096 179.638H125.016L114.488 141.217H77.2349L66.7072 179.638H66.7096Z" fill="black" fill-opacity="0.16"/>
<path d="M171.336 38.1663H20.3867C17.0544 38.1663 14.353 40.8677 14.353 44.2V147.692C14.353 151.024 17.0544 153.725 20.3867 153.725H171.336C174.668 153.725 177.37 151.024 177.37 147.692V44.2C177.37 40.8677 174.668 38.1663 171.336 38.1663Z" fill="white"/>
<path d="M171.339 154.087H20.3868C16.8615 154.087 13.9916 151.219 13.9916 147.692V44.1975C13.9916 40.6722 16.859 37.8024 20.3868 37.8024H171.339C174.864 37.8024 177.734 40.6698 177.734 44.1975V147.692C177.734 151.217 174.866 154.087 171.339 154.087ZM20.3868 38.5277C17.259 38.5277 14.7145 41.0722 14.7145 44.2V147.694C14.7145 150.822 17.259 153.366 20.3868 153.366H171.339C174.466 153.366 177.011 150.822 177.011 147.694V44.1975C177.011 41.0698 174.466 38.5253 171.339 38.5253H20.3868V38.5277Z" fill="#3F526F"/>
<path d="M171.339 154.087H20.3868C16.8615 154.087 13.9916 151.219 13.9916 147.692V44.1975C13.9916 40.6722 16.859 37.8024 20.3868 37.8024H171.339C174.864 37.8024 177.734 40.6698 177.734 44.1975V147.692C177.734 151.217 174.866 154.087 171.339 154.087ZM20.3868 38.5277C17.259 38.5277 14.7145 41.0722 14.7145 44.2V147.694C14.7145 150.822 17.259 153.366 20.3868 153.366H171.339C174.466 153.366 177.011 150.822 177.011 147.694V44.1975C177.011 41.0698 174.466 38.5253 171.339 38.5253H20.3868V38.5277Z" fill="black" fill-opacity="0.16"/>
<path d="M131.924 175.978H59.8012C57.7289 175.978 56.047 177.658 56.047 179.732C56.047 181.807 57.7265 183.487 59.8012 183.487H131.927C133.999 183.487 135.681 181.807 135.681 179.732C135.681 177.658 134.001 175.978 131.927 175.978H131.924Z" fill="white"/>
<path d="M131.924 183.848H59.8012C57.5313 183.848 55.6855 182.002 55.6855 179.732C55.6855 177.463 57.5313 175.617 59.8012 175.617H131.927C134.196 175.617 136.042 177.463 136.042 179.732C136.042 182.002 134.196 183.848 131.927 183.848H131.924ZM59.7988 176.34C57.9289 176.34 56.406 177.863 56.406 179.732C56.406 181.602 57.9289 183.125 59.7988 183.125H131.924C133.794 183.125 135.317 181.602 135.317 179.732C135.317 177.863 133.794 176.34 131.924 176.34H59.8012H59.7988Z" fill="#3F526F"/>
<path d="M131.924 183.848H59.8012C57.5313 183.848 55.6855 182.002 55.6855 179.732C55.6855 177.463 57.5313 175.617 59.8012 175.617H131.927C134.196 175.617 136.042 177.463 136.042 179.732C136.042 182.002 134.196 183.848 131.927 183.848H131.924ZM59.7988 176.34C57.9289 176.34 56.406 177.863 56.406 179.732C56.406 181.602 57.9289 183.125 59.7988 183.125H131.924C133.794 183.125 135.317 181.602 135.317 179.732C135.317 177.863 133.794 176.34 131.924 176.34H59.8012H59.7988Z" fill="black" fill-opacity="0.16"/>
<path d="M166.278 46.812H25.4446C23.9833 46.812 22.7988 47.9966 22.7988 49.4578V51.4048C22.7988 52.866 23.9833 54.0506 25.4446 54.0506H166.278C167.74 54.0506 168.924 52.866 168.924 51.4048V49.4578C168.924 47.9966 167.74 46.812 166.278 46.812Z" fill="#3F526F" fill-opacity="0.16"/>
<path d="M165.596 50.4313C165.596 51.3927 164.816 52.1734 163.854 52.1734C162.893 52.1734 162.112 51.3927 162.112 50.4313C162.112 49.4698 162.893 48.6891 163.854 48.6891C164.816 48.6891 165.596 49.4698 165.596 50.4313Z" fill="white"/>
<path d="M93.5747 57.4481H22.859V145.33H93.5747V57.4481Z" fill="white"/>
<path d="M93.5771 145.692H90.6855C90.4855 145.692 90.3241 145.53 90.3241 145.33C90.3241 145.13 90.4855 144.969 90.6855 144.969H93.5771C93.7771 144.969 93.9386 145.13 93.9386 145.33C93.9386 145.53 93.7771 145.692 93.5771 145.692ZM87.794 145.692H84.9024C84.7024 145.692 84.541 145.53 84.541 145.33C84.541 145.13 84.7024 144.969 84.9024 144.969H87.794C87.994 144.969 88.1554 145.13 88.1554 145.33C88.1554 145.53 87.994 145.692 87.794 145.692ZM82.0108 145.692H79.1193C78.9193 145.692 78.7578 145.53 78.7578 145.33C78.7578 145.13 78.9193 144.969 79.1193 144.969H82.0108C82.2108 144.969 82.3723 145.13 82.3723 145.33C82.3723 145.53 82.2108 145.692 82.0108 145.692ZM76.2277 145.692H73.3361C73.1361 145.692 72.9747 145.53 72.9747 145.33C72.9747 145.13 73.1361 144.969 73.3361 144.969H76.2277C76.4277 144.969 76.5892 145.13 76.5892 145.33C76.5892 145.53 76.4277 145.692 76.2277 145.692ZM70.4446 145.692H67.553C67.353 145.692 67.1916 145.53 67.1916 145.33C67.1916 145.13 67.353 144.969 67.553 144.969H70.4446C70.6446 144.969 70.806 145.13 70.806 145.33C70.806 145.53 70.6446 145.692 70.4446 145.692ZM64.6614 145.692H61.7699C61.5699 145.692 61.4084 145.53 61.4084 145.33C61.4084 145.13 61.5699 144.969 61.7699 144.969H64.6614C64.8614 144.969 65.0229 145.13 65.0229 145.33C65.0229 145.53 64.8614 145.692 64.6614 145.692ZM58.8783 145.692H55.9867C55.7867 145.692 55.6253 145.53 55.6253 145.33C55.6253 145.13 55.7867 144.969 55.9867 144.969H58.8783C59.0783 144.969 59.2398 145.13 59.2398 145.33C59.2398 145.53 59.0783 145.692 58.8783 145.692ZM53.0952 145.692H50.2036C50.0036 145.692 49.8422 145.53 49.8422 145.33C49.8422 145.13 50.0036 144.969 50.2036 144.969H53.0952C53.2952 144.969 53.4566 145.13 53.4566 145.33C53.4566 145.53 53.2952 145.692 53.0952 145.692ZM47.312 145.692H44.4205C44.2205 145.692 44.059 145.53 44.059 145.33C44.059 145.13 44.2205 144.969 44.4205 144.969H47.312C47.512 144.969 47.6735 145.13 47.6735 145.33C47.6735 145.53 47.512 145.692 47.312 145.692ZM41.5289 145.692H38.6373C38.4373 145.692 38.2759 145.53 38.2759 145.33C38.2759 145.13 38.4373 144.969 38.6373 144.969H41.5289C41.7289 144.969 41.8904 145.13 41.8904 145.33C41.8904 145.53 41.7289 145.692 41.5289 145.692ZM35.7458 145.692H32.8542C32.6542 145.692 32.4928 145.53 32.4928 145.33C32.4928 145.13 32.6542 144.969 32.8542 144.969H35.7458C35.9458 144.969 36.1072 145.13 36.1072 145.33C36.1072 145.53 35.9458 145.692 35.7458 145.692ZM29.9627 145.692H27.0711C26.8711 145.692 26.7096 145.53 26.7096 145.33C26.7096 145.13 26.8711 144.969 27.0711 144.969H29.9627C30.1627 144.969 30.3241 145.13 30.3241 145.33C30.3241 145.53 30.1627 145.692 29.9627 145.692ZM24.1795 145.692H22.8614C22.6614 145.692 22.5 145.53 22.5 145.33V143.757C22.5 143.557 22.6614 143.395 22.8614 143.395C23.0614 143.395 23.2229 143.557 23.2229 143.757V144.969H24.1795C24.3795 144.969 24.541 145.13 24.541 145.33C24.541 145.53 24.3795 145.692 24.1795 145.692ZM93.5771 143.677C93.3771 143.677 93.2157 143.516 93.2157 143.316V140.424C93.2157 140.224 93.3771 140.063 93.5771 140.063C93.7771 140.063 93.9386 140.224 93.9386 140.424V143.316C93.9386 143.516 93.7771 143.677 93.5771 143.677ZM22.8614 141.229C22.6614 141.229 22.5 141.067 22.5 140.867V137.976C22.5 137.776 22.6614 137.614 22.8614 137.614C23.0614 137.614 23.2229 137.776 23.2229 137.976V140.867C23.2229 141.067 23.0614 141.229 22.8614 141.229ZM93.5771 137.894C93.3771 137.894 93.2157 137.732 93.2157 137.532V134.641C93.2157 134.441 93.3771 134.279 93.5771 134.279C93.7771 134.279 93.9386 134.441 93.9386 134.641V137.532C93.9386 137.732 93.7771 137.894 93.5771 137.894ZM22.8614 135.446C22.6614 135.446 22.5 135.284 22.5 135.084V132.193C22.5 131.993 22.6614 131.831 22.8614 131.831C23.0614 131.831 23.2229 131.993 23.2229 132.193V135.084C23.2229 135.284 23.0614 135.446 22.8614 135.446ZM93.5771 132.111C93.3771 132.111 93.2157 131.949 93.2157 131.749V128.858C93.2157 128.658 93.3771 128.496 93.5771 128.496C93.7771 128.496 93.9386 128.658 93.9386 128.858V131.749C93.9386 131.949 93.7771 132.111 93.5771 132.111ZM22.8614 129.663C22.6614 129.663 22.5 129.501 22.5 129.301V126.41C22.5 126.21 22.6614 126.048 22.8614 126.048C23.0614 126.048 23.2229 126.21 23.2229 126.41V129.301C23.2229 129.501 23.0614 129.663 22.8614 129.663ZM93.5771 126.328C93.3771 126.328 93.2157 126.166 93.2157 125.966V123.075C93.2157 122.875 93.3771 122.713 93.5771 122.713C93.7771 122.713 93.9386 122.875 93.9386 123.075V125.966C93.9386 126.166 93.7771 126.328 93.5771 126.328ZM22.8614 123.879C22.6614 123.879 22.5 123.718 22.5 123.518V120.626C22.5 120.426 22.6614 120.265 22.8614 120.265C23.0614 120.265 23.2229 120.426 23.2229 120.626V123.518C23.2229 123.718 23.0614 123.879 22.8614 123.879ZM93.5771 120.545C93.3771 120.545 93.2157 120.383 93.2157 120.183V117.292C93.2157 117.092 93.3771 116.93 93.5771 116.93C93.7771 116.93 93.9386 117.092 93.9386 117.292V120.183C93.9386 120.383 93.7771 120.545 93.5771 120.545ZM22.8614 118.096C22.6614 118.096 22.5 117.935 22.5 117.735V114.843C22.5 114.643 22.6614 114.482 22.8614 114.482C23.0614 114.482 23.2229 114.643 23.2229 114.843V117.735C23.2229 117.935 23.0614 118.096 22.8614 118.096ZM93.5771 114.761C93.3771 114.761 93.2157 114.6 93.2157 114.4V111.508C93.2157 111.308 93.3771 111.147 93.5771 111.147C93.7771 111.147 93.9386 111.308 93.9386 111.508V114.4C93.9386 114.6 93.7771 114.761 93.5771 114.761ZM22.8614 112.313C22.6614 112.313 22.5 112.152 22.5 111.952V109.06C22.5 108.86 22.6614 108.699 22.8614 108.699C23.0614 108.699 23.2229 108.86 23.2229 109.06V111.952C23.2229 112.152 23.0614 112.313 22.8614 112.313ZM93.5771 108.978C93.3771 108.978 93.2157 108.817 93.2157 108.617V105.725C93.2157 105.525 93.3771 105.364 93.5771 105.364C93.7771 105.364 93.9386 105.525 93.9386 105.725V108.617C93.9386 108.817 93.7771 108.978 93.5771 108.978ZM22.8614 106.53C22.6614 106.53 22.5 106.369 22.5 106.169V103.277C22.5 103.077 22.6614 102.916 22.8614 102.916C23.0614 102.916 23.2229 103.077 23.2229 103.277V106.169C23.2229 106.369 23.0614 106.53 22.8614 106.53ZM93.5771 103.195C93.3771 103.195 93.2157 103.034 93.2157 102.834V99.9421C93.2157 99.7421 93.3771 99.5807 93.5771 99.5807C93.7771 99.5807 93.9386 99.7421 93.9386 99.9421V102.834C93.9386 103.034 93.7771 103.195 93.5771 103.195ZM22.8614 100.747C22.6614 100.747 22.5 100.585 22.5 100.385V97.4939C22.5 97.2939 22.6614 97.1325 22.8614 97.1325C23.0614 97.1325 23.2229 97.2939 23.2229 97.4939V100.385C23.2229 100.585 23.0614 100.747 22.8614 100.747ZM93.5771 97.412C93.3771 97.412 93.2157 97.2506 93.2157 97.0506V94.159C93.2157 93.959 93.3771 93.7976 93.5771 93.7976C93.7771 93.7976 93.9386 93.959 93.9386 94.159V97.0506C93.9386 97.2506 93.7771 97.412 93.5771 97.412ZM22.8614 94.9638C22.6614 94.9638 22.5 94.8024 22.5 94.6024V91.7108C22.5 91.5108 22.6614 91.3494 22.8614 91.3494C23.0614 91.3494 23.2229 91.5108 23.2229 91.7108V94.6024C23.2229 94.8024 23.0614 94.9638 22.8614 94.9638ZM93.5771 91.6289C93.3771 91.6289 93.2157 91.4674 93.2157 91.2674V88.3759C93.2157 88.1759 93.3771 88.0144 93.5771 88.0144C93.7771 88.0144 93.9386 88.1759 93.9386 88.3759V91.2674C93.9386 91.4674 93.7771 91.6289 93.5771 91.6289ZM22.8614 89.1807C22.6614 89.1807 22.5 89.0192 22.5 88.8192V85.9277C22.5 85.7277 22.6614 85.5662 22.8614 85.5662C23.0614 85.5662 23.2229 85.7277 23.2229 85.9277V88.8192C23.2229 89.0192 23.0614 89.1807 22.8614 89.1807ZM93.5771 85.8457C93.3771 85.8457 93.2157 85.6843 93.2157 85.4843V82.5927C93.2157 82.3927 93.3771 82.2313 93.5771 82.2313C93.7771 82.2313 93.9386 82.3927 93.9386 82.5927V85.4843C93.9386 85.6843 93.7771 85.8457 93.5771 85.8457ZM22.8614 83.3975C22.6614 83.3975 22.5 83.2361 22.5 83.0361V80.1445C22.5 79.9445 22.6614 79.7831 22.8614 79.7831C23.0614 79.7831 23.2229 79.9445 23.2229 80.1445V83.0361C23.2229 83.2361 23.0614 83.3975 22.8614 83.3975ZM93.5771 80.0626C93.3771 80.0626 93.2157 79.9012 93.2157 79.7012V76.8096C93.2157 76.6096 93.3771 76.4482 93.5771 76.4482C93.7771 76.4482 93.9386 76.6096 93.9386 76.8096V79.7012C93.9386 79.9012 93.7771 80.0626 93.5771 80.0626ZM22.8614 77.6144C22.6614 77.6144 22.5 77.453 22.5 77.253V74.3614C22.5 74.1614 22.6614 74 22.8614 74C23.0614 74 23.2229 74.1614 23.2229 74.3614V77.253C23.2229 77.453 23.0614 77.6144 22.8614 77.6144ZM93.5771 74.2795C93.3771 74.2795 93.2157 74.118 93.2157 73.918V71.0265C93.2157 70.8265 93.3771 70.665 93.5771 70.665C93.7771 70.665 93.9386 70.8265 93.9386 71.0265V73.918C93.9386 74.118 93.7771 74.2795 93.5771 74.2795ZM22.8614 71.8313C22.6614 71.8313 22.5 71.6698 22.5 71.4698V68.5783C22.5 68.3783 22.6614 68.2168 22.8614 68.2168C23.0614 68.2168 23.2229 68.3783 23.2229 68.5783V71.4698C23.2229 71.6698 23.0614 71.8313 22.8614 71.8313ZM93.5771 68.4963C93.3771 68.4963 93.2157 68.3349 93.2157 68.1349V65.2433C93.2157 65.0433 93.3771 64.8819 93.5771 64.8819C93.7771 64.8819 93.9386 65.0433 93.9386 65.2433V68.1349C93.9386 68.3349 93.7771 68.4963 93.5771 68.4963ZM22.8614 66.0482C22.6614 66.0482 22.5 65.8867 22.5 65.6867V62.7951C22.5 62.5951 22.6614 62.4337 22.8614 62.4337C23.0614 62.4337 23.2229 62.5951 23.2229 62.7951V65.6867C23.2229 65.8867 23.0614 66.0482 22.8614 66.0482ZM93.5771 62.7132C93.3771 62.7132 93.2157 62.5518 93.2157 62.3518V59.4602C93.2157 59.2602 93.3771 59.0987 93.5771 59.0987C93.7771 59.0987 93.9386 59.2602 93.9386 59.4602V62.3518C93.9386 62.5518 93.7771 62.7132 93.5771 62.7132ZM22.8614 60.265C22.6614 60.265 22.5 60.1036 22.5 59.9036V57.4506C22.5 57.2506 22.6614 57.0891 22.8614 57.0891H23.3C23.5 57.0891 23.6614 57.2506 23.6614 57.4506C23.6614 57.6506 23.5 57.812 23.3 57.812H23.2229V59.9036C23.2229 60.1036 23.0614 60.265 22.8614 60.265ZM92.6976 57.812H89.806C89.606 57.812 89.4446 57.6506 89.4446 57.4506C89.4446 57.2506 89.606 57.0891 89.806 57.0891H92.6976C92.8976 57.0891 93.059 57.2506 93.059 57.4506C93.059 57.6506 92.8976 57.812 92.6976 57.812ZM86.9145 57.812H84.0229C83.8229 57.812 83.6614 57.6506 83.6614 57.4506C83.6614 57.2506 83.8229 57.0891 84.0229 57.0891H86.9145C87.1145 57.0891 87.2759 57.2506 87.2759 57.4506C87.2759 57.6506 87.1145 57.812 86.9145 57.812ZM81.1313 57.812H78.2398C78.0398 57.812 77.8783 57.6506 77.8783 57.4506C77.8783 57.2506 78.0398 57.0891 78.2398 57.0891H81.1313C81.3313 57.0891 81.4928 57.2506 81.4928 57.4506C81.4928 57.6506 81.3313 57.812 81.1313 57.812ZM75.3482 57.812H72.4566C72.2566 57.812 72.0952 57.6506 72.0952 57.4506C72.0952 57.2506 72.2566 57.0891 72.4566 57.0891H75.3482C75.5482 57.0891 75.7096 57.2506 75.7096 57.4506C75.7096 57.6506 75.5482 57.812 75.3482 57.812ZM69.5651 57.812H66.6735C66.4735 57.812 66.312 57.6506 66.312 57.4506C66.312 57.2506 66.4735 57.0891 66.6735 57.0891H69.5651C69.7651 57.0891 69.9265 57.2506 69.9265 57.4506C69.9265 57.6506 69.7651 57.812 69.5651 57.812ZM63.7819 57.812H60.8904C60.6904 57.812 60.5289 57.6506 60.5289 57.4506C60.5289 57.2506 60.6904 57.0891 60.8904 57.0891H63.7819C63.9819 57.0891 64.1434 57.2506 64.1434 57.4506C64.1434 57.6506 63.9819 57.812 63.7819 57.812ZM57.9988 57.812H55.1072C54.9072 57.812 54.7458 57.6506 54.7458 57.4506C54.7458 57.2506 54.9072 57.0891 55.1072 57.0891H57.9988C58.1988 57.0891 58.3602 57.2506 58.3602 57.4506C58.3602 57.6506 58.1988 57.812 57.9988 57.812ZM52.2157 57.812H49.3241C49.1241 57.812 48.9627 57.6506 48.9627 57.4506C48.9627 57.2506 49.1241 57.0891 49.3241 57.0891H52.2157C52.4157 57.0891 52.5771 57.2506 52.5771 57.4506C52.5771 57.6506 52.4157 57.812 52.2157 57.812ZM46.4325 57.812H43.541C43.341 57.812 43.1795 57.6506 43.1795 57.4506C43.1795 57.2506 43.341 57.0891 43.541 57.0891H46.4325C46.6325 57.0891 46.794 57.2506 46.794 57.4506C46.794 57.6506 46.6325 57.812 46.4325 57.812ZM40.6494 57.812H37.7578C37.5578 57.812 37.3964 57.6506 37.3964 57.4506C37.3964 57.2506 37.5578 57.0891 37.7578 57.0891H40.6494C40.8494 57.0891 41.0108 57.2506 41.0108 57.4506C41.0108 57.6506 40.8494 57.812 40.6494 57.812ZM34.8663 57.812H31.9747C31.7747 57.812 31.6133 57.6506 31.6133 57.4506C31.6133 57.2506 31.7747 57.0891 31.9747 57.0891H34.8663C35.0663 57.0891 35.2277 57.2506 35.2277 57.4506C35.2277 57.6506 35.0663 57.812 34.8663 57.812ZM29.0831 57.812H26.1916C25.9916 57.812 25.8301 57.6506 25.8301 57.4506C25.8301 57.2506 25.9916 57.0891 26.1916 57.0891H29.0831C29.2831 57.0891 29.4446 57.2506 29.4446 57.4506C29.4446 57.6506 29.2831 57.812 29.0831 57.812Z" fill="#3F526F" fill-opacity="0.16"/>
<path d="M168.864 57.4481H98.1482V86.9276H168.864V57.4481Z" fill="white"/>
<path d="M168.864 87.2891H165.972C165.772 87.2891 165.611 87.1277 165.611 86.9277C165.611 86.7277 165.772 86.5662 165.972 86.5662H168.864C169.064 86.5662 169.225 86.7277 169.225 86.9277C169.225 87.1277 169.064 87.2891 168.864 87.2891ZM163.081 87.2891H160.189C159.989 87.2891 159.828 87.1277 159.828 86.9277C159.828 86.7277 159.989 86.5662 160.189 86.5662H163.081C163.281 86.5662 163.442 86.7277 163.442 86.9277C163.442 87.1277 163.281 87.2891 163.081 87.2891ZM157.298 87.2891H154.406C154.206 87.2891 154.045 87.1277 154.045 86.9277C154.045 86.7277 154.206 86.5662 154.406 86.5662H157.298C157.498 86.5662 157.659 86.7277 157.659 86.9277C157.659 87.1277 157.498 87.2891 157.298 87.2891ZM151.514 87.2891H148.623C148.423 87.2891 148.261 87.1277 148.261 86.9277C148.261 86.7277 148.423 86.5662 148.623 86.5662H151.514C151.714 86.5662 151.876 86.7277 151.876 86.9277C151.876 87.1277 151.714 87.2891 151.514 87.2891ZM145.731 87.2891H142.84C142.64 87.2891 142.478 87.1277 142.478 86.9277C142.478 86.7277 142.64 86.5662 142.84 86.5662H145.731C145.931 86.5662 146.093 86.7277 146.093 86.9277C146.093 87.1277 145.931 87.2891 145.731 87.2891ZM139.948 87.2891H137.057C136.857 87.2891 136.695 87.1277 136.695 86.9277C136.695 86.7277 136.857 86.5662 137.057 86.5662H139.948C140.148 86.5662 140.31 86.7277 140.31 86.9277C140.31 87.1277 140.148 87.2891 139.948 87.2891ZM134.165 87.2891H131.273C131.073 87.2891 130.912 87.1277 130.912 86.9277C130.912 86.7277 131.073 86.5662 131.273 86.5662H134.165C134.365 86.5662 134.526 86.7277 134.526 86.9277C134.526 87.1277 134.365 87.2891 134.165 87.2891ZM128.382 87.2891H125.49C125.29 87.2891 125.129 87.1277 125.129 86.9277C125.129 86.7277 125.29 86.5662 125.49 86.5662H128.382C128.582 86.5662 128.743 86.7277 128.743 86.9277C128.743 87.1277 128.582 87.2891 128.382 87.2891ZM122.599 87.2891H119.707C119.507 87.2891 119.346 87.1277 119.346 86.9277C119.346 86.7277 119.507 86.5662 119.707 86.5662H122.599C122.799 86.5662 122.96 86.7277 122.96 86.9277C122.96 87.1277 122.799 87.2891 122.599 87.2891ZM116.816 87.2891H113.924C113.724 87.2891 113.563 87.1277 113.563 86.9277C113.563 86.7277 113.724 86.5662 113.924 86.5662H116.816C117.016 86.5662 117.177 86.7277 117.177 86.9277C117.177 87.1277 117.016 87.2891 116.816 87.2891ZM111.033 87.2891H108.141C107.941 87.2891 107.78 87.1277 107.78 86.9277C107.78 86.7277 107.941 86.5662 108.141 86.5662H111.033C111.233 86.5662 111.394 86.7277 111.394 86.9277C111.394 87.1277 111.233 87.2891 111.033 87.2891ZM105.249 87.2891H102.358C102.158 87.2891 101.996 87.1277 101.996 86.9277C101.996 86.7277 102.158 86.5662 102.358 86.5662H105.249C105.449 86.5662 105.611 86.7277 105.611 86.9277C105.611 87.1277 105.449 87.2891 105.249 87.2891ZM99.4663 87.2891H98.1482C97.9482 87.2891 97.7867 87.1277 97.7867 86.9277V85.3542C97.7867 85.1542 97.9482 84.9927 98.1482 84.9927C98.3482 84.9927 98.5096 85.1542 98.5096 85.3542V86.5662H99.4663C99.6663 86.5662 99.8277 86.7277 99.8277 86.9277C99.8277 87.1277 99.6663 87.2891 99.4663 87.2891ZM168.864 86.4168C168.664 86.4168 168.502 86.2554 168.502 86.0554V83.1638C168.502 82.9638 168.664 82.8024 168.864 82.8024C169.064 82.8024 169.225 82.9638 169.225 83.1638V86.0554C169.225 86.2554 169.064 86.4168 168.864 86.4168ZM98.1482 82.8265C97.9482 82.8265 97.7867 82.665 97.7867 82.465V79.5735C97.7867 79.3735 97.9482 79.212 98.1482 79.212C98.3482 79.212 98.5096 79.3735 98.5096 79.5735V82.465C98.5096 82.665 98.3482 82.8265 98.1482 82.8265ZM168.864 80.6337C168.664 80.6337 168.502 80.4722 168.502 80.2722V77.3807C168.502 77.1807 168.664 77.0192 168.864 77.0192C169.064 77.0192 169.225 77.1807 169.225 77.3807V80.2722C169.225 80.4722 169.064 80.6337 168.864 80.6337ZM98.1482 77.0433C97.9482 77.0433 97.7867 76.8819 97.7867 76.6819V73.7903C97.7867 73.5903 97.9482 73.4289 98.1482 73.4289C98.3482 73.4289 98.5096 73.5903 98.5096 73.7903V76.6819C98.5096 76.8819 98.3482 77.0433 98.1482 77.0433ZM168.864 74.8506C168.664 74.8506 168.502 74.6891 168.502 74.4891V71.5975C168.502 71.3975 168.664 71.2361 168.864 71.2361C169.064 71.2361 169.225 71.3975 169.225 71.5975V74.4891C169.225 74.6891 169.064 74.8506 168.864 74.8506ZM98.1482 71.2602C97.9482 71.2602 97.7867 71.0988 97.7867 70.8988V68.0072C97.7867 67.8072 97.9482 67.6457 98.1482 67.6457C98.3482 67.6457 98.5096 67.8072 98.5096 68.0072V70.8988C98.5096 71.0988 98.3482 71.2602 98.1482 71.2602ZM168.864 69.0674C168.664 69.0674 168.502 68.906 168.502 68.706V65.8144C168.502 65.6144 168.664 65.453 168.864 65.453C169.064 65.453 169.225 65.6144 169.225 65.8144V68.706C169.225 68.906 169.064 69.0674 168.864 69.0674ZM98.1482 65.4771C97.9482 65.4771 97.7867 65.3156 97.7867 65.1156V62.2241C97.7867 62.0241 97.9482 61.8626 98.1482 61.8626C98.3482 61.8626 98.5096 62.0241 98.5096 62.2241V65.1156C98.5096 65.3156 98.3482 65.4771 98.1482 65.4771ZM168.864 63.2843C168.664 63.2843 168.502 63.1228 168.502 62.9228V60.0313C168.502 59.8313 168.664 59.6698 168.864 59.6698C169.064 59.6698 169.225 59.8313 169.225 60.0313V62.9228C169.225 63.1228 169.064 63.2843 168.864 63.2843ZM98.1482 59.6939C97.9482 59.6939 97.7867 59.5325 97.7867 59.3325V57.4506C97.7867 57.2506 97.9482 57.0891 98.1482 57.0891H99.1578C99.3578 57.0891 99.5193 57.2506 99.5193 57.4506C99.5193 57.6506 99.3578 57.812 99.1578 57.812H98.5096V59.3325C98.5096 59.5325 98.3482 59.6939 98.1482 59.6939ZM168.555 57.812H165.664C165.464 57.812 165.302 57.6506 165.302 57.4506C165.302 57.2506 165.464 57.0891 165.664 57.0891H168.555C168.755 57.0891 168.917 57.2506 168.917 57.4506C168.917 57.6506 168.755 57.812 168.555 57.812ZM162.772 57.812H159.881C159.681 57.812 159.519 57.6506 159.519 57.4506C159.519 57.2506 159.681 57.0891 159.881 57.0891H162.772C162.972 57.0891 163.134 57.2506 163.134 57.4506C163.134 57.6506 162.972 57.812 162.772 57.812ZM156.989 57.812H154.098C153.898 57.812 153.736 57.6506 153.736 57.4506C153.736 57.2506 153.898 57.0891 154.098 57.0891H156.989C157.189 57.0891 157.351 57.2506 157.351 57.4506C157.351 57.6506 157.189 57.812 156.989 57.812ZM151.206 57.812H148.314C148.114 57.812 147.953 57.6506 147.953 57.4506C147.953 57.2506 148.114 57.0891 148.314 57.0891H151.206C151.406 57.0891 151.567 57.2506 151.567 57.4506C151.567 57.6506 151.406 57.812 151.206 57.812ZM145.423 57.812H142.531C142.331 57.812 142.17 57.6506 142.17 57.4506C142.17 57.2506 142.331 57.0891 142.531 57.0891H145.423C145.623 57.0891 145.784 57.2506 145.784 57.4506C145.784 57.6506 145.623 57.812 145.423 57.812ZM139.64 57.812H136.748C136.548 57.812 136.387 57.6506 136.387 57.4506C136.387 57.2506 136.548 57.0891 136.748 57.0891H139.64C139.84 57.0891 140.001 57.2506 140.001 57.4506C140.001 57.6506 139.84 57.812 139.64 57.812ZM133.857 57.812H130.965C130.765 57.812 130.604 57.6506 130.604 57.4506C130.604 57.2506 130.765 57.0891 130.965 57.0891H133.857C134.057 57.0891 134.218 57.2506 134.218 57.4506C134.218 57.6506 134.057 57.812 133.857 57.812ZM128.073 57.812H125.182C124.982 57.812 124.82 57.6506 124.82 57.4506C124.82 57.2506 124.982 57.0891 125.182 57.0891H128.073C128.273 57.0891 128.435 57.2506 128.435 57.4506C128.435 57.6506 128.273 57.812 128.073 57.812ZM122.29 57.812H119.399C119.199 57.812 119.037 57.6506 119.037 57.4506C119.037 57.2506 119.199 57.0891 119.399 57.0891H122.29C122.49 57.0891 122.652 57.2506 122.652 57.4506C122.652 57.6506 122.49 57.812 122.29 57.812ZM116.507 57.812H113.616C113.416 57.812 113.254 57.6506 113.254 57.4506C113.254 57.2506 113.416 57.0891 113.616 57.0891H116.507C116.707 57.0891 116.869 57.2506 116.869 57.4506C116.869 57.6506 116.707 57.812 116.507 57.812ZM110.724 57.812H107.833C107.633 57.812 107.471 57.6506 107.471 57.4506C107.471 57.2506 107.633 57.0891 107.833 57.0891H110.724C110.924 57.0891 111.086 57.2506 111.086 57.4506C111.086 57.6506 110.924 57.812 110.724 57.812ZM104.941 57.812H102.049C101.849 57.812 101.688 57.6506 101.688 57.4506C101.688 57.2506 101.849 57.0891 102.049 57.0891H104.941C105.141 57.0891 105.302 57.2506 105.302 57.4506C105.302 57.6506 105.141 57.812 104.941 57.812Z" fill="#3F526F" fill-opacity="0.16"/>
<path d="M168.864 92.4891H98.1482V145.33H168.864V92.4891Z" fill="white"/>
<path d="M168.864 145.692H165.972C165.772 145.692 165.611 145.53 165.611 145.33C165.611 145.13 165.772 144.969 165.972 144.969H168.864C169.064 144.969 169.225 145.13 169.225 145.33C169.225 145.53 169.064 145.692 168.864 145.692ZM163.081 145.692H160.189C159.989 145.692 159.828 145.53 159.828 145.33C159.828 145.13 159.989 144.969 160.189 144.969H163.081C163.281 144.969 163.442 145.13 163.442 145.33C163.442 145.53 163.281 145.692 163.081 145.692ZM157.298 145.692H154.406C154.206 145.692 154.045 145.53 154.045 145.33C154.045 145.13 154.206 144.969 154.406 144.969H157.298C157.498 144.969 157.659 145.13 157.659 145.33C157.659 145.53 157.498 145.692 157.298 145.692ZM151.514 145.692H148.623C148.423 145.692 148.261 145.53 148.261 145.33C148.261 145.13 148.423 144.969 148.623 144.969H151.514C151.714 144.969 151.876 145.13 151.876 145.33C151.876 145.53 151.714 145.692 151.514 145.692ZM145.731 145.692H142.84C142.64 145.692 142.478 145.53 142.478 145.33C142.478 145.13 142.64 144.969 142.84 144.969H145.731C145.931 144.969 146.093 145.13 146.093 145.33C146.093 145.53 145.931 145.692 145.731 145.692ZM139.948 145.692H137.057C136.857 145.692 136.695 145.53 136.695 145.33C136.695 145.13 136.857 144.969 137.057 144.969H139.948C140.148 144.969 140.31 145.13 140.31 145.33C140.31 145.53 140.148 145.692 139.948 145.692ZM134.165 145.692H131.273C131.073 145.692 130.912 145.53 130.912 145.33C130.912 145.13 131.073 144.969 131.273 144.969H134.165C134.365 144.969 134.526 145.13 134.526 145.33C134.526 145.53 134.365 145.692 134.165 145.692ZM128.382 145.692H125.49C125.29 145.692 125.129 145.53 125.129 145.33C125.129 145.13 125.29 144.969 125.49 144.969H128.382C128.582 144.969 128.743 145.13 128.743 145.33C128.743 145.53 128.582 145.692 128.382 145.692ZM122.599 145.692H119.707C119.507 145.692 119.346 145.53 119.346 145.33C119.346 145.13 119.507 144.969 119.707 144.969H122.599C122.799 144.969 122.96 145.13 122.96 145.33C122.96 145.53 122.799 145.692 122.599 145.692ZM116.816 145.692H113.924C113.724 145.692 113.563 145.53 113.563 145.33C113.563 145.13 113.724 144.969 113.924 144.969H116.816C117.016 144.969 117.177 145.13 117.177 145.33C117.177 145.53 117.016 145.692 116.816 145.692ZM111.033 145.692H108.141C107.941 145.692 107.78 145.53 107.78 145.33C107.78 145.13 107.941 144.969 108.141 144.969H111.033C111.233 144.969 111.394 145.13 111.394 145.33C111.394 145.53 111.233 145.692 111.033 145.692ZM105.249 145.692H102.358C102.158 145.692 101.996 145.53 101.996 145.33C101.996 145.13 102.158 144.969 102.358 144.969H105.249C105.449 144.969 105.611 145.13 105.611 145.33C105.611 145.53 105.449 145.692 105.249 145.692ZM99.4663 145.692H98.1482C97.9482 145.692 97.7867 145.53 97.7867 145.33V143.757C97.7867 143.557 97.9482 143.395 98.1482 143.395C98.3482 143.395 98.5096 143.557 98.5096 143.757V144.969H99.4663C99.6663 144.969 99.8277 145.13 99.8277 145.33C99.8277 145.53 99.6663 145.692 99.4663 145.692ZM168.864 144.361C168.664 144.361 168.502 144.2 168.502 144V141.108C168.502 140.908 168.664 140.747 168.864 140.747C169.064 140.747 169.225 140.908 169.225 141.108V144C169.225 144.2 169.064 144.361 168.864 144.361ZM98.1482 141.226C97.9482 141.226 97.7867 141.065 97.7867 140.865V137.973C97.7867 137.773 97.9482 137.612 98.1482 137.612C98.3482 137.612 98.5096 137.773 98.5096 137.973V140.865C98.5096 141.065 98.3482 141.226 98.1482 141.226ZM168.864 138.578C168.664 138.578 168.502 138.417 168.502 138.217V135.325C168.502 135.125 168.664 134.964 168.864 134.964C169.064 134.964 169.225 135.125 169.225 135.325V138.217C169.225 138.417 169.064 138.578 168.864 138.578ZM98.1482 135.443C97.9482 135.443 97.7867 135.282 97.7867 135.082V132.19C97.7867 131.99 97.9482 131.829 98.1482 131.829C98.3482 131.829 98.5096 131.99 98.5096 132.19V135.082C98.5096 135.282 98.3482 135.443 98.1482 135.443ZM168.864 132.795C168.664 132.795 168.502 132.634 168.502 132.434V129.542C168.502 129.342 168.664 129.181 168.864 129.181C169.064 129.181 169.225 129.342 169.225 129.542V132.434C169.225 132.634 169.064 132.795 168.864 132.795ZM98.1482 129.66C97.9482 129.66 97.7867 129.499 97.7867 129.299V126.407C97.7867 126.207 97.9482 126.046 98.1482 126.046C98.3482 126.046 98.5096 126.207 98.5096 126.407V129.299C98.5096 129.499 98.3482 129.66 98.1482 129.66ZM168.864 127.012C168.664 127.012 168.502 126.851 168.502 126.651V123.759C168.502 123.559 168.664 123.398 168.864 123.398C169.064 123.398 169.225 123.559 169.225 123.759V126.651C169.225 126.851 169.064 127.012 168.864 127.012ZM98.1482 123.877C97.9482 123.877 97.7867 123.716 97.7867 123.516V120.624C97.7867 120.424 97.9482 120.263 98.1482 120.263C98.3482 120.263 98.5096 120.424 98.5096 120.624V123.516C98.5096 123.716 98.3482 123.877 98.1482 123.877ZM168.864 121.229C168.664 121.229 168.502 121.067 168.502 120.867V117.976C168.502 117.776 168.664 117.614 168.864 117.614C169.064 117.614 169.225 117.776 169.225 117.976V120.867C169.225 121.067 169.064 121.229 168.864 121.229ZM98.1482 118.094C97.9482 118.094 97.7867 117.933 97.7867 117.733V114.841C97.7867 114.641 97.9482 114.479 98.1482 114.479C98.3482 114.479 98.5096 114.641 98.5096 114.841V117.733C98.5096 117.933 98.3482 118.094 98.1482 118.094ZM168.864 115.446C168.664 115.446 168.502 115.284 168.502 115.084V112.193C168.502 111.993 168.664 111.831 168.864 111.831C169.064 111.831 169.225 111.993 169.225 112.193V115.084C169.225 115.284 169.064 115.446 168.864 115.446ZM98.1482 112.311C97.9482 112.311 97.7867 112.149 97.7867 111.949V109.058C97.7867 108.858 97.9482 108.696 98.1482 108.696C98.3482 108.696 98.5096 108.858 98.5096 109.058V111.949C98.5096 112.149 98.3482 112.311 98.1482 112.311ZM168.864 109.663C168.664 109.663 168.502 109.501 168.502 109.301V106.41C168.502 106.21 168.664 106.048 168.864 106.048C169.064 106.048 169.225 106.21 169.225 106.41V109.301C169.225 109.501 169.064 109.663 168.864 109.663ZM98.1482 106.528C97.9482 106.528 97.7867 106.366 97.7867 106.166V103.275C97.7867 103.075 97.9482 102.913 98.1482 102.913C98.3482 102.913 98.5096 103.075 98.5096 103.275V106.166C98.5096 106.366 98.3482 106.528 98.1482 106.528ZM168.864 103.879C168.664 103.879 168.502 103.718 168.502 103.518V100.626C168.502 100.426 168.664 100.265 168.864 100.265C169.064 100.265 169.225 100.426 169.225 100.626V103.518C169.225 103.718 169.064 103.879 168.864 103.879ZM98.1482 100.745C97.9482 100.745 97.7867 100.583 97.7867 100.383V97.4915C97.7867 97.2915 97.9482 97.1301 98.1482 97.1301C98.3482 97.1301 98.5096 97.2915 98.5096 97.4915V100.383C98.5096 100.583 98.3482 100.745 98.1482 100.745ZM168.864 98.0964C168.664 98.0964 168.502 97.9349 168.502 97.7349V94.8434C168.502 94.6434 168.664 94.4819 168.864 94.4819C169.064 94.4819 169.225 94.6434 169.225 94.8434V97.7349C169.225 97.9349 169.064 98.0964 168.864 98.0964ZM98.1482 94.9614C97.9482 94.9614 97.7867 94.8 97.7867 94.6V92.4891C97.7867 92.2891 97.9482 92.1277 98.1482 92.1277H98.9289C99.1289 92.1277 99.2904 92.2891 99.2904 92.4891C99.2904 92.6891 99.1289 92.8506 98.9289 92.8506H98.5096V94.6C98.5096 94.8 98.3482 94.9614 98.1482 94.9614ZM168.326 92.8506H165.435C165.235 92.8506 165.073 92.6891 165.073 92.4891C165.073 92.2891 165.235 92.1277 165.435 92.1277H168.326C168.526 92.1277 168.688 92.2891 168.688 92.4891C168.688 92.6891 168.526 92.8506 168.326 92.8506ZM162.543 92.8506H159.652C159.452 92.8506 159.29 92.6891 159.29 92.4891C159.29 92.2891 159.452 92.1277 159.652 92.1277H162.543C162.743 92.1277 162.905 92.2891 162.905 92.4891C162.905 92.6891 162.743 92.8506 162.543 92.8506ZM156.76 92.8506H153.869C153.669 92.8506 153.507 92.6891 153.507 92.4891C153.507 92.2891 153.669 92.1277 153.869 92.1277H156.76C156.96 92.1277 157.122 92.2891 157.122 92.4891C157.122 92.6891 156.96 92.8506 156.76 92.8506ZM150.977 92.8506H148.086C147.886 92.8506 147.724 92.6891 147.724 92.4891C147.724 92.2891 147.886 92.1277 148.086 92.1277H150.977C151.177 92.1277 151.339 92.2891 151.339 92.4891C151.339 92.6891 151.177 92.8506 150.977 92.8506ZM145.194 92.8506H142.302C142.102 92.8506 141.941 92.6891 141.941 92.4891C141.941 92.2891 142.102 92.1277 142.302 92.1277H145.194C145.394 92.1277 145.555 92.2891 145.555 92.4891C145.555 92.6891 145.394 92.8506 145.194 92.8506ZM139.411 92.8506H136.519C136.319 92.8506 136.158 92.6891 136.158 92.4891C136.158 92.2891 136.319 92.1277 136.519 92.1277H139.411C139.611 92.1277 139.772 92.2891 139.772 92.4891C139.772 92.6891 139.611 92.8506 139.411 92.8506ZM133.628 92.8506H130.736C130.536 92.8506 130.375 92.6891 130.375 92.4891C130.375 92.2891 130.536 92.1277 130.736 92.1277H133.628C133.828 92.1277 133.989 92.2891 133.989 92.4891C133.989 92.6891 133.828 92.8506 133.628 92.8506ZM127.845 92.8506H124.953C124.753 92.8506 124.592 92.6891 124.592 92.4891C124.592 92.2891 124.753 92.1277 124.953 92.1277H127.845C128.045 92.1277 128.206 92.2891 128.206 92.4891C128.206 92.6891 128.045 92.8506 127.845 92.8506ZM122.061 92.8506H119.17C118.97 92.8506 118.808 92.6891 118.808 92.4891C118.808 92.2891 118.97 92.1277 119.17 92.1277H122.061C122.261 92.1277 122.423 92.2891 122.423 92.4891C122.423 92.6891 122.261 92.8506 122.061 92.8506ZM116.278 92.8506H113.387C113.187 92.8506 113.025 92.6891 113.025 92.4891C113.025 92.2891 113.187 92.1277 113.387 92.1277H116.278C116.478 92.1277 116.64 92.2891 116.64 92.4891C116.64 92.6891 116.478 92.8506 116.278 92.8506ZM110.495 92.8506H107.604C107.404 92.8506 107.242 92.6891 107.242 92.4891C107.242 92.2891 107.404 92.1277 107.604 92.1277H110.495C110.695 92.1277 110.857 92.2891 110.857 92.4891C110.857 92.6891 110.695 92.8506 110.495 92.8506ZM104.712 92.8506H101.82C101.62 92.8506 101.459 92.6891 101.459 92.4891C101.459 92.2891 101.62 92.1277 101.82 92.1277H104.712C104.912 92.1277 105.073 92.2891 105.073 92.4891C105.073 92.6891 104.912 92.8506 104.712 92.8506Z" fill="#3F526F" fill-opacity="0.16"/>
<path d="M105.264 179.072H25.5048C24.6398 179.072 23.9385 179.774 23.9385 180.639V183.53C23.9385 184.395 24.6398 185.096 25.5048 185.096H105.264C106.129 185.096 106.83 184.395 106.83 183.53V180.639C106.83 179.774 106.129 179.072 105.264 179.072Z" fill="#3F526F" fill-opacity="0.16"/>
<path d="M105.264 185.458H25.5048C24.4421 185.458 23.5771 184.593 23.5771 183.53V180.639C23.5771 179.576 24.4421 178.711 25.5048 178.711H105.264C106.326 178.711 107.192 179.576 107.192 180.639V183.53C107.192 184.593 106.326 185.458 105.264 185.458ZM25.5048 179.434C24.8397 179.434 24.3 179.973 24.3 180.639V183.53C24.3 184.195 24.8397 184.735 25.5048 184.735H105.264C105.929 184.735 106.469 184.195 106.469 183.53V180.639C106.469 179.973 105.929 179.434 105.264 179.434H25.5048Z" fill="#3F526F"/>
<path d="M105.264 185.458H25.5048C24.4421 185.458 23.5771 184.593 23.5771 183.53V180.639C23.5771 179.576 24.4421 178.711 25.5048 178.711H105.264C106.326 178.711 107.192 179.576 107.192 180.639V183.53C107.192 184.593 106.326 185.458 105.264 185.458ZM25.5048 179.434C24.8397 179.434 24.3 179.973 24.3 180.639V183.53C24.3 184.195 24.8397 184.735 25.5048 184.735H105.264C105.929 184.735 106.469 184.195 106.469 183.53V180.639C106.469 179.973 105.929 179.434 105.264 179.434H25.5048Z" fill="black" fill-opacity="0.16"/>
<path d="M113.939 169.675H32.0108C30.4804 169.675 29.2397 170.915 29.2397 172.446V176.301C29.2397 177.832 30.4804 179.072 32.0108 179.072H113.939C115.469 179.072 116.71 177.832 116.71 176.301V172.446C116.71 170.915 115.469 169.675 113.939 169.675Z" fill="#3F526F" fill-opacity="0.16"/>
<path d="M113.939 179.434H32.0108C30.2831 179.434 28.8783 178.029 28.8783 176.301V172.446C28.8783 170.718 30.2831 169.313 32.0108 169.313H113.939C115.666 169.313 117.071 170.718 117.071 172.446V176.301C117.071 178.029 115.666 179.434 113.939 179.434ZM32.0108 170.036C30.6831 170.036 29.6012 171.118 29.6012 172.446V176.301C29.6012 177.629 30.6831 178.711 32.0108 178.711H113.939C115.266 178.711 116.348 177.629 116.348 176.301V172.446C116.348 171.118 115.266 170.036 113.939 170.036H32.0108Z" fill="#3F526F"/>
<path d="M113.939 179.434H32.0108C30.2831 179.434 28.8783 178.029 28.8783 176.301V172.446C28.8783 170.718 30.2831 169.313 32.0108 169.313H113.939C115.666 169.313 117.071 170.718 117.071 172.446V176.301C117.071 178.029 115.666 179.434 113.939 179.434ZM32.0108 170.036C30.6831 170.036 29.6012 171.118 29.6012 172.446V176.301C29.6012 177.629 30.6831 178.711 32.0108 178.711H113.939C115.266 178.711 116.348 177.629 116.348 176.301V172.446C116.348 171.118 115.266 170.036 113.939 170.036H32.0108Z" fill="black" fill-opacity="0.16"/>
<path d="M110.686 160.518H22.7337C21.536 160.518 20.5651 161.489 20.5651 162.687V167.265C20.5651 168.463 21.536 169.434 22.7337 169.434H110.686C111.883 169.434 112.854 168.463 112.854 167.265V162.687C112.854 161.489 111.883 160.518 110.686 160.518Z" fill="#3F526F" fill-opacity="0.16"/>
<path d="M110.686 169.795H22.7337C21.3386 169.795 20.2036 168.66 20.2036 167.265V162.687C20.2036 161.292 21.3386 160.157 22.7337 160.157H110.686C112.081 160.157 113.216 161.292 113.216 162.687V167.265C113.216 168.66 112.081 169.795 110.686 169.795ZM22.7337 160.88C21.7361 160.88 20.9265 161.689 20.9265 162.687V167.265C20.9265 168.263 21.7361 169.072 22.7337 169.072H110.686C111.683 169.072 112.493 168.263 112.493 167.265V162.687C112.493 161.689 111.683 160.88 110.686 160.88H22.7337Z" fill="#3F526F"/>
<path d="M110.686 169.795H22.7337C21.3386 169.795 20.2036 168.66 20.2036 167.265V162.687C20.2036 161.292 21.3386 160.157 22.7337 160.157H110.686C112.081 160.157 113.216 161.292 113.216 162.687V167.265C113.216 168.66 112.081 169.795 110.686 169.795ZM22.7337 160.88C21.7361 160.88 20.9265 161.689 20.9265 162.687V167.265C20.9265 168.263 21.7361 169.072 22.7337 169.072H110.686C111.683 169.072 112.493 168.263 112.493 167.265V162.687C112.493 161.689 111.683 160.88 110.686 160.88H22.7337Z" fill="black" fill-opacity="0.16"/>
<path d="M37.9096 148.229C36.5916 147.39 40.2952 142.865 38.7578 136.181C37.9482 132.663 36.5386 132.243 36.4229 128.969C36.2615 124.313 38.9651 120.882 39.3602 120.398C41.3361 117.964 42.2398 118.749 45.5048 115.94C47.2711 114.419 51.2952 110.957 51.8855 106.06C52.1819 103.605 51.2783 103.267 51.8855 101.241C52.994 97.5421 57.0229 94.2602 59.3554 95.2168C60.9048 95.853 61.6036 98.3253 61.5241 100.277C61.3506 104.537 57.1121 105.263 56.2229 109.675C55.3819 113.848 58.7988 115.036 57.9096 118.59C56.7048 123.402 50.0639 122.711 47.7892 128.229C46.2855 131.879 48.7337 133.296 47.5482 138.108C45.9289 144.675 39.3868 149.169 37.9096 148.229Z" fill="#3F526F" fill-opacity="0.16"/>
<path d="M55.8446 101.043C55.7554 103.053 55.5241 105.06 55.0759 107.026C54.6301 108.993 53.9747 110.916 53.0831 112.728C52.1892 114.54 51.0542 116.236 49.7217 117.757C49.0542 118.518 48.3385 119.234 47.5916 119.913C46.8422 120.593 46.0614 121.231 45.2783 121.863C44.4952 122.494 43.7072 123.113 42.9819 123.788C42.259 124.46 41.5916 125.198 41.1578 126.06C40.941 126.489 40.7771 126.942 40.6807 127.412C40.5867 127.882 40.5554 128.366 40.5723 128.848C40.6012 129.814 40.8566 130.764 41.2084 131.689C41.5554 132.617 41.9771 133.535 42.3 134.511C42.6253 135.482 42.8325 136.523 42.806 137.573C42.8157 137.836 42.7771 138.096 42.7482 138.357C42.7313 138.487 42.7241 138.617 42.7 138.747L42.6157 139.13C42.5169 139.643 42.3626 140.142 42.1675 140.626C41.7843 141.595 41.2422 142.496 40.5964 143.306C40.4711 143.463 40.2446 143.487 40.0879 143.364C39.9313 143.239 39.9072 143.012 40.0301 142.855C40.0301 142.855 40.0301 142.853 40.0325 142.853C40.6494 142.101 41.1626 141.267 41.5313 140.371C41.7169 139.925 41.8687 139.463 41.9626 138.988L42.0446 138.636C42.0663 138.518 42.0759 138.398 42.0928 138.279C42.1217 138.041 42.1602 137.802 42.1554 137.561C42.194 136.6 42.0157 135.639 41.7169 134.704C41.4205 133.766 41.0157 132.851 40.6687 131.892C40.3193 130.937 40.0542 129.916 40.0349 128.87C40.0229 128.347 40.0638 127.824 40.1723 127.311C40.2855 126.798 40.4711 126.301 40.7145 125.839C41.2012 124.906 41.9169 124.14 42.6687 123.455C43.4253 122.773 44.2253 122.159 45.0132 121.54C45.8036 120.92 46.5843 120.296 47.3337 119.636C48.0807 118.973 48.7964 118.277 49.4614 117.535C50.794 116.053 51.9337 114.393 52.8398 112.614C53.7434 110.834 54.4181 108.935 54.8855 106.99C55.3554 105.043 55.6108 103.048 55.7241 101.046C55.7241 101.012 55.753 100.988 55.7867 100.988C55.8205 100.988 55.8446 101.017 55.8446 101.051V101.043Z" fill="white"/>
<path d="M42.006 71.1204C44.1024 70.7036 46.8976 76.465 48.5121 79.7951C51.3554 85.6578 53.3241 89.718 52.3675 94.253C51.0205 100.643 45.5386 100.026 43.2109 106.783C40.7241 114 46.4301 116.301 43.9337 124.373C42.1916 130.01 38.0277 133.352 39.5964 137.626C40.1795 139.217 41.0277 139.496 41.2831 141.241C41.8518 145.132 38.5 149.723 36.2229 149.434C35.3868 149.328 34.8711 148.586 32.8494 144.614C30.3964 139.793 29.1699 137.383 28.994 136.663C27.3506 129.945 34.1241 127.33 34.2952 119.554C34.459 112.159 28.4036 111.448 28.5121 104.373C28.6205 97.3253 34.6518 96.6433 38.3916 86.0602C41.353 77.6795 39.8904 71.5421 42.006 71.1204Z" fill="#3F526F" fill-opacity="0.16"/>
<path d="M41.0638 93.694C39.6807 95.4795 38.4831 97.4193 37.6253 99.5084C36.7651 101.59 36.2181 103.812 36.1385 106.063C36.1289 106.342 36.1048 106.624 36.1072 106.904L36.1385 107.745C36.1458 107.884 36.1458 108.024 36.1578 108.164L36.2084 108.581C36.2446 108.858 36.2687 109.14 36.3144 109.414C36.5024 110.52 36.806 111.605 37.1747 112.67C37.5458 113.735 37.9795 114.781 38.3506 115.86C38.7193 116.937 39.0494 118.048 39.1626 119.2C39.2157 119.484 39.206 119.776 39.2253 120.063L39.2446 120.496C39.2518 120.641 39.2349 120.786 39.2301 120.928L39.1843 121.793L39.0566 122.648C38.8735 123.783 38.5675 124.906 38.0976 125.961C37.6422 127.022 37.0494 128.014 36.4253 128.966C35.8036 129.92 35.153 130.841 34.647 131.827C33.594 133.778 33.394 136.072 33.8253 138.236C34.2494 140.407 35.3 142.422 36.6398 144.193C36.7602 144.352 36.7289 144.578 36.5699 144.699C36.4108 144.819 36.1843 144.788 36.0638 144.629C34.6976 142.776 33.6132 140.655 33.1916 138.359C33.0952 137.786 33.0132 137.207 32.9988 136.624C32.9747 136.335 33.0036 136.041 33.006 135.749L33.0181 135.313L33.0735 134.877C33.2108 133.716 33.5916 132.581 34.1385 131.559C34.6807 130.533 35.353 129.602 35.9771 128.667C36.606 127.733 37.1867 126.776 37.6397 125.759C38.1024 124.747 38.4084 123.667 38.5988 122.571L38.7313 121.747L38.7819 120.916C38.7867 120.776 38.806 120.639 38.8012 120.499L38.7867 120.082C38.7699 119.805 38.7843 119.525 38.7361 119.251C38.5217 117.022 37.5651 114.942 36.8373 112.79C36.4759 111.708 36.1771 110.602 35.9988 109.47C35.9554 109.188 35.9337 108.901 35.9 108.617L35.8542 108.19C35.8422 108.048 35.8446 107.904 35.8397 107.761L35.8181 106.904C35.8181 106.617 35.8446 106.333 35.8566 106.048C35.9626 103.764 36.541 101.518 37.4325 99.4265C38.3241 97.3277 39.5506 95.388 40.9578 93.6072C40.9819 93.5759 41.0277 93.5711 41.059 93.5952C41.0904 93.6193 41.0952 93.6651 41.0711 93.6964L41.0638 93.694Z" fill="white"/>
<path d="M36.9458 160.518C32.953 160.518 29.7169 157.282 29.7169 153.289V146.06H44.1747V153.289C44.1747 157.282 40.9385 160.518 36.9458 160.518Z" fill="#3F526F"/>
<path d="M36.9458 160.518C32.953 160.518 29.7169 157.282 29.7169 153.289V146.06H44.1747V153.289C44.1747 157.282 40.9385 160.518 36.9458 160.518Z" fill="white" fill-opacity="0.16"/>
<path d="M137.642 11.5349H49.6735C47.7172 11.5349 46.1313 13.1208 46.1313 15.0771V49.318C46.1313 51.2743 47.7172 52.8602 49.6735 52.8602H137.642C139.598 52.8602 141.184 51.2743 141.184 49.318V15.0771C141.184 13.1208 139.598 11.5349 137.642 11.5349Z" fill="#3F526F"/>
<path d="M137.642 11.5349H49.6735C47.7172 11.5349 46.1313 13.1208 46.1313 15.0771V49.318C46.1313 51.2743 47.7172 52.8602 49.6735 52.8602H137.642C139.598 52.8602 141.184 51.2743 141.184 49.318V15.0771C141.184 13.1208 139.598 11.5349 137.642 11.5349Z" fill="white" fill-opacity="0.16"/>
<path d="M137.642 53.2217H49.6735C47.5216 53.2217 45.7698 51.4698 45.7698 49.318V15.0771C45.7698 12.9253 47.5216 11.1735 49.6735 11.1735H137.642C139.794 11.1735 141.546 12.9253 141.546 15.0771V49.318C141.546 51.4698 139.794 53.2217 137.642 53.2217ZM49.6735 11.8964C47.9192 11.8964 46.4927 13.3229 46.4927 15.0771V49.318C46.4927 51.0723 47.9192 52.4988 49.6735 52.4988H137.642C139.396 52.4988 140.823 51.0723 140.823 49.318V15.0771C140.823 13.3229 139.396 11.8964 137.642 11.8964H49.6735Z" fill="#3F526F"/>
<path d="M137.642 53.2217H49.6735C47.5216 53.2217 45.7698 51.4698 45.7698 49.318V15.0771C45.7698 12.9253 47.5216 11.1735 49.6735 11.1735H137.642C139.794 11.1735 141.546 12.9253 141.546 15.0771V49.318C141.546 51.4698 139.794 53.2217 137.642 53.2217ZM49.6735 11.8964C47.9192 11.8964 46.4927 13.3229 46.4927 15.0771V49.318C46.4927 51.0723 47.9192 52.4988 49.6735 52.4988H137.642C139.396 52.4988 140.823 51.0723 140.823 49.318V15.0771C140.823 13.3229 139.396 11.8964 137.642 11.8964H49.6735Z" fill="black" fill-opacity="0.16"/>
<path d="M138.37 17.7108H48.9482C48.7482 17.7108 48.5867 17.5494 48.5867 17.3494C48.5867 17.1494 48.7482 16.9879 48.9482 16.9879H138.37C138.57 16.9879 138.731 17.1494 138.731 17.3494C138.731 17.5494 138.57 17.7108 138.37 17.7108Z" fill="white"/>
<path d="M52.4446 14.2602C52.4446 14.7614 52.0373 15.1687 51.5361 15.1687C51.0349 15.1687 50.6277 14.7614 50.6277 14.2602C50.6277 13.759 51.0349 13.3518 51.5361 13.3518C52.0373 13.3518 52.4446 13.759 52.4446 14.2602Z" fill="white"/>
<path d="M56.0783 14.2602C56.0783 14.7614 55.671 15.1687 55.1698 15.1687C54.6686 15.1687 54.2614 14.7614 54.2614 14.2602C54.2614 13.759 54.6686 13.3518 55.1698 13.3518C55.671 13.3518 56.0783 13.759 56.0783 14.2602Z" fill="white"/>
<path d="M58.8012 15.1687C59.3029 15.1687 59.7096 14.762 59.7096 14.2602C59.7096 13.7585 59.3029 13.3518 58.8012 13.3518C58.2995 13.3518 57.8928 13.7585 57.8928 14.2602C57.8928 14.762 58.2995 15.1687 58.8012 15.1687Z" fill="white"/>
<path d="M138.416 14.6217H133.3C133.1 14.6217 132.939 14.4602 132.939 14.2602C132.939 14.0602 133.1 13.8988 133.3 13.8988H138.416C138.616 13.8988 138.777 14.0602 138.777 14.2602C138.777 14.4602 138.616 14.6217 138.416 14.6217Z" fill="white"/>
<path d="M130.996 14.6217H71.9723C71.7723 14.6217 71.6108 14.4602 71.6108 14.2602C71.6108 14.0602 71.7723 13.8988 71.9723 13.8988H130.996C131.196 13.8988 131.358 14.0602 131.358 14.2602C131.358 14.4602 131.196 14.6217 130.996 14.6217Z" fill="white"/>
<path d="M66.4012 14.6217H61.8903C61.6903 14.6217 61.5289 14.4602 61.5289 14.2602C61.5289 14.0602 61.6903 13.8988 61.8903 13.8988H66.4012C66.6012 13.8988 66.7626 14.0602 66.7626 14.2602C66.7626 14.4602 66.6012 14.6217 66.4012 14.6217Z" fill="white"/>
<path d="M74.7795 22.7397H51.4927V46.0265H74.7795V22.7397Z" fill="white"/>
<path d="M84.1457 22.7397H79.0614V27.8241H84.1457V22.7397Z" fill="#3F526F" fill-opacity="0.16"/>
<path d="M136.071 22.7397H87.6253V27.8241H136.071V22.7397Z" fill="white"/>
<path d="M84.1457 31.8409H79.0614V36.9253H84.1457V31.8409Z" fill="#3F526F" fill-opacity="0.16"/>
<path d="M136.071 31.8409H87.6253V36.9253H136.071V31.8409Z" fill="white"/>
<path d="M84.1457 40.9397H79.0614V46.024H84.1457V40.9397Z" fill="#3F526F" fill-opacity="0.16"/>
<path d="M136.071 40.9397H87.6253V46.024H136.071V40.9397Z" fill="white"/>
<path d="M174.155 60.0529C181.748 62.1879 191.522 70.4072 191.522 85.3204C191.522 96.065 175.698 105.164 175.698 105.164L173.088 98.7566C173.088 98.7566 181.811 92.2987 181.394 84.7566C181.059 78.7108 171.31 76.8313 171.31 76.8313L174.158 60.0505L174.155 60.0529Z" fill="#3F526F"/>
<path d="M174.155 60.0529C181.748 62.1879 191.522 70.4072 191.522 85.3204C191.522 96.065 175.698 105.164 175.698 105.164L173.088 98.7566C173.088 98.7566 181.811 92.2987 181.394 84.7566C181.059 78.7108 171.31 76.8313 171.31 76.8313L174.158 60.0505L174.155 60.0529Z" fill="white" fill-opacity="0.16"/>
<path d="M170.951 176.202H165.493V182.61H170.951V176.202Z" fill="#3F526F"/>
<path d="M170.951 176.202H165.493V182.61H170.951V176.202Z" fill="white" fill-opacity="0.16"/>
<path d="M154.952 175.191L149.64 176.445L151.112 182.68L156.424 181.427L154.952 175.191Z" fill="#3F526F"/>
<path d="M154.952 175.191L149.64 176.445L151.112 182.68L156.424 181.427L154.952 175.191Z" fill="white" fill-opacity="0.16"/>
<path d="M175.459 96.7132C175.459 96.7132 177.088 109.598 175.837 114.6C174.587 119.602 171.661 165.831 171.661 178.337H164.305L160.982 119.253L150.717 140.689C149.972 142.429 149.782 144.357 150.175 146.207L156.235 178.335L149.353 178.81L137.849 143.532C137.334 141.783 137.298 139.928 137.739 138.159L147.069 100.841L175.454 96.7108L175.459 96.7132Z" fill="#3F526F"/>
<path d="M175.459 96.7132C175.459 96.7132 177.088 109.598 175.837 114.6C174.587 119.602 171.661 165.831 171.661 178.337H164.305L160.982 119.253L150.717 140.689C149.972 142.429 149.782 144.357 150.175 146.207L156.235 178.335L149.353 178.81L137.849 143.532C137.334 141.783 137.298 139.928 137.739 138.159L147.069 100.841L175.454 96.7108L175.459 96.7132Z" fill="black" fill-opacity="0.16"/>
<path d="M161.341 118.311C161.261 118.311 161.182 118.284 161.114 118.231C160.958 118.106 160.934 117.88 161.059 117.723L164.857 112.978C164.982 112.822 165.208 112.798 165.365 112.923C165.522 113.048 165.546 113.275 165.42 113.431L161.623 118.176C161.551 118.265 161.447 118.311 161.341 118.311Z" fill="white"/>
<path d="M171.307 181.186H164.9L163.951 186.022C163.767 186.954 164.442 187.829 165.343 187.829H170.864C171.765 187.829 172.44 186.954 172.257 186.022L171.307 181.186Z" fill="white"/>
<path d="M170.864 188.19H165.343C164.823 188.19 164.331 187.954 163.992 187.542C163.628 187.101 163.486 186.52 163.596 185.952L164.546 181.116C164.58 180.947 164.727 180.824 164.9 180.824H171.307C171.481 180.824 171.628 180.947 171.661 181.116L172.611 185.952C172.722 186.52 172.58 187.101 172.216 187.542C171.876 187.954 171.384 188.19 170.864 188.19ZM165.196 181.547L164.305 186.092C164.235 186.448 164.324 186.81 164.548 187.084C164.753 187.333 165.035 187.47 165.341 187.47H170.861C171.17 187.47 171.452 187.333 171.654 187.084C171.878 186.81 171.967 186.448 171.898 186.092L171.006 181.547H165.194H165.196Z" fill="#3F526F"/>
<path d="M170.864 188.19H165.343C164.823 188.19 164.331 187.954 163.992 187.542C163.628 187.101 163.486 186.52 163.596 185.952L164.546 181.116C164.58 180.947 164.727 180.824 164.9 180.824H171.307C171.481 180.824 171.628 180.947 171.661 181.116L172.611 185.952C172.722 186.52 172.58 187.101 172.216 187.542C171.876 187.954 171.384 188.19 170.864 188.19ZM165.196 181.547L164.305 186.092C164.235 186.448 164.324 186.81 164.548 187.084C164.753 187.333 165.035 187.47 165.341 187.47H170.861C171.17 187.47 171.452 187.333 171.654 187.084C171.878 186.81 171.967 186.448 171.898 186.092L171.006 181.547H165.194H165.196Z" fill="black" fill-opacity="0.16"/>
<path d="M171.307 186.648H164.664C164.464 186.648 164.302 186.487 164.302 186.287C164.302 186.087 164.464 185.925 164.664 185.925H171.307C171.507 185.925 171.669 186.087 171.669 186.287C171.669 186.487 171.507 186.648 171.307 186.648Z" fill="#3F526F"/>
<path d="M171.307 186.648H164.664C164.464 186.648 164.302 186.487 164.302 186.287C164.302 186.087 164.464 185.925 164.664 185.925H171.307C171.507 185.925 171.669 186.087 171.669 186.287C171.669 186.487 171.507 186.648 171.307 186.648Z" fill="black" fill-opacity="0.16"/>
<path d="M156.596 179.761L158.351 185.583C158.657 186.595 158.037 187.667 157.131 187.699L145.078 188.106C144.334 188.13 144.035 186.976 144.664 186.504C146.625 185.029 149.235 182.983 149.951 182.012C151.611 179.761 153.273 181.73 153.273 181.73C153.273 181.73 154.459 179.761 156.596 179.761Z" fill="white"/>
<path d="M145.054 188.47C144.596 188.47 144.211 188.178 144.042 187.699C143.878 187.236 143.941 186.598 144.449 186.214C147.278 184.089 149.129 182.52 149.664 181.798C150.247 181.01 150.905 180.598 151.623 180.573C152.319 180.552 152.886 180.906 153.223 181.183C153.705 180.571 154.854 179.402 156.599 179.402C156.758 179.402 156.9 179.506 156.946 179.66L158.7 185.482C158.895 186.128 158.784 186.829 158.406 187.357C158.095 187.788 157.637 188.046 157.146 188.063L145.093 188.47C145.081 188.47 145.069 188.47 145.057 188.47H145.054ZM151.683 181.296C151.669 181.296 151.654 181.296 151.64 181.296C151.155 181.313 150.686 181.626 150.242 182.226C149.507 183.224 146.922 185.26 144.881 186.793C144.666 186.954 144.647 187.251 144.722 187.458C144.753 187.547 144.842 187.754 145.066 187.747L157.119 187.34C157.389 187.33 157.635 187.188 157.816 186.935C158.061 186.593 158.134 186.116 158.004 185.691L156.331 180.137C154.594 180.291 153.594 181.904 153.584 181.92C153.524 182.019 153.418 182.084 153.302 182.094C153.187 182.104 153.074 182.055 152.999 181.966C152.994 181.961 152.418 181.296 151.686 181.296H151.683Z" fill="#3F526F"/>
<path d="M145.054 188.47C144.596 188.47 144.211 188.178 144.042 187.699C143.878 187.236 143.941 186.598 144.449 186.214C147.278 184.089 149.129 182.52 149.664 181.798C150.247 181.01 150.905 180.598 151.623 180.573C152.319 180.552 152.886 180.906 153.223 181.183C153.705 180.571 154.854 179.402 156.599 179.402C156.758 179.402 156.9 179.506 156.946 179.66L158.7 185.482C158.895 186.128 158.784 186.829 158.406 187.357C158.095 187.788 157.637 188.046 157.146 188.063L145.093 188.47C145.081 188.47 145.069 188.47 145.057 188.47H145.054ZM151.683 181.296C151.669 181.296 151.654 181.296 151.64 181.296C151.155 181.313 150.686 181.626 150.242 182.226C149.507 183.224 146.922 185.26 144.881 186.793C144.666 186.954 144.647 187.251 144.722 187.458C144.753 187.547 144.842 187.754 145.066 187.747L157.119 187.34C157.389 187.33 157.635 187.188 157.816 186.935C158.061 186.593 158.134 186.116 158.004 185.691L156.331 180.137C154.594 180.291 153.594 181.904 153.584 181.92C153.524 182.019 153.418 182.084 153.302 182.094C153.187 182.104 153.074 182.055 152.999 181.966C152.994 181.961 152.418 181.296 151.686 181.296H151.683Z" fill="black" fill-opacity="0.16"/>
<path d="M146.392 186.648C146.199 186.648 146.04 186.496 146.03 186.304C146.02 186.104 146.177 185.935 146.375 185.928L157.29 185.453C157.488 185.443 157.659 185.6 157.666 185.798C157.676 185.998 157.519 186.166 157.322 186.174L146.406 186.648C146.406 186.648 146.396 186.648 146.389 186.648H146.392Z" fill="#3F526F"/>
<path d="M146.392 186.648C146.199 186.648 146.04 186.496 146.03 186.304C146.02 186.104 146.177 185.935 146.375 185.928L157.29 185.453C157.488 185.443 157.659 185.6 157.666 185.798C157.676 185.998 157.519 186.166 157.322 186.174L146.406 186.648C146.406 186.648 146.396 186.648 146.389 186.648H146.392Z" fill="black" fill-opacity="0.16"/>
<path d="M163.001 56.7301L168.934 60.7639L152.599 59.9831L157.307 56.9687L157.941 54.0506C157.105 53.9277 155.955 53.8434 155.592 53.388C154.946 52.5831 155.237 49.8 155.237 49.8L154.529 49.2434C154.454 49.2048 154.399 49.1374 154.375 49.0554C154.353 48.9735 154.365 48.8868 154.411 48.8169C155.011 47.8578 155.579 47.5494 155.845 46.5735C156.107 45.6121 155.992 45.7566 157.028 43.6844L163.24 43.6771L163.273 48.3325C163.273 48.3325 164.228 47.7157 164.83 48.5494C165.269 49.1542 164.298 51.1759 163.51 51.1783L163.001 56.7374V56.7301Z" fill="white"/>
<path d="M168.934 61.1252C168.934 61.1252 168.922 61.1252 168.917 61.1252L152.582 60.3445C152.425 60.3373 152.29 60.2289 152.249 60.0771C152.208 59.9252 152.271 59.7638 152.404 59.6795L156.984 56.7469L157.502 54.3566C156.62 54.2385 155.707 54.1156 155.307 53.6144C154.673 52.8265 154.796 50.6698 154.857 49.9614L154.326 49.5445C154.179 49.4578 154.071 49.318 154.025 49.1518C153.975 48.9734 154.004 48.7807 154.102 48.624C154.336 48.2505 154.567 47.971 154.77 47.7228C155.093 47.3277 155.348 47.0168 155.495 46.4771C155.531 46.3493 155.558 46.2409 155.584 46.1421C155.758 45.4722 155.818 45.2915 156.702 43.5204C156.763 43.3975 156.888 43.3204 157.025 43.3204L163.237 43.3108C163.435 43.3108 163.596 43.4698 163.599 43.6698L163.63 47.7927C164.1 47.6795 164.69 47.7373 165.122 48.3325C165.471 48.8144 165.252 49.6602 164.929 50.2939C164.804 50.5373 164.404 51.2481 163.845 51.4674L163.379 56.5518L169.136 60.465C169.271 60.5566 169.326 60.7252 169.276 60.8795C169.225 61.0265 169.088 61.1252 168.934 61.1252ZM153.748 59.6746L167.669 60.3421L162.796 57.0289C162.688 56.9542 162.628 56.8289 162.64 56.6963L163.148 51.1373C163.165 50.9518 163.322 50.8096 163.507 50.8096C163.652 50.8096 163.987 50.5469 164.285 49.9638C164.584 49.3759 164.625 48.8771 164.536 48.7566C164.158 48.2361 163.577 48.5614 163.466 48.6313C163.355 48.7012 163.216 48.706 163.1 48.6433C162.984 48.5807 162.912 48.4602 162.912 48.3301L162.881 44.0337L157.249 44.0409C156.469 45.6096 156.432 45.7493 156.283 46.3228C156.257 46.4216 156.228 46.5325 156.192 46.665C156.004 47.3542 155.676 47.7566 155.326 48.1807C155.139 48.4096 154.946 48.6457 154.746 48.9542C154.746 48.9542 154.746 48.9542 154.748 48.9566L155.457 49.5132C155.553 49.5903 155.606 49.7108 155.592 49.8361C155.486 50.8554 155.466 52.6602 155.869 53.1614C156.09 53.4361 156.999 53.559 157.599 53.6385C157.734 53.6554 157.864 53.6746 157.989 53.6915C158.088 53.706 158.177 53.7614 158.232 53.8433C158.29 53.9252 158.31 54.0289 158.288 54.1252L157.654 57.0433C157.635 57.1373 157.577 57.2192 157.495 57.2698L153.741 59.6722L153.748 59.6746Z" fill="#3F526F"/>
<path d="M168.934 61.1252C168.934 61.1252 168.922 61.1252 168.917 61.1252L152.582 60.3445C152.425 60.3373 152.29 60.2289 152.249 60.0771C152.208 59.9252 152.271 59.7638 152.404 59.6795L156.984 56.7469L157.502 54.3566C156.62 54.2385 155.707 54.1156 155.307 53.6144C154.673 52.8265 154.796 50.6698 154.857 49.9614L154.326 49.5445C154.179 49.4578 154.071 49.318 154.025 49.1518C153.975 48.9734 154.004 48.7807 154.102 48.624C154.336 48.2505 154.567 47.971 154.77 47.7228C155.093 47.3277 155.348 47.0168 155.495 46.4771C155.531 46.3493 155.558 46.2409 155.584 46.1421C155.758 45.4722 155.818 45.2915 156.702 43.5204C156.763 43.3975 156.888 43.3204 157.025 43.3204L163.237 43.3108C163.435 43.3108 163.596 43.4698 163.599 43.6698L163.63 47.7927C164.1 47.6795 164.69 47.7373 165.122 48.3325C165.471 48.8144 165.252 49.6602 164.929 50.2939C164.804 50.5373 164.404 51.2481 163.845 51.4674L163.379 56.5518L169.136 60.465C169.271 60.5566 169.326 60.7252 169.276 60.8795C169.225 61.0265 169.088 61.1252 168.934 61.1252ZM153.748 59.6746L167.669 60.3421L162.796 57.0289C162.688 56.9542 162.628 56.8289 162.64 56.6963L163.148 51.1373C163.165 50.9518 163.322 50.8096 163.507 50.8096C163.652 50.8096 163.987 50.5469 164.285 49.9638C164.584 49.3759 164.625 48.8771 164.536 48.7566C164.158 48.2361 163.577 48.5614 163.466 48.6313C163.355 48.7012 163.216 48.706 163.1 48.6433C162.984 48.5807 162.912 48.4602 162.912 48.3301L162.881 44.0337L157.249 44.0409C156.469 45.6096 156.432 45.7493 156.283 46.3228C156.257 46.4216 156.228 46.5325 156.192 46.665C156.004 47.3542 155.676 47.7566 155.326 48.1807C155.139 48.4096 154.946 48.6457 154.746 48.9542C154.746 48.9542 154.746 48.9542 154.748 48.9566L155.457 49.5132C155.553 49.5903 155.606 49.7108 155.592 49.8361C155.486 50.8554 155.466 52.6602 155.869 53.1614C156.09 53.4361 156.999 53.559 157.599 53.6385C157.734 53.6554 157.864 53.6746 157.989 53.6915C158.088 53.706 158.177 53.7614 158.232 53.8433C158.29 53.9252 158.31 54.0289 158.288 54.1252L157.654 57.0433C157.635 57.1373 157.577 57.2192 157.495 57.2698L153.741 59.6722L153.748 59.6746Z" fill="black" fill-opacity="0.16"/>
<path d="M163.813 53.253C162.563 53.6699 161.327 52.6916 161.105 52.5133C160.235 51.8241 159.524 50.5928 159.873 50.0506C160.066 49.7518 160.408 49.9157 160.859 49.559C161.522 49.0337 161.71 47.8964 161.351 47.5904C161.057 47.3398 160.599 47.8193 160.119 47.5904C159.534 47.3108 159.833 46.4121 159.38 45.6217C158.64 44.3301 156.914 45.1084 155.589 43.7325C154.724 42.8337 154.348 41.3374 154.842 40.4916C154.987 40.2434 155.208 40.0265 155.522 39.853C157.608 38.7036 157.919 40.2771 159.951 40.294C164.131 40.3301 166.18 41.1663 166.936 42.8988C167.449 44.0747 166.823 45.947 166.519 46.853C166.418 47.1566 166.206 47.7277 166.028 48.5759C165.833 49.506 165.893 49.7446 165.782 50.2988C165.705 50.6868 165.288 52.7614 163.813 53.253Z" fill="#3F526F"/>
<path d="M163.813 53.253C162.563 53.6699 161.327 52.6916 161.105 52.5133C160.235 51.8241 159.524 50.5928 159.873 50.0506C160.066 49.7518 160.408 49.9157 160.859 49.559C161.522 49.0337 161.71 47.8964 161.351 47.5904C161.057 47.3398 160.599 47.8193 160.119 47.5904C159.534 47.3108 159.833 46.4121 159.38 45.6217C158.64 44.3301 156.914 45.1084 155.589 43.7325C154.724 42.8337 154.348 41.3374 154.842 40.4916C154.987 40.2434 155.208 40.0265 155.522 39.853C157.608 38.7036 157.919 40.2771 159.951 40.294C164.131 40.3301 166.18 41.1663 166.936 42.8988C167.449 44.0747 166.823 45.947 166.519 46.853C166.418 47.1566 166.206 47.7277 166.028 48.5759C165.833 49.506 165.893 49.7446 165.782 50.2988C165.705 50.6868 165.288 52.7614 163.813 53.253Z" fill="black" fill-opacity="0.16"/>
<path d="M146.392 59.1036C146.392 59.1036 160.628 55.0698 174.153 60.053C175.194 66.0481 175.91 71.2289 176.406 75.3276C177.283 82.5469 176.736 80.2409 177.83 90.7807C178.51 97.3301 178.69 97.9301 178.066 99.0867C174.929 104.906 162.283 104.59 157.423 103.359C157.078 103.272 155.652 102.896 153.317 102.306C150.645 101.631 148.449 101.099 146.982 100.749C146.189 100.39 145.119 99.7542 144.372 98.6144C142.7 96.0602 143.818 92.7542 144.372 90.5469C145.796 84.877 143.927 84.7542 144.372 74.412C144.529 70.7951 144.984 65.5421 146.389 59.1084L146.392 59.1036Z" fill="#3F526F"/>
<path d="M146.392 59.1036C146.392 59.1036 160.628 55.0698 174.153 60.053C175.194 66.0481 175.91 71.2289 176.406 75.3276C177.283 82.5469 176.736 80.2409 177.83 90.7807C178.51 97.3301 178.69 97.9301 178.066 99.0867C174.929 104.906 162.283 104.59 157.423 103.359C157.078 103.272 155.652 102.896 153.317 102.306C150.645 101.631 148.449 101.099 146.982 100.749C146.189 100.39 145.119 99.7542 144.372 98.6144C142.7 96.0602 143.818 92.7542 144.372 90.5469C145.796 84.877 143.927 84.7542 144.372 74.412C144.529 70.7951 144.984 65.5421 146.389 59.1084L146.392 59.1036Z" fill="white" fill-opacity="0.16"/>
<path d="M114.652 54.1397L113.008 47.0337L108.428 42.9686C108.428 42.9686 105.823 43.012 110.088 47.4771C110.088 47.4771 108.049 51.4674 109.367 53.053C109.751 53.5132 111.946 56.3686 111.946 56.3686L114.649 54.1421L114.652 54.1397Z" fill="white"/>
<path d="M111.946 56.7277C111.931 56.7277 111.919 56.7277 111.905 56.7277C111.808 56.7156 111.719 56.6674 111.659 56.5879C111.637 56.559 109.464 53.7349 109.088 53.2843C107.804 51.7421 109.196 48.4987 109.652 47.5445C107.755 45.5252 107.008 44.1301 107.363 43.2771C107.579 42.759 108.129 42.612 108.418 42.6072C108.507 42.6048 108.596 42.6385 108.664 42.6987L113.245 46.7638C113.3 46.8144 113.341 46.8795 113.358 46.9518L115.001 54.0578C115.032 54.1903 114.984 54.3301 114.878 54.4192L112.172 56.6457C112.107 56.6987 112.025 56.7277 111.943 56.7277H111.946ZM108.312 43.3493C108.213 43.3734 108.081 43.4313 108.03 43.5566C107.948 43.7614 107.869 44.6313 110.348 47.2265C110.454 47.3373 110.478 47.5036 110.408 47.6409C109.871 48.6915 108.688 51.6722 109.642 52.8192C109.955 53.1951 111.428 55.1036 112.001 55.8481L114.245 53.9999L112.678 47.224L108.31 43.3469L108.312 43.3493Z" fill="#3F526F"/>
<path d="M111.946 56.7277C111.931 56.7277 111.919 56.7277 111.905 56.7277C111.808 56.7156 111.719 56.6674 111.659 56.5879C111.637 56.559 109.464 53.7349 109.088 53.2843C107.804 51.7421 109.196 48.4987 109.652 47.5445C107.755 45.5252 107.008 44.1301 107.363 43.2771C107.579 42.759 108.129 42.612 108.418 42.6072C108.507 42.6048 108.596 42.6385 108.664 42.6987L113.245 46.7638C113.3 46.8144 113.341 46.8795 113.358 46.9518L115.001 54.0578C115.032 54.1903 114.984 54.3301 114.878 54.4192L112.172 56.6457C112.107 56.6987 112.025 56.7277 111.943 56.7277H111.946ZM108.312 43.3493C108.213 43.3734 108.081 43.4313 108.03 43.5566C107.948 43.7614 107.869 44.6313 110.348 47.2265C110.454 47.3373 110.478 47.5036 110.408 47.6409C109.871 48.6915 108.688 51.6722 109.642 52.8192C109.955 53.1951 111.428 55.1036 112.001 55.8481L114.245 53.9999L112.678 47.224L108.31 43.3469L108.312 43.3493Z" fill="black" fill-opacity="0.16"/>
<path d="M110.327 56.0193L115.31 52.6964C115.31 52.6964 120.529 64.3229 128.596 65.5085C136.664 66.694 140.461 58.8651 150.9 58.1518L151.136 72.6265C151.136 72.6265 140.934 81.6434 131.917 81.1687C122.9 80.694 113.408 65.0338 110.324 56.0169L110.327 56.0193Z" fill="#3F526F"/>
<path d="M110.327 56.0193L115.31 52.6964C115.31 52.6964 120.529 64.3229 128.596 65.5085C136.664 66.694 140.461 58.8651 150.9 58.1518L151.136 72.6265C151.136 72.6265 140.934 81.6434 131.917 81.1687C122.9 80.694 113.408 65.0338 110.324 56.0169L110.327 56.0193Z" fill="white" fill-opacity="0.16"/>
<path d="M172.435 103.402C172.259 103.402 172.105 103.272 172.078 103.094C172.049 102.896 172.187 102.713 172.384 102.684C172.647 102.646 178.811 101.67 177.994 95.8144C177.967 95.6168 178.105 95.4337 178.302 95.4072C178.498 95.3807 178.683 95.518 178.71 95.7156C179.628 102.287 172.56 103.39 172.488 103.4C172.471 103.402 172.452 103.405 172.435 103.405V103.402Z" fill="white"/>
<path d="M155.946 97.8674C155.854 97.8674 155.763 97.8337 155.693 97.7638C150.047 92.1976 148.883 83.7735 148.835 83.4168C148.808 83.2192 148.948 83.0385 149.146 83.012C149.343 82.9855 149.526 83.1253 149.551 83.3229C149.563 83.4072 150.734 91.8626 156.199 97.2482C156.341 97.3879 156.343 97.6168 156.204 97.759C156.134 97.8313 156.04 97.8674 155.946 97.8674Z" fill="white"/>
<path d="M124.066 122.88H53.7072C50.9626 122.88 49.059 125.106 49.4566 127.851L57.5554 183.68C57.953 186.424 60.5024 188.651 63.247 188.651H133.606C136.351 188.651 138.254 186.424 137.857 183.68L129.758 127.851C129.36 125.106 126.811 122.88 124.066 122.88Z" fill="#3F526F"/>
<path d="M124.066 122.88H53.7072C50.9626 122.88 49.059 125.106 49.4566 127.851L57.5554 183.68C57.953 186.424 60.5024 188.651 63.247 188.651H133.606C136.351 188.651 138.254 186.424 137.857 183.68L129.758 127.851C129.36 125.106 126.811 122.88 124.066 122.88Z" fill="white" fill-opacity="0.16"/>
<path d="M133.608 189.012H63.2494C60.3361 189.012 57.6229 186.643 57.1988 183.732L49.1 127.904C48.8904 126.46 49.2615 125.104 50.1458 124.082C51.0181 123.075 52.2831 122.52 53.7072 122.52H124.066C126.98 122.52 129.693 124.889 130.117 127.8L138.216 183.629C138.425 185.072 138.054 186.429 137.17 187.45C136.298 188.458 135.033 189.012 133.608 189.012ZM53.7072 123.241C52.4952 123.241 51.4253 123.706 50.6928 124.554C49.9482 125.414 49.6374 126.566 49.8157 127.8L57.9145 183.629C58.288 186.2 60.6807 188.291 63.2494 188.291H133.608C134.82 188.291 135.89 187.826 136.623 186.978C137.367 186.118 137.678 184.966 137.5 183.732L129.401 127.904C129.028 125.332 126.635 123.241 124.066 123.241H53.7072Z" fill="#3F526F"/>
<path d="M133.608 189.012H63.2494C60.3361 189.012 57.6229 186.643 57.1988 183.732L49.1 127.904C48.8904 126.46 49.2615 125.104 50.1458 124.082C51.0181 123.075 52.2831 122.52 53.7072 122.52H124.066C126.98 122.52 129.693 124.889 130.117 127.8L138.216 183.629C138.425 185.072 138.054 186.429 137.17 187.45C136.298 188.458 135.033 189.012 133.608 189.012ZM53.7072 123.241C52.4952 123.241 51.4253 123.706 50.6928 124.554C49.9482 125.414 49.6374 126.566 49.8157 127.8L57.9145 183.629C58.288 186.2 60.6807 188.291 63.2494 188.291H133.608C134.82 188.291 135.89 187.826 136.623 186.978C137.367 186.118 137.678 184.966 137.5 183.732L129.401 127.904C129.028 125.332 126.635 123.241 124.066 123.241H53.7072Z" fill="black" fill-opacity="0.16"/>
<path d="M126.271 131.398H53.8711C53.6711 131.398 53.5096 131.236 53.5096 131.036C53.5096 130.836 53.6711 130.675 53.8711 130.675H126.271C126.471 130.675 126.633 130.836 126.633 131.036C126.633 131.236 126.471 131.398 126.271 131.398Z" fill="white"/>
<path d="M58.1506 126.701C58.2518 127.405 57.7651 127.976 57.0614 127.976C56.3578 127.976 55.7048 127.405 55.6012 126.701C55.5 125.998 55.9867 125.427 56.6904 125.427C57.394 125.427 58.047 125.998 58.1506 126.701Z" fill="white"/>
<path d="M63.2494 126.701C63.3506 127.405 62.8638 127.976 62.1602 127.976C61.4566 127.976 60.8036 127.405 60.7 126.701C60.5988 125.998 61.0855 125.427 61.7891 125.427C62.4927 125.427 63.1457 125.998 63.2494 126.701Z" fill="white"/>
<path d="M68.3458 126.701C68.447 127.405 67.9602 127.976 67.2566 127.976C66.553 127.976 65.9 127.405 65.7964 126.701C65.6952 125.998 66.1819 125.427 66.8855 125.427C67.5892 125.427 68.2422 125.998 68.3458 126.701Z" fill="white"/>
<path d="M125.705 127.063H118.524C118.324 127.063 118.163 126.901 118.163 126.701C118.163 126.501 118.324 126.34 118.524 126.34H125.705C125.905 126.34 126.066 126.501 126.066 126.701C126.066 126.901 125.905 127.063 125.705 127.063Z" fill="white"/>
<path d="M115.295 127.063H85.553C85.353 127.063 85.1915 126.901 85.1915 126.701C85.1915 126.501 85.353 126.34 85.553 126.34H115.295C115.495 126.34 115.657 126.501 115.657 126.701C115.657 126.901 115.495 127.063 115.295 127.063Z" fill="white"/>
<path d="M77.7361 127.063H71.406C71.206 127.063 71.0446 126.901 71.0446 126.701C71.0446 126.501 71.206 126.34 71.406 126.34H77.7361C77.9361 126.34 78.0976 126.501 78.0976 126.701C78.0976 126.901 77.9361 127.063 77.7361 127.063Z" fill="white"/>
<path d="M101.635 135.624H56.259C55.3434 135.624 54.7096 136.366 54.8422 137.282L57.4687 155.381C57.6012 156.296 58.4518 157.038 59.3651 157.038H104.741C105.657 157.038 106.29 156.296 106.158 155.381L103.531 137.282C103.399 136.366 102.548 135.624 101.635 135.624Z" fill="#3F526F" fill-opacity="0.16"/>
<path d="M104.741 157.4H59.3651C58.2783 157.4 57.2663 156.518 57.1096 155.434L54.4831 137.335C54.4036 136.783 54.5458 136.263 54.8879 135.87C55.2253 135.479 55.712 135.265 56.2566 135.265H101.633C102.719 135.265 103.731 136.147 103.888 137.231L106.514 155.33C106.594 155.882 106.449 156.402 106.11 156.795C105.772 157.186 105.286 157.4 104.741 157.4ZM56.2566 135.986C55.9241 135.986 55.6325 136.111 55.4349 136.34C55.2325 136.573 55.1506 136.889 55.1988 137.229L57.8253 155.328C57.9337 156.07 58.6229 156.675 59.3651 156.675H104.741C105.073 156.675 105.365 156.549 105.563 156.32C105.765 156.087 105.849 155.771 105.799 155.431L103.172 137.332C103.064 136.59 102.375 135.986 101.633 135.986H56.2566Z" fill="#3F526F"/>
<path d="M104.741 157.4H59.3651C58.2783 157.4 57.2663 156.518 57.1096 155.434L54.4831 137.335C54.4036 136.783 54.5458 136.263 54.8879 135.87C55.2253 135.479 55.712 135.265 56.2566 135.265H101.633C102.719 135.265 103.731 136.147 103.888 137.231L106.514 155.33C106.594 155.882 106.449 156.402 106.11 156.795C105.772 157.186 105.286 157.4 104.741 157.4ZM56.2566 135.986C55.9241 135.986 55.6325 136.111 55.4349 136.34C55.2325 136.573 55.1506 136.889 55.1988 137.229L57.8253 155.328C57.9337 156.07 58.6229 156.675 59.3651 156.675H104.741C105.073 156.675 105.365 156.549 105.563 156.32C105.765 156.087 105.849 155.771 105.799 155.431L103.172 137.332C103.064 136.59 102.375 135.986 101.633 135.986H56.2566Z" fill="black" fill-opacity="0.16"/>
<path d="M105.223 160.352H59.847C58.9313 160.352 58.2976 161.094 58.4301 162.01L61.2398 181.383C61.3723 182.299 62.2229 183.041 63.1361 183.041H108.512C109.428 183.041 110.061 182.299 109.929 181.383L107.119 162.01C106.987 161.094 106.136 160.352 105.223 160.352Z" fill="#3F526F" fill-opacity="0.16"/>
<path d="M108.514 183.402H63.1385C62.0518 183.402 61.0397 182.521 60.8831 181.436L58.0735 162.063C57.9939 161.511 58.1361 160.99 58.4783 160.598C58.8156 160.207 59.3024 159.993 59.847 159.993H105.223C106.31 159.993 107.322 160.875 107.478 161.959L110.288 181.333C110.367 181.884 110.225 182.405 109.883 182.798C109.546 183.188 109.059 183.402 108.514 183.402ZM59.8445 160.713C59.512 160.713 59.2204 160.839 59.0229 161.068C58.8204 161.301 58.7361 161.617 58.7867 161.957L61.5988 181.33C61.7072 182.072 62.3964 182.677 63.1385 182.677H108.514C108.847 182.677 109.139 182.552 109.336 182.323C109.539 182.089 109.623 181.774 109.572 181.434L106.76 162.06C106.652 161.318 105.963 160.713 105.22 160.713H59.8445Z" fill="#3F526F"/>
<path d="M108.514 183.402H63.1385C62.0518 183.402 61.0397 182.521 60.8831 181.436L58.0735 162.063C57.9939 161.511 58.1361 160.99 58.4783 160.598C58.8156 160.207 59.3024 159.993 59.847 159.993H105.223C106.31 159.993 107.322 160.875 107.478 161.959L110.288 181.333C110.367 181.884 110.225 182.405 109.883 182.798C109.546 183.188 109.059 183.402 108.514 183.402ZM59.8445 160.713C59.512 160.713 59.2204 160.839 59.0229 161.068C58.8204 161.301 58.7361 161.617 58.7867 161.957L61.5988 181.33C61.7072 182.072 62.3964 182.677 63.1385 182.677H108.514C108.847 182.677 109.139 182.552 109.336 182.323C109.539 182.089 109.623 181.774 109.572 181.434L106.76 162.06C106.652 161.318 105.963 160.713 105.22 160.713H59.8445Z" fill="black" fill-opacity="0.16"/>
<path d="M125.343 135.624H108.008C107.093 135.624 106.459 136.366 106.592 137.282L112.989 181.385C113.122 182.301 113.972 183.043 114.886 183.043H132.22C133.136 183.043 133.77 182.301 133.637 181.385L127.24 137.282C127.107 136.366 126.257 135.624 125.343 135.624Z" fill="#3F526F" fill-opacity="0.16"/>
<path d="M132.223 183.402H114.888C113.801 183.402 112.789 182.521 112.632 181.436L106.235 137.333C106.155 136.781 106.298 136.26 106.64 135.868C106.977 135.477 107.464 135.263 108.008 135.263H125.343C126.43 135.263 127.442 136.145 127.599 137.229L133.996 181.333C134.076 181.884 133.934 182.405 133.592 182.798C133.254 183.188 132.767 183.402 132.223 183.402ZM108.008 135.986C107.676 135.986 107.384 136.111 107.187 136.34C106.984 136.574 106.9 136.889 106.951 137.229L113.348 181.333C113.457 182.075 114.146 182.68 114.888 182.68H132.223C132.555 182.68 132.847 182.554 133.045 182.325C133.247 182.092 133.329 181.776 133.281 181.436L126.883 137.333C126.775 136.59 126.085 135.986 125.343 135.986H108.008Z" fill="#3F526F"/>
<path d="M132.223 183.402H114.888C113.801 183.402 112.789 182.521 112.632 181.436L106.235 137.333C106.155 136.781 106.298 136.26 106.64 135.868C106.977 135.477 107.464 135.263 108.008 135.263H125.343C126.43 135.263 127.442 136.145 127.599 137.229L133.996 181.333C134.076 181.884 133.934 182.405 133.592 182.798C133.254 183.188 132.767 183.402 132.223 183.402ZM108.008 135.986C107.676 135.986 107.384 136.111 107.187 136.34C106.984 136.574 106.9 136.889 106.951 137.229L113.348 181.333C113.457 182.075 114.146 182.68 114.888 182.68H132.223C132.555 182.68 132.847 182.554 133.045 182.325C133.247 182.092 133.329 181.776 133.281 181.436L126.883 137.333C126.775 136.59 126.085 135.986 125.343 135.986H108.008Z" fill="black" fill-opacity="0.16"/>
<path d="M116.587 141.104H73.741C71.6711 141.104 70.2374 142.781 70.5361 144.851L76.6422 186.94C76.9434 189.01 78.8639 190.687 80.9337 190.687H123.78C125.849 190.687 127.283 189.01 126.984 186.94L120.878 144.851C120.577 142.781 118.657 141.104 116.587 141.104Z" fill="white"/>
<path d="M123.779 191.048H80.9337C78.6951 191.048 76.6084 189.229 76.2855 186.99L70.1795 144.901C70.018 143.788 70.3048 142.74 70.9891 141.949C71.6638 141.171 72.6397 140.74 73.7409 140.74H116.587C118.825 140.74 120.912 142.559 121.235 144.798L127.341 186.887C127.502 188 127.216 189.048 126.531 189.839C125.857 190.617 124.881 191.048 123.779 191.048ZM73.7409 141.465C72.8542 141.465 72.071 141.805 71.5361 142.424C70.9915 143.053 70.765 143.896 70.8951 144.8L77.0012 186.889C77.2759 188.786 79.0397 190.328 80.9337 190.328H123.779C124.666 190.328 125.449 189.988 125.984 189.369C126.529 188.74 126.755 187.896 126.625 186.993L120.519 144.904C120.245 143.007 118.481 141.465 116.587 141.465H73.7409Z" fill="#3F526F"/>
<path d="M123.779 191.048H80.9337C78.6951 191.048 76.6084 189.229 76.2855 186.99L70.1795 144.901C70.018 143.788 70.3048 142.74 70.9891 141.949C71.6638 141.171 72.6397 140.74 73.7409 140.74H116.587C118.825 140.74 120.912 142.559 121.235 144.798L127.341 186.887C127.502 188 127.216 189.048 126.531 189.839C125.857 190.617 124.881 191.048 123.779 191.048ZM73.7409 141.465C72.8542 141.465 72.071 141.805 71.5361 142.424C70.9915 143.053 70.765 143.896 70.8951 144.8L77.0012 186.889C77.2759 188.786 79.0397 190.328 80.9337 190.328H123.779C124.666 190.328 125.449 189.988 125.984 189.369C126.529 188.74 126.755 187.896 126.625 186.993L120.519 144.904C120.245 143.007 118.481 141.465 116.587 141.465H73.7409Z" fill="black" fill-opacity="0.16"/>
<path d="M118.247 147.614H73.8638C73.6638 147.614 73.5024 147.453 73.5024 147.253C73.5024 147.053 73.6638 146.892 73.8638 146.892H118.247C118.447 146.892 118.608 147.053 118.608 147.253C118.608 147.453 118.447 147.614 118.247 147.614Z" fill="#3F526F"/>
<path d="M118.247 147.614H73.8638C73.6638 147.614 73.5024 147.453 73.5024 147.253C73.5024 147.053 73.6638 146.892 73.8638 146.892H118.247C118.447 146.892 118.608 147.053 118.608 147.253C118.608 147.453 118.447 147.614 118.247 147.614Z" fill="black" fill-opacity="0.16"/>
<path d="M77.0904 143.985C77.1675 144.516 76.7988 144.947 76.2687 144.947C75.7386 144.947 75.2446 144.516 75.1675 143.985C75.0904 143.455 75.459 143.024 75.9892 143.024C76.5193 143.024 77.0133 143.455 77.0904 143.985Z" fill="#3F526F" fill-opacity="0.16"/>
<path d="M80.9337 143.985C81.0108 144.516 80.6421 144.947 80.112 144.947C79.5819 144.947 79.0879 144.516 79.0108 143.985C78.9337 143.455 79.3024 143.024 79.8325 143.024C80.3626 143.024 80.8566 143.455 80.9337 143.985Z" fill="#3F526F" fill-opacity="0.16"/>
<path d="M84.7771 143.985C84.8542 144.516 84.4855 144.947 83.9554 144.947C83.4253 144.947 82.9313 144.516 82.8542 143.985C82.7771 143.455 83.1458 143.024 83.6759 143.024C84.206 143.024 84.7 143.455 84.7771 143.985Z" fill="#3F526F" fill-opacity="0.16"/>
<path d="M117.823 144.347H112.411C112.211 144.347 112.049 144.185 112.049 143.985C112.049 143.785 112.211 143.624 112.411 143.624H117.823C118.023 143.624 118.184 143.785 118.184 143.985C118.184 144.185 118.023 144.347 117.823 144.347Z" fill="#3F526F"/>
<path d="M117.823 144.347H112.411C112.211 144.347 112.049 144.185 112.049 143.985C112.049 143.785 112.211 143.624 112.411 143.624H117.823C118.023 143.624 118.184 143.785 118.184 143.985C118.184 144.185 118.023 144.347 117.823 144.347Z" fill="black" fill-opacity="0.16"/>
<path d="M109.975 144.347H97.7506C97.5506 144.347 97.3892 144.185 97.3892 143.985C97.3892 143.785 97.5506 143.624 97.7506 143.624H109.975C110.175 143.624 110.336 143.785 110.336 143.985C110.336 144.185 110.175 144.347 109.975 144.347Z" fill="#3F526F"/>
<path d="M109.975 144.347H97.7506C97.5506 144.347 97.3892 144.185 97.3892 143.985C97.3892 143.785 97.5506 143.624 97.7506 143.624H109.975C110.175 143.624 110.336 143.785 110.336 143.985C110.336 144.185 110.175 144.347 109.975 144.347Z" fill="black" fill-opacity="0.16"/>
<path d="M91.8566 144.347H87.0831C86.8831 144.347 86.7217 144.185 86.7217 143.985C86.7217 143.785 86.8831 143.624 87.0831 143.624H91.8566C92.0566 143.624 92.2181 143.785 92.2181 143.985C92.2181 144.185 92.0566 144.347 91.8566 144.347Z" fill="#3F526F"/>
<path d="M91.8566 144.347H87.0831C86.8831 144.347 86.7217 144.185 86.7217 143.985C86.7217 143.785 86.8831 143.624 87.0831 143.624H91.8566C92.0566 143.624 92.2181 143.785 92.2181 143.985C92.2181 144.185 92.0566 144.347 91.8566 144.347Z" fill="black" fill-opacity="0.16"/>
<path d="M119.772 175.39H79.7482L76.1988 150.918H116.22L119.772 175.39Z" fill="#3F526F" fill-opacity="0.16"/>
<path d="M104.881 179.942C104.736 178.94 103.876 178.195 102.861 178.195H82.5096C81.2663 178.195 80.312 179.296 80.4904 180.528C80.6349 181.53 81.4952 182.275 82.5096 182.275H102.861C104.105 182.275 105.059 181.174 104.881 179.942Z" fill="#3F526F" fill-opacity="0.16"/>
<path d="M146.392 16.3373C146.192 16.3373 146.03 16.1758 146.03 15.9758V14.1156C146.03 13.9156 146.192 13.7542 146.392 13.7542C146.592 13.7542 146.753 13.9156 146.753 14.1156V15.9758C146.753 16.1758 146.592 16.3373 146.392 16.3373Z" fill="#3F526F"/>
<path d="M146.392 16.3373C146.192 16.3373 146.03 16.1758 146.03 15.9758V14.1156C146.03 13.9156 146.192 13.7542 146.392 13.7542C146.592 13.7542 146.753 13.9156 146.753 14.1156V15.9758C146.753 16.1758 146.592 16.3373 146.392 16.3373Z" fill="black" fill-opacity="0.16"/>
<path d="M146.392 20.6698C146.192 20.6698 146.03 20.5084 146.03 20.3084V18.4481C146.03 18.2481 146.192 18.0867 146.392 18.0867C146.592 18.0867 146.753 18.2481 146.753 18.4481V20.3084C146.753 20.5084 146.592 20.6698 146.392 20.6698Z" fill="#3F526F"/>
<path d="M146.392 20.6698C146.192 20.6698 146.03 20.5084 146.03 20.3084V18.4481C146.03 18.2481 146.192 18.0867 146.392 18.0867C146.592 18.0867 146.753 18.2481 146.753 18.4481V20.3084C146.753 20.5084 146.592 20.6698 146.392 20.6698Z" fill="black" fill-opacity="0.16"/>
<path d="M145.155 17.5735H143.295C143.095 17.5735 142.934 17.412 142.934 17.212C142.934 17.012 143.095 16.8506 143.295 16.8506H145.155C145.355 16.8506 145.517 17.012 145.517 17.212C145.517 17.412 145.355 17.5735 145.155 17.5735Z" fill="#3F526F"/>
<path d="M145.155 17.5735H143.295C143.095 17.5735 142.934 17.412 142.934 17.212C142.934 17.012 143.095 16.8506 143.295 16.8506H145.155C145.355 16.8506 145.517 17.012 145.517 17.212C145.517 17.412 145.355 17.5735 145.155 17.5735Z" fill="black" fill-opacity="0.16"/>
<path d="M149.488 17.5735H147.628C147.428 17.5735 147.266 17.412 147.266 17.212C147.266 17.012 147.428 16.8506 147.628 16.8506H149.488C149.688 16.8506 149.849 17.012 149.849 17.212C149.849 17.412 149.688 17.5735 149.488 17.5735Z" fill="#3F526F"/>
<path d="M149.488 17.5735H147.628C147.428 17.5735 147.266 17.412 147.266 17.212C147.266 17.012 147.428 16.8506 147.628 16.8506H149.488C149.688 16.8506 149.849 17.012 149.849 17.212C149.849 17.412 149.688 17.5735 149.488 17.5735Z" fill="black" fill-opacity="0.16"/>
<path d="M80.9868 100.713C80.9627 100.713 80.9386 100.711 80.9145 100.706C80.7988 100.682 80.7024 100.602 80.6542 100.494L78.2783 94.9157C78.2036 94.7398 78.2783 94.5374 78.447 94.4506C78.6181 94.3639 78.8253 94.4265 78.9217 94.5904L80.6687 97.559C83.9916 91.0578 81.8976 82.2386 75.9145 78.0048C71.5506 74.9157 65.9554 74.3205 60.5458 73.7446C60.1193 73.6988 59.6928 73.653 59.2711 73.6072C53.1819 72.9398 46.9964 71.7157 42.9916 67.3084C40.1578 64.188 38.9169 59.6843 39.7554 55.5542C40.4229 52.2651 42.4205 49.6217 44.9747 48.6554C45.1627 48.5856 45.3699 48.6795 45.4398 48.8651C45.5096 49.0506 45.4157 49.2603 45.2301 49.3301C42.4542 50.3807 40.9482 53.306 40.4639 55.6964C39.6711 59.6048 40.8446 63.8699 43.5265 66.8217C47.3699 71.053 53.4012 72.2386 59.3482 72.8892C59.7699 72.9349 60.1964 72.9807 60.6205 73.0265C66.1217 73.6121 71.8108 74.2169 76.3289 77.4145C82.7747 81.9735 84.9096 91.6193 80.9916 98.4723C80.9265 98.5831 80.8084 98.653 80.6807 98.6554C80.6687 98.6554 80.6639 98.6554 80.6542 98.6554L81.1121 99.7301L84.4374 96.5759C84.5819 96.4386 84.8109 96.4434 84.9482 96.5904C85.0856 96.735 85.0783 96.9639 84.9337 97.1012L81.2325 100.614C81.1651 100.68 81.0759 100.713 80.9843 100.713H80.9868Z" fill="#3F526F"/>
<path d="M80.9868 100.713C80.9627 100.713 80.9386 100.711 80.9145 100.706C80.7988 100.682 80.7024 100.602 80.6542 100.494L78.2783 94.9157C78.2036 94.7398 78.2783 94.5374 78.447 94.4506C78.6181 94.3639 78.8253 94.4265 78.9217 94.5904L80.6687 97.559C83.9916 91.0578 81.8976 82.2386 75.9145 78.0048C71.5506 74.9157 65.9554 74.3205 60.5458 73.7446C60.1193 73.6988 59.6928 73.653 59.2711 73.6072C53.1819 72.9398 46.9964 71.7157 42.9916 67.3084C40.1578 64.188 38.9169 59.6843 39.7554 55.5542C40.4229 52.2651 42.4205 49.6217 44.9747 48.6554C45.1627 48.5856 45.3699 48.6795 45.4398 48.8651C45.5096 49.0506 45.4157 49.2603 45.2301 49.3301C42.4542 50.3807 40.9482 53.306 40.4639 55.6964C39.6711 59.6048 40.8446 63.8699 43.5265 66.8217C47.3699 71.053 53.4012 72.2386 59.3482 72.8892C59.7699 72.9349 60.1964 72.9807 60.6205 73.0265C66.1217 73.6121 71.8108 74.2169 76.3289 77.4145C82.7747 81.9735 84.9096 91.6193 80.9916 98.4723C80.9265 98.5831 80.8084 98.653 80.6807 98.6554C80.6687 98.6554 80.6639 98.6554 80.6542 98.6554L81.1121 99.7301L84.4374 96.5759C84.5819 96.4386 84.8109 96.4434 84.9482 96.5904C85.0856 96.735 85.0783 96.9639 84.9337 97.1012L81.2325 100.614C81.1651 100.68 81.0759 100.713 80.9843 100.713H80.9868Z" fill="black" fill-opacity="0.16"/>
<path d="M122.196 141.846C122.076 141.846 121.96 141.786 121.89 141.677C121.784 141.508 121.833 141.284 122.001 141.178C128.346 137.152 132.671 130.296 133.567 122.834C134.464 115.373 131.888 107.687 126.678 102.272C124.893 100.417 122.799 98.8169 120.77 97.2675C118.664 95.6578 116.486 93.9928 114.628 92.0289C111.425 88.6434 109.112 83.5663 110.367 79.0988L108.459 81.1566C108.339 81.2867 108.139 81.3108 107.992 81.2096C107.845 81.1084 107.792 80.9157 107.869 80.7542C108.789 78.8458 110.341 77.2723 112.237 76.3253C112.334 76.2771 112.449 76.2747 112.548 76.3205C112.647 76.3663 112.722 76.453 112.748 76.5566L113.89 80.8626C113.941 81.0554 113.828 81.253 113.635 81.3036C113.442 81.3542 113.245 81.241 113.194 81.0482L112.167 77.1831C112.047 77.2506 111.929 77.3205 111.813 77.3952C111.813 77.4578 111.801 77.5181 111.767 77.5759C109.276 82.1108 111.671 87.8554 115.151 91.5349C116.967 93.4578 119.122 95.1036 121.206 96.6964C123.254 98.2627 125.372 99.8819 127.194 101.776C132.553 107.345 135.204 115.251 134.281 122.925C133.358 130.6 128.912 137.653 122.384 141.793C122.324 141.831 122.257 141.848 122.192 141.848L122.196 141.846Z" fill="#3F526F"/>
<path d="M122.196 141.846C122.076 141.846 121.96 141.786 121.89 141.677C121.784 141.508 121.833 141.284 122.001 141.178C128.346 137.152 132.671 130.296 133.567 122.834C134.464 115.373 131.888 107.687 126.678 102.272C124.893 100.417 122.799 98.8169 120.77 97.2675C118.664 95.6578 116.486 93.9928 114.628 92.0289C111.425 88.6434 109.112 83.5663 110.367 79.0988L108.459 81.1566C108.339 81.2867 108.139 81.3108 107.992 81.2096C107.845 81.1084 107.792 80.9157 107.869 80.7542C108.789 78.8458 110.341 77.2723 112.237 76.3253C112.334 76.2771 112.449 76.2747 112.548 76.3205C112.647 76.3663 112.722 76.453 112.748 76.5566L113.89 80.8626C113.941 81.0554 113.828 81.253 113.635 81.3036C113.442 81.3542 113.245 81.241 113.194 81.0482L112.167 77.1831C112.047 77.2506 111.929 77.3205 111.813 77.3952C111.813 77.4578 111.801 77.5181 111.767 77.5759C109.276 82.1108 111.671 87.8554 115.151 91.5349C116.967 93.4578 119.122 95.1036 121.206 96.6964C123.254 98.2627 125.372 99.8819 127.194 101.776C132.553 107.345 135.204 115.251 134.281 122.925C133.358 130.6 128.912 137.653 122.384 141.793C122.324 141.831 122.257 141.848 122.192 141.848L122.196 141.846Z" fill="black" fill-opacity="0.16"/>
<path d="M41.8976 34.4265C41.8349 34.4265 41.7723 34.4097 41.7169 34.3783L14.2181 18.3663C14.0446 18.2651 13.9867 18.0434 14.0879 17.8723C14.1892 17.6988 14.4084 17.641 14.5819 17.7422L42.0807 33.7518C42.2542 33.853 42.312 34.0747 42.2108 34.2458C42.1434 34.3615 42.0229 34.4265 41.8976 34.4265Z" fill="#3F526F"/>
<path d="M41.8976 34.4265C41.8349 34.4265 41.7723 34.4097 41.7169 34.3783L14.2181 18.3663C14.0446 18.2651 13.9867 18.0434 14.0879 17.8723C14.1892 17.6988 14.4084 17.641 14.5819 17.7422L42.0807 33.7518C42.2542 33.853 42.312 34.0747 42.2108 34.2458C42.1434 34.3615 42.0229 34.4265 41.8976 34.4265Z" fill="black" fill-opacity="0.16"/>
<path d="M42.6229 31.2867C42.5192 31.2867 42.418 31.2433 42.3457 31.159L30.8277 17.477C30.7 17.3252 30.7192 17.0963 30.871 16.9686C31.0229 16.8409 31.2518 16.8602 31.3795 17.012L42.8976 30.6939C43.0253 30.8457 43.006 31.0746 42.8542 31.2023C42.7867 31.2602 42.7048 31.2867 42.6229 31.2867Z" fill="#3F526F"/>
<path d="M42.6229 31.2867C42.5192 31.2867 42.418 31.2433 42.3457 31.159L30.8277 17.477C30.7 17.3252 30.7192 17.0963 30.871 16.9686C31.0229 16.8409 31.2518 16.8602 31.3795 17.012L42.8976 30.6939C43.0253 30.8457 43.006 31.0746 42.8542 31.2023C42.7867 31.2602 42.7048 31.2867 42.6229 31.2867Z" fill="black" fill-opacity="0.16"/>
<path d="M67.7771 195.328C67.7385 195.328 67.7 195.323 67.6638 195.308C49.8349 189.393 37.3048 175.602 37.1819 175.465C37.0494 175.316 37.0614 175.089 37.2084 174.954C37.3578 174.822 37.5867 174.834 37.7193 174.981C37.8421 175.118 50.2494 188.766 67.8928 194.622C68.0831 194.684 68.1843 194.889 68.1217 195.079C68.0711 195.231 67.9313 195.328 67.7795 195.328H67.7771Z" fill="#3F526F"/>
<path d="M67.7771 195.328C67.7385 195.328 67.7 195.323 67.6638 195.308C49.8349 189.393 37.3048 175.602 37.1819 175.465C37.0494 175.316 37.0614 175.089 37.2084 174.954C37.3578 174.822 37.5867 174.834 37.7193 174.981C37.8421 175.118 50.2494 188.766 67.8928 194.622C68.0831 194.684 68.1843 194.889 68.1217 195.079C68.0711 195.231 67.9313 195.328 67.7795 195.328H67.7771Z" fill="black" fill-opacity="0.16"/>
<path d="M56.4639 194.337C56.4205 194.337 56.3771 194.33 56.3361 194.313C44.9578 190 36.2494 181.528 36.1627 181.443C36.0205 181.304 36.0181 181.075 36.1578 180.932C36.2976 180.79 36.5265 180.788 36.6687 180.928C36.7554 181.012 45.3578 189.378 56.5916 193.639C56.7771 193.708 56.8711 193.918 56.8012 194.104C56.7458 194.248 56.6084 194.337 56.4639 194.337Z" fill="#3F526F"/>
<path d="M56.4639 194.337C56.4205 194.337 56.3771 194.33 56.3361 194.313C44.9578 190 36.2494 181.528 36.1627 181.443C36.0205 181.304 36.0181 181.075 36.1578 180.932C36.2976 180.79 36.5265 180.788 36.6687 180.928C36.7554 181.012 45.3578 189.378 56.5916 193.639C56.7771 193.708 56.8711 193.918 56.8012 194.104C56.7458 194.248 56.6084 194.337 56.4639 194.337Z" fill="black" fill-opacity="0.16"/>
<path d="M35.1723 173.894C34.2879 173.894 33.5674 173.173 33.5674 172.289C33.5674 171.405 34.2879 170.684 35.1723 170.684C36.0566 170.684 36.7771 171.405 36.7771 172.289C36.7771 173.173 36.0566 173.894 35.1723 173.894ZM35.1723 171.407C34.6855 171.407 34.2903 171.802 34.2903 172.289C34.2903 172.776 34.6855 173.171 35.1723 173.171C35.659 173.171 36.0542 172.776 36.0542 172.289C36.0542 171.802 35.659 171.407 35.1723 171.407Z" fill="#3F526F"/>
<path d="M35.1723 173.894C34.2879 173.894 33.5674 173.173 33.5674 172.289C33.5674 171.405 34.2879 170.684 35.1723 170.684C36.0566 170.684 36.7771 171.405 36.7771 172.289C36.7771 173.173 36.0566 173.894 35.1723 173.894ZM35.1723 171.407C34.6855 171.407 34.2903 171.802 34.2903 172.289C34.2903 172.776 34.6855 173.171 35.1723 173.171C35.659 173.171 36.0542 172.776 36.0542 172.289C36.0542 171.802 35.659 171.407 35.1723 171.407Z" fill="black" fill-opacity="0.16"/>
<path d="M178.43 32.2048C178.29 32.2048 178.158 32.1229 178.098 31.988C171.652 17.1639 151.23 10.2916 151.025 10.2241C150.835 10.1615 150.734 9.95666 150.794 9.7687C150.857 9.57834 151.061 9.47714 151.249 9.53738C151.302 9.55425 156.534 11.2964 162.498 14.8723C168.018 18.1808 175.319 23.788 178.758 31.6988C178.837 31.882 178.753 32.094 178.57 32.1735C178.524 32.1928 178.473 32.2024 178.425 32.2024L178.43 32.2048Z" fill="white"/>
<path d="M183.326 34.9855C183.167 34.9855 183.023 34.8794 182.977 34.7204C178.886 19.8264 167.107 14.5011 166.989 14.4481C166.806 14.3686 166.724 14.1541 166.804 13.971C166.883 13.7879 167.098 13.706 167.281 13.7855C167.401 13.8385 179.495 19.306 183.676 34.5276C183.729 34.7204 183.616 34.918 183.423 34.971C183.392 34.9807 183.358 34.9831 183.326 34.9831V34.9855Z" fill="white"/>
</g>
<defs>
<clipPath id="clip0_610_610">
<rect width="200" height="200" fill="white" transform="translate(0.91687)"/>
</clipPath>
</defs>
</svg>
